<?xml version="1.0" encoding="UTF-8" standalone="no"?>
<!DOCTYPE svg PUBLIC "-//W3C//DTD SVG 1.1//EN"
 "http://www.w3.org/Graphics/SVG/1.1/DTD/svg11.dtd">
<!-- Generated by graphviz version 7.0.5 (20221223.1930)
 -->
<!-- Title: src/DrawingUtils.hpp Pages: 1 -->
<svg width="293pt" height="137pt"
 viewBox="0.00 0.00 293.00 137.00" xmlns="http://www.w3.org/2000/svg" xmlns:xlink="http://www.w3.org/1999/xlink">
<g id="graph0" class="graph" transform="scale(1 1) rotate(0) translate(4 133)">
<title>src/DrawingUtils.hpp</title>
<!-- Node1 -->
<g id="node1" class="node">
<title>Node1</title>
<g id="a_node1"><a xlink:title="drawing utils including geometry handling">
<polygon fill="#999999" stroke="#666666" points="201,-129 94,-129 94,-110 201,-110 201,-129"/>
<text text-anchor="middle" x="147.5" y="-117" font-family="Helvetica,sans-Serif" font-size="10.00">src/DrawingUtils.hpp</text>
</a>
</g>
</g>
<!-- Node2 -->
<g id="node2" class="node">
<title>Node2</title>
<g id="a_node2"><a xlink:href="_eyebrows_8hpp.html" target="_top" xlink:title="Eyebrow components.">
<polygon fill="white" stroke="#666666" points="93,-74 0,-74 0,-55 93,-55 93,-74"/>
<text text-anchor="middle" x="46.5" y="-62" font-family="Helvetica,sans-Serif" font-size="10.00">src/Eyebrows.hpp</text>
</a>
</g>
</g>
<!-- Node1&#45;&gt;Node2 -->
<g id="edge1" class="edge">
<title>Node1&#45;&gt;Node2</title>
<path fill="none" stroke="#63b8ff" d="M120.38,-104.27C102.23,-94.74 78.92,-82.51 63.38,-74.36"/>
<polygon fill="#63b8ff" stroke="#63b8ff" points="118.55,-107.26 129.03,-108.81 121.8,-101.06 118.55,-107.26"/>
</g>
<!-- Node4 -->
<g id="node4" class="node">
<title>Node4</title>
<g id="a_node4"><a xlink:href="_eyes_8hpp.html" target="_top" xlink:title="Eye components.">
<polygon fill="white" stroke="#666666" points="183.5,-74 111.5,-74 111.5,-55 183.5,-55 183.5,-74"/>
<text text-anchor="middle" x="147.5" y="-62" font-family="Helvetica,sans-Serif" font-size="10.00">src/Eyes.hpp</text>
</a>
</g>
</g>
<!-- Node1&#45;&gt;Node4 -->
<g id="edge3" class="edge">
<title>Node1&#45;&gt;Node4</title>
<path fill="none" stroke="#63b8ff" d="M147.5,-98.35C147.5,-90.1 147.5,-80.97 147.5,-74.44"/>
<polygon fill="#63b8ff" stroke="#63b8ff" points="144,-98.23 147.5,-108.23 151,-98.23 144,-98.23"/>
</g>
<!-- Node5 -->
<g id="node5" class="node">
<title>Node5</title>
<g id="a_node5"><a xlink:href="_mouths_8hpp.html" target="_top" xlink:title="Mouth components.">
<polygon fill="white" stroke="#666666" points="285,-74 202,-74 202,-55 285,-55 285,-74"/>
<text text-anchor="middle" x="243.5" y="-62" font-family="Helvetica,sans-Serif" font-size="10.00">src/Mouths.hpp</text>
</a>
</g>
</g>
<!-- Node1&#45;&gt;Node5 -->
<g id="edge5" class="edge">
<title>Node1&#45;&gt;Node5</title>
<path fill="none" stroke="#63b8ff" d="M173.76,-104C190.94,-94.52 212.83,-82.43 227.46,-74.36"/>
<polygon fill="#63b8ff" stroke="#63b8ff" points="172.17,-100.88 165.11,-108.78 175.56,-107.01 172.17,-100.88"/>
</g>
<!-- Node3 -->
<g id="node3" class="node">
<title>Node3</title>
<g id="a_node3"><a xlink:href="_face_templates_8hpp_source.html" target="_top" xlink:title=" ">
<polygon fill="white" stroke="#666666" points="220.5,-19 74.5,-19 74.5,0 220.5,0 220.5,-19"/>
<text text-anchor="middle" x="147.5" y="-7" font-family="Helvetica,sans-Serif" font-size="10.00">src/faces/FaceTemplates.hpp</text>
</a>
</g>
</g>
<!-- Node2&#45;&gt;Node3 -->
<g id="edge2" class="edge">
<title>Node2&#45;&gt;Node3</title>
<path fill="none" stroke="#63b8ff" d="M73.62,-49.27C91.77,-39.74 115.08,-27.51 130.62,-19.36"/>
<polygon fill="#63b8ff" stroke="#63b8ff" points="72.2,-46.06 64.97,-53.81 75.45,-52.26 72.2,-46.06"/>
</g>
<!-- Node4&#45;&gt;Node3 -->
<g id="edge4" class="edge">
<title>Node4&#45;&gt;Node3</title>
<path fill="none" stroke="#63b8ff" d="M147.5,-43.35C147.5,-35.1 147.5,-25.97 147.5,-19.44"/>
<polygon fill="#63b8ff" stroke="#63b8ff" points="144,-43.23 147.5,-53.23 151,-43.23 144,-43.23"/>
</g>
<!-- Node5&#45;&gt;Node3 -->
<g id="edge6" class="edge">
<title>Node5&#45;&gt;Node3</title>
<path fill="none" stroke="#63b8ff" d="M217.24,-49C200.06,-39.52 178.17,-27.43 163.54,-19.36"/>
<polygon fill="#63b8ff" stroke="#63b8ff" points="215.44,-52.01 225.89,-53.78 218.83,-45.88 215.44,-52.01"/>
</g>
</g>
</svg>
