<?xml version="1.0" encoding="UTF-8" standalone="no"?>
<!DOCTYPE svg PUBLIC "-//W3C//DTD SVG 1.1//EN"
 "http://www.w3.org/Graphics/SVG/1.1/DTD/svg11.dtd">
<!-- Generated by graphviz version 7.0.5 (20221223.1930)
 -->
<!-- Title: src/Mouths.hpp Pages: 1 -->
<!--zoomable 357 -->
<svg id="main" version="1.1" xmlns="http://www.w3.org/2000/svg" xmlns:xlink="http://www.w3.org/1999/xlink" xml:space="preserve" onload="init(evt)">
<style type="text/css"><![CDATA[
.edge:hover path { stroke: red; }
.edge:hover polygon { stroke: red; fill: red; }
]]></style>
<script type="text/javascript"><![CDATA[
var edges = document.getElementsByTagName('g');
if (edges && edges.length) {
  for (var i=0;i<edges.length;i++) {
    if (edges[i].id.substr(0,4)=='edge') {
      edges[i].setAttribute('class','edge');
    }
  }
}
]]></script>
        <defs>
                <circle id="rim" cx="0" cy="0" r="7"/>
                <circle id="rim2" cx="0" cy="0" r="3.5"/>
                <g id="zoomPlus">
                        <use xlink:href="#rim" fill="#404040">
                                <set attributeName="fill" to="#808080" begin="zoomplus.mouseover" end="zoomplus.mouseout"/>
                        </use>
                        <path d="M-4,0h8M0,-4v8" fill="none" stroke="white" stroke-width="1.5" pointer-events="none"/>
                </g>
                <g id="zoomMin">
                        <use xlink:href="#rim" fill="#404040">
                                <set attributeName="fill" to="#808080" begin="zoomminus.mouseover" end="zoomminus.mouseout"/>
                        </use>
                        <path d="M-4,0h8" fill="none" stroke="white" stroke-width="1.5" pointer-events="none"/>
                </g>
                <g id="dirArrow">
                        <path fill="none" stroke="white" stroke-width="1.5" d="M0,-3.0v7 M-2.5,-0.5L0,-3.0L2.5,-0.5"/>
                </g>
               <g id="resetDef">
                       <use xlink:href="#rim2" fill="#404040">
                               <set attributeName="fill" to="#808080" begin="reset.mouseover" end="reset.mouseout"/>
                       </use>
               </g>
        </defs>

<script type="text/javascript">
var viewWidth = 869;
var viewHeight = 357;
var sectionId = 'dynsection-0';
</script>
<script xlink:href="svgpan.js"/>
<svg id="graph" class="graph">
<g id="viewport">
<title>src/Mouths.hpp</title>
<!-- Node1 -->
<g id="node1" class="node">
<title>Node1</title>
<g id="a_node1"><a xlink:title="Mouth components.">
<polygon fill="#999999" stroke="#666666" points="378,-349 295,-349 295,-330 378,-330 378,-349"/>
<text text-anchor="middle" x="336.5" y="-337" font-family="Helvetica,sans-Serif" font-size="10.00">src/Mouths.hpp</text>
</a>
</g>
</g>
<!-- Node2 -->
<g id="node2" class="node">
<title>Node2</title>
<g id="a_node2"><a xlink:href="_bounding_rect_8h_source.html" target="_top" xlink:title=" ">
<polygon fill="white" stroke="#666666" points="85,-129 0,-129 0,-110 85,-110 85,-129"/>
<text text-anchor="middle" x="42.5" y="-117" font-family="Helvetica,sans-Serif" font-size="10.00">BoundingRect.h</text>
</a>
</g>
</g>
<!-- Node1&#45;&gt;Node2 -->
<g id="edge1" class="edge">
<title>Node1&#45;&gt;Node2</title>
<path fill="none" stroke="#63b8ff" d="M294.54,-329.55C242.5,-316.75 153.23,-289.04 92.5,-239 69.95,-220.42 67.83,-210.93 56.5,-184 50.65,-170.11 47.1,-153.44 45.03,-140.66"/>
<polygon fill="#63b8ff" stroke="#63b8ff" points="48.52,-140.34 43.65,-130.93 41.59,-141.33 48.52,-140.34"/>
</g>
<!-- Node4 -->
<g id="node4" class="node">
<title>Node4</title>
<g id="a_node4"><a xlink:href="_draw_context_8h_source.html" target="_top" xlink:title=" ">
<polygon fill="white" stroke="#666666" points="606.5,-129 526.5,-129 526.5,-110 606.5,-110 606.5,-129"/>
<text text-anchor="middle" x="566.5" y="-117" font-family="Helvetica,sans-Serif" font-size="10.00">DrawContext.h</text>
</a>
</g>
</g>
<!-- Node1&#45;&gt;Node4 -->
<g id="edge3" class="edge">
<title>Node1&#45;&gt;Node4</title>
<path fill="none" stroke="#63b8ff" d="M378.4,-338.7C445.46,-336.46 575.36,-321.1 634.5,-239 659.54,-204.24 615.41,-159.56 587.24,-136.24"/>
<polygon fill="#63b8ff" stroke="#63b8ff" points="589.61,-133.65 579.61,-130.15 585.24,-139.12 589.61,-133.65"/>
</g>
<!-- Node12 -->
<g id="node12" class="node">
<title>Node12</title>
<g id="a_node12"><a xlink:href="_drawable_8h_source.html" target="_top" xlink:title=" ">
<polygon fill="white" stroke="#666666" points="397,-184 332,-184 332,-165 397,-165 397,-184"/>
<text text-anchor="middle" x="364.5" y="-172" font-family="Helvetica,sans-Serif" font-size="10.00">Drawable.h</text>
</a>
</g>
</g>
<!-- Node1&#45;&gt;Node12 -->
<g id="edge12" class="edge">
<title>Node1&#45;&gt;Node12</title>
<path fill="none" stroke="#63b8ff" d="M333.71,-329.56C327.87,-309.37 316.02,-258.95 329.5,-220 333.02,-209.83 339.93,-200.22 346.69,-192.55"/>
<polygon fill="#63b8ff" stroke="#63b8ff" points="349.19,-194.99 353.57,-185.35 344.13,-190.16 349.19,-194.99"/>
</g>
<!-- Node13 -->
<g id="node13" class="node">
<title>Node13</title>
<g id="a_node13"><a xlink:href="_face_8h_source.html" target="_top" xlink:title=" ">
<polygon fill="white" stroke="#666666" points="385.5,-294 339.5,-294 339.5,-275 385.5,-275 385.5,-294"/>
<text text-anchor="middle" x="362.5" y="-282" font-family="Helvetica,sans-Serif" font-size="10.00">Face.h</text>
</a>
</g>
</g>
<!-- Node1&#45;&gt;Node13 -->
<g id="edge16" class="edge">
<title>Node1&#45;&gt;Node13</title>
<path fill="none" stroke="#63b8ff" d="M340.79,-329.75C344.12,-322.96 348.86,-313.3 353.06,-304.73"/>
<polygon fill="#63b8ff" stroke="#63b8ff" points="356.18,-306.32 357.45,-295.8 349.9,-303.24 356.18,-306.32"/>
</g>
<!-- Node3 -->
<g id="node3" class="node">
<title>Node3</title>
<g id="a_node3"><a xlink:title=" ">
<polygon fill="#e0e0e0" stroke="#999999" points="66.5,-74 18.5,-74 18.5,-55 66.5,-55 66.5,-74"/>
<text text-anchor="middle" x="42.5" y="-62" font-family="Helvetica,sans-Serif" font-size="10.00">stdint.h</text>
</a>
</g>
</g>
<!-- Node2&#45;&gt;Node3 -->
<g id="edge2" class="edge">
<title>Node2&#45;&gt;Node3</title>
<path fill="none" stroke="#63b8ff" d="M42.5,-109.75C42.5,-103.27 42.5,-94.16 42.5,-85.9"/>
<polygon fill="#63b8ff" stroke="#63b8ff" points="46,-85.96 42.5,-75.96 39,-85.96 46,-85.96"/>
</g>
<!-- Node5 -->
<g id="node5" class="node">
<title>Node5</title>
<g id="a_node5"><a xlink:href="_color_palette_8h_source.html" target="_top" xlink:title=" ">
<polygon fill="white" stroke="#666666" points="797,-74 720,-74 720,-55 797,-55 797,-74"/>
<text text-anchor="middle" x="758.5" y="-62" font-family="Helvetica,sans-Serif" font-size="10.00">ColorPalette.h</text>
</a>
</g>
</g>
<!-- Node4&#45;&gt;Node5 -->
<g id="edge4" class="edge">
<title>Node4&#45;&gt;Node5</title>
<path fill="none" stroke="#63b8ff" d="M599.07,-109.51C631.03,-100.69 679.95,-87.18 715.18,-77.46"/>
<polygon fill="#63b8ff" stroke="#63b8ff" points="715.92,-80.88 724.63,-74.85 714.06,-74.14 715.92,-80.88"/>
</g>
<!-- Node8 -->
<g id="node8" class="node">
<title>Node8</title>
<g id="a_node8"><a xlink:title=" ">
<polygon fill="#e0e0e0" stroke="#999999" points="712,-19 671,-19 671,0 712,0 712,-19"/>
<text text-anchor="middle" x="691.5" y="-7" font-family="Helvetica,sans-Serif" font-size="10.00">string</text>
</a>
</g>
</g>
<!-- Node4&#45;&gt;Node8 -->
<g id="edge11" class="edge">
<title>Node4&#45;&gt;Node8</title>
<path fill="none" stroke="#63b8ff" d="M566.5,-109.56C566.98,-96.12 569.79,-70.61 583.5,-55 603.05,-32.74 635.46,-21.4 659.69,-15.76"/>
<polygon fill="#63b8ff" stroke="#63b8ff" points="660.28,-19.21 669.35,-13.73 658.84,-12.36 660.28,-19.21"/>
</g>
<!-- Node9 -->
<g id="node9" class="node">
<title>Node9</title>
<g id="a_node9"><a xlink:href="_expression_8h_source.html" target="_top" xlink:title=" ">
<polygon fill="white" stroke="#666666" points="663,-74 592,-74 592,-55 663,-55 663,-74"/>
<text text-anchor="middle" x="627.5" y="-62" font-family="Helvetica,sans-Serif" font-size="10.00">Expression.h</text>
</a>
</g>
</g>
<!-- Node4&#45;&gt;Node9 -->
<g id="edge8" class="edge">
<title>Node4&#45;&gt;Node9</title>
<path fill="none" stroke="#63b8ff" d="M576.85,-109.51C585.58,-101.93 598.29,-90.88 608.8,-81.75"/>
<polygon fill="#63b8ff" stroke="#63b8ff" points="610.91,-84.55 616.16,-75.35 606.32,-79.27 610.91,-84.55"/>
</g>
<!-- Node10 -->
<g id="node10" class="node">
<title>Node10</title>
<g id="a_node10"><a xlink:href="_gaze_8h_source.html" target="_top" xlink:title=" ">
<polygon fill="white" stroke="#666666" points="535,-74 488,-74 488,-55 535,-55 535,-74"/>
<text text-anchor="middle" x="511.5" y="-62" font-family="Helvetica,sans-Serif" font-size="10.00">Gaze.h</text>
</a>
</g>
</g>
<!-- Node4&#45;&gt;Node10 -->
<g id="edge9" class="edge">
<title>Node4&#45;&gt;Node10</title>
<path fill="none" stroke="#63b8ff" d="M557.42,-109.75C549.66,-102.27 538.29,-91.32 528.8,-82.17"/>
<polygon fill="#63b8ff" stroke="#63b8ff" points="531.5,-79.91 521.87,-75.49 526.64,-84.95 531.5,-79.91"/>
</g>
<!-- Node11 -->
<g id="node11" class="node">
<title>Node11</title>
<g id="a_node11"><a xlink:title=" ">
<polygon fill="#e0e0e0" stroke="#999999" points="393.5,-74 335.5,-74 335.5,-55 393.5,-55 393.5,-74"/>
<text text-anchor="middle" x="364.5" y="-62" font-family="Helvetica,sans-Serif" font-size="10.00">M5GFX.h</text>
</a>
</g>
</g>
<!-- Node4&#45;&gt;Node11 -->
<g id="edge10" class="edge">
<title>Node4&#45;&gt;Node11</title>
<path fill="none" stroke="#63b8ff" d="M532.23,-109.51C497.04,-100.28 442.28,-85.91 404.98,-76.12"/>
<polygon fill="#63b8ff" stroke="#63b8ff" points="406.02,-72.78 395.46,-73.62 404.25,-79.55 406.02,-72.78"/>
</g>
<!-- Node6 -->
<g id="node6" class="node">
<title>Node6</title>
<g id="a_node6"><a xlink:title=" ">
<polygon fill="#e0e0e0" stroke="#999999" points="860.5,-19 792.5,-19 792.5,0 860.5,0 860.5,-19"/>
<text text-anchor="middle" x="826.5" y="-7" font-family="Helvetica,sans-Serif" font-size="10.00">M5Unified.h</text>
</a>
</g>
</g>
<!-- Node5&#45;&gt;Node6 -->
<g id="edge5" class="edge">
<title>Node5&#45;&gt;Node6</title>
<path fill="none" stroke="#63b8ff" d="M770.04,-54.51C779.96,-46.77 794.51,-35.43 806.36,-26.2"/>
<polygon fill="#63b8ff" stroke="#63b8ff" points="808.21,-29.2 813.94,-20.29 803.9,-23.68 808.21,-29.2"/>
</g>
<!-- Node7 -->
<g id="node7" class="node">
<title>Node7</title>
<g id="a_node7"><a xlink:title=" ">
<polygon fill="#e0e0e0" stroke="#999999" points="774,-19 739,-19 739,0 774,0 774,-19"/>
<text text-anchor="middle" x="756.5" y="-7" font-family="Helvetica,sans-Serif" font-size="10.00">map</text>
</a>
</g>
</g>
<!-- Node5&#45;&gt;Node7 -->
<g id="edge6" class="edge">
<title>Node5&#45;&gt;Node7</title>
<path fill="none" stroke="#63b8ff" d="M758.17,-54.75C757.93,-48.27 757.58,-39.16 757.27,-30.9"/>
<polygon fill="#63b8ff" stroke="#63b8ff" points="760.77,-30.82 756.89,-20.95 753.77,-31.08 760.77,-30.82"/>
</g>
<!-- Node5&#45;&gt;Node8 -->
<g id="edge7" class="edge">
<title>Node5&#45;&gt;Node8</title>
<path fill="none" stroke="#63b8ff" d="M747.13,-54.51C737.45,-46.85 723.3,-35.66 711.69,-26.47"/>
<polygon fill="#63b8ff" stroke="#63b8ff" points="713.9,-23.76 703.88,-20.3 709.56,-29.25 713.9,-23.76"/>
</g>
<!-- Node12&#45;&gt;Node2 -->
<g id="edge14" class="edge">
<title>Node12&#45;&gt;Node2</title>
<path fill="none" stroke="#63b8ff" d="M331.55,-168.08C276.1,-158.95 163.6,-140.43 96.47,-129.38"/>
<polygon fill="#63b8ff" stroke="#63b8ff" points="97.23,-125.96 86.79,-127.79 96.09,-132.87 97.23,-125.96"/>
</g>
<!-- Node12&#45;&gt;Node4 -->
<g id="edge15" class="edge">
<title>Node12&#45;&gt;Node4</title>
<path fill="none" stroke="#63b8ff" d="M397.4,-164.87C431.19,-156 483.99,-142.15 521.6,-132.28"/>
<polygon fill="#63b8ff" stroke="#63b8ff" points="522.01,-135.79 530.79,-129.87 520.23,-129.02 522.01,-135.79"/>
</g>
<!-- Node12&#45;&gt;Node11 -->
<g id="edge13" class="edge">
<title>Node12&#45;&gt;Node11</title>
<path fill="none" stroke="#63b8ff" d="M364.5,-164.66C364.5,-147.57 364.5,-109.61 364.5,-85.92"/>
<polygon fill="#63b8ff" stroke="#63b8ff" points="368,-85.97 364.5,-75.97 361,-85.97 368,-85.97"/>
</g>
<!-- Node13&#45;&gt;Node2 -->
<g id="edge22" class="edge">
<title>Node13&#45;&gt;Node2</title>
<path fill="none" stroke="#63b8ff" d="M339.2,-281.57C285.21,-276.73 153.34,-262.75 116.5,-239 80.08,-215.52 58.46,-167.11 48.71,-139.99"/>
<polygon fill="#63b8ff" stroke="#63b8ff" points="52.06,-138.98 45.54,-130.63 45.43,-141.23 52.06,-138.98"/>
</g>
<!-- Node14 -->
<g id="node14" class="node">
<title>Node14</title>
<g id="a_node14"><a xlink:href="_balloon_8h_source.html" target="_top" xlink:title=" ">
<polygon fill="white" stroke="#666666" points="625.5,-239 569.5,-239 569.5,-220 625.5,-220 625.5,-239"/>
<text text-anchor="middle" x="597.5" y="-227" font-family="Helvetica,sans-Serif" font-size="10.00">Balloon.h</text>
</a>
</g>
</g>
<!-- Node13&#45;&gt;Node14 -->
<g id="edge17" class="edge">
<title>Node13&#45;&gt;Node14</title>
<path fill="none" stroke="#63b8ff" d="M385.89,-278.22C426.09,-269.16 508.69,-250.53 557.96,-239.42"/>
<polygon fill="#63b8ff" stroke="#63b8ff" points="558.67,-242.85 567.66,-237.23 557.13,-236.02 558.67,-242.85"/>
</g>
<!-- Node15 -->
<g id="node15" class="node">
<title>Node15</title>
<g id="a_node15"><a xlink:href="_eye_8h_source.html" target="_top" xlink:title=" ">
<polygon fill="white" stroke="#666666" points="446.5,-239 406.5,-239 406.5,-220 446.5,-220 446.5,-239"/>
<text text-anchor="middle" x="426.5" y="-227" font-family="Helvetica,sans-Serif" font-size="10.00">Eye.h</text>
</a>
</g>
</g>
<!-- Node13&#45;&gt;Node15 -->
<g id="edge23" class="edge">
<title>Node13&#45;&gt;Node15</title>
<path fill="none" stroke="#63b8ff" d="M373.36,-274.51C382.61,-266.85 396.12,-255.66 407.21,-246.47"/>
<polygon fill="#63b8ff" stroke="#63b8ff" points="409.17,-249.4 414.64,-240.32 404.7,-244.01 409.17,-249.4"/>
</g>
<!-- Node16 -->
<g id="node16" class="node">
<title>Node16</title>
<g id="a_node16"><a xlink:href="_eyeblow_8h_source.html" target="_top" xlink:title=" ">
<polygon fill="white" stroke="#666666" points="282.5,-239 222.5,-239 222.5,-220 282.5,-220 282.5,-239"/>
<text text-anchor="middle" x="252.5" y="-227" font-family="Helvetica,sans-Serif" font-size="10.00">Eyeblow.h</text>
</a>
</g>
</g>
<!-- Node13&#45;&gt;Node16 -->
<g id="edge27" class="edge">
<title>Node13&#45;&gt;Node16</title>
<path fill="none" stroke="#63b8ff" d="M343.84,-274.51C326.67,-266.24 300.95,-253.84 281.17,-244.31"/>
<polygon fill="#63b8ff" stroke="#63b8ff" points="282.78,-241.2 272.25,-240.01 279.74,-247.51 282.78,-241.2"/>
</g>
<!-- Node17 -->
<g id="node17" class="node">
<title>Node17</title>
<g id="a_node17"><a xlink:href="_mouth_8h_source.html" target="_top" xlink:title=" ">
<polygon fill="white" stroke="#666666" points="177,-239 126,-239 126,-220 177,-220 177,-239"/>
<text text-anchor="middle" x="151.5" y="-227" font-family="Helvetica,sans-Serif" font-size="10.00">Mouth.h</text>
</a>
</g>
</g>
<!-- Node13&#45;&gt;Node17 -->
<g id="edge32" class="edge">
<title>Node13&#45;&gt;Node17</title>
<path fill="none" stroke="#63b8ff" d="M339.11,-277.63C302.57,-268.45 231.63,-250.63 188.23,-239.72"/>
<polygon fill="#63b8ff" stroke="#63b8ff" points="189.31,-236.39 178.76,-237.35 187.61,-243.18 189.31,-236.39"/>
</g>
<!-- Node18 -->
<g id="node18" class="node">
<title>Node18</title>
<g id="a_node18"><a xlink:href="_effect_8h_source.html" target="_top" xlink:title=" ">
<polygon fill="white" stroke="#666666" points="388,-239 339,-239 339,-220 388,-220 388,-239"/>
<text text-anchor="middle" x="363.5" y="-227" font-family="Helvetica,sans-Serif" font-size="10.00">Effect.h</text>
</a>
</g>
</g>
<!-- Node13&#45;&gt;Node18 -->
<g id="edge37" class="edge">
<title>Node13&#45;&gt;Node18</title>
<path fill="none" stroke="#63b8ff" d="M362.67,-274.75C362.79,-268.27 362.96,-259.16 363.12,-250.9"/>
<polygon fill="#63b8ff" stroke="#63b8ff" points="366.61,-251.02 363.3,-240.96 359.61,-250.89 366.61,-251.02"/>
</g>
<!-- Node19 -->
<g id="node19" class="node">
<title>Node19</title>
<g id="a_node19"><a xlink:href="_battery_icon_8h_source.html" target="_top" xlink:title=" ">
<polygon fill="white" stroke="#666666" points="538.5,-239 464.5,-239 464.5,-220 538.5,-220 538.5,-239"/>
<text text-anchor="middle" x="501.5" y="-227" font-family="Helvetica,sans-Serif" font-size="10.00">BatteryIcon.h</text>
</a>
</g>
</g>
<!-- Node13&#45;&gt;Node19 -->
<g id="edge41" class="edge">
<title>Node13&#45;&gt;Node19</title>
<path fill="none" stroke="#63b8ff" d="M385.77,-274.63C408.12,-266.11 442.14,-253.13 467.52,-243.45"/>
<polygon fill="#63b8ff" stroke="#63b8ff" points="468.65,-246.77 476.74,-239.94 466.15,-240.23 468.65,-246.77"/>
</g>
<!-- Node14&#45;&gt;Node4 -->
<g id="edge19" class="edge">
<title>Node14&#45;&gt;Node4</title>
<path fill="none" stroke="#63b8ff" d="M597.81,-219.65C597.99,-207.16 597.38,-183.81 591.5,-165 588.63,-155.81 583.69,-146.41 578.96,-138.63"/>
<polygon fill="#63b8ff" stroke="#63b8ff" points="582.05,-136.96 573.67,-130.47 576.17,-140.76 582.05,-136.96"/>
</g>
<!-- Node14&#45;&gt;Node6 -->
<g id="edge18" class="edge">
<title>Node14&#45;&gt;Node6</title>
<path fill="none" stroke="#63b8ff" d="M625.85,-227.65C683.78,-225.25 812.57,-216.33 839.5,-184 876.49,-139.58 850.92,-64.62 835.64,-29.6"/>
<polygon fill="#63b8ff" stroke="#63b8ff" points="838.93,-28.37 831.59,-20.73 832.56,-31.28 838.93,-28.37"/>
</g>
<!-- Node14&#45;&gt;Node8 -->
<g id="edge21" class="edge">
<title>Node14&#45;&gt;Node8</title>
<path fill="none" stroke="#63b8ff" d="M602.41,-219.67C615.23,-196.4 650.21,-131.24 672.5,-74 678.07,-59.68 683,-43.03 686.44,-30.37"/>
<polygon fill="#63b8ff" stroke="#63b8ff" points="689.82,-31.3 688.97,-20.74 683.04,-29.52 689.82,-31.3"/>
</g>
<!-- Node14&#45;&gt;Node12 -->
<g id="edge20" class="edge">
<title>Node14&#45;&gt;Node12</title>
<path fill="none" stroke="#63b8ff" d="M569.39,-222.11C529.36,-213 455.56,-196.21 408.31,-185.47"/>
<polygon fill="#63b8ff" stroke="#63b8ff" points="409.2,-182.08 398.67,-183.27 407.65,-188.9 409.2,-182.08"/>
</g>
<!-- Node15&#45;&gt;Node4 -->
<g id="edge25" class="edge">
<title>Node15&#45;&gt;Node4</title>
<path fill="none" stroke="#63b8ff" d="M437.96,-219.66C461.65,-201.39 516.29,-159.23 546.14,-136.21"/>
<polygon fill="#63b8ff" stroke="#63b8ff" points="547.91,-139.26 553.69,-130.38 543.63,-133.72 547.91,-139.26"/>
</g>
<!-- Node15&#45;&gt;Node11 -->
<g id="edge24" class="edge">
<title>Node15&#45;&gt;Node11</title>
<path fill="none" stroke="#63b8ff" d="M423.84,-219.8C420.03,-207.51 412.69,-184.38 405.5,-165 395.07,-136.87 381.59,-104.88 372.99,-84.94"/>
<polygon fill="#63b8ff" stroke="#63b8ff" points="376.24,-83.64 369.05,-75.86 369.82,-86.42 376.24,-83.64"/>
</g>
<!-- Node15&#45;&gt;Node12 -->
<g id="edge26" class="edge">
<title>Node15&#45;&gt;Node12</title>
<path fill="none" stroke="#63b8ff" d="M415.98,-219.51C407.11,-211.93 394.19,-200.88 383.51,-191.75"/>
<polygon fill="#63b8ff" stroke="#63b8ff" points="385.89,-189.18 376.01,-185.34 381.34,-194.5 385.89,-189.18"/>
</g>
<!-- Node16&#45;&gt;Node2 -->
<g id="edge29" class="edge">
<title>Node16&#45;&gt;Node2</title>
<path fill="none" stroke="#63b8ff" d="M235.31,-219.66C198.94,-200.95 113.89,-157.21 69.91,-134.6"/>
<polygon fill="#63b8ff" stroke="#63b8ff" points="71.76,-131.61 61.27,-130.15 68.56,-137.84 71.76,-131.61"/>
</g>
<!-- Node16&#45;&gt;Node4 -->
<g id="edge30" class="edge">
<title>Node16&#45;&gt;Node4</title>
<path fill="none" stroke="#63b8ff" d="M259.2,-219.88C270.58,-205.91 295.13,-178.51 322.5,-165 384.11,-134.58 463.72,-124.8 514.95,-121.74"/>
<polygon fill="#63b8ff" stroke="#63b8ff" points="515.06,-125.24 524.87,-121.22 514.7,-118.25 515.06,-125.24"/>
</g>
<!-- Node16&#45;&gt;Node11 -->
<g id="edge28" class="edge">
<title>Node16&#45;&gt;Node11</title>
<path fill="none" stroke="#63b8ff" d="M256.69,-219.72C266.56,-199.45 292.63,-148.16 321.5,-110 328.93,-100.19 338.32,-90.24 346.43,-82.25"/>
<polygon fill="#63b8ff" stroke="#63b8ff" points="348.68,-84.94 353.48,-75.5 343.84,-79.89 348.68,-84.94"/>
</g>
<!-- Node16&#45;&gt;Node12 -->
<g id="edge31" class="edge">
<title>Node16&#45;&gt;Node12</title>
<path fill="none" stroke="#63b8ff" d="M271.5,-219.51C289.06,-211.2 315.42,-198.73 335.59,-189.18"/>
<polygon fill="#63b8ff" stroke="#63b8ff" points="336.87,-192.45 344.41,-185.01 333.88,-186.12 336.87,-192.45"/>
</g>
<!-- Node17&#45;&gt;Node2 -->
<g id="edge34" class="edge">
<title>Node17&#45;&gt;Node2</title>
<path fill="none" stroke="#63b8ff" d="M140.38,-219.7C129.59,-210.99 112.93,-197.12 99.5,-184 84.32,-169.17 68.28,-151.06 57.1,-137.98"/>
<polygon fill="#63b8ff" stroke="#63b8ff" points="60,-135.99 50.87,-130.62 54.66,-140.51 60,-135.99"/>
</g>
<!-- Node17&#45;&gt;Node4 -->
<g id="edge35" class="edge">
<title>Node17&#45;&gt;Node4</title>
<path fill="none" stroke="#63b8ff" d="M167.34,-219.62C192.73,-205.79 244.49,-179.19 291.5,-165 367.36,-142.1 458.77,-130.29 514.74,-124.75"/>
<polygon fill="#63b8ff" stroke="#63b8ff" points="515,-128.24 524.62,-123.8 514.34,-121.27 515,-128.24"/>
</g>
<!-- Node17&#45;&gt;Node11 -->
<g id="edge33" class="edge">
<title>Node17&#45;&gt;Node11</title>
<path fill="none" stroke="#63b8ff" d="M163.06,-219.54C188.66,-199.72 252.1,-150.68 305.5,-110 318.13,-100.38 332.34,-89.66 343.64,-81.15"/>
<polygon fill="#63b8ff" stroke="#63b8ff" points="345.62,-84.05 351.51,-75.24 341.41,-78.45 345.62,-84.05"/>
</g>
<!-- Node17&#45;&gt;Node12 -->
<g id="edge36" class="edge">
<title>Node17&#45;&gt;Node12</title>
<path fill="none" stroke="#63b8ff" d="M177.19,-222.11C212.74,-213.26 277.43,-197.16 320.69,-186.4"/>
<polygon fill="#63b8ff" stroke="#63b8ff" points="321.41,-189.83 330.27,-184.02 319.72,-183.03 321.41,-189.83"/>
</g>
<!-- Node18&#45;&gt;Node4 -->
<g id="edge39" class="edge">
<title>Node18&#45;&gt;Node4</title>
<path fill="none" stroke="#63b8ff" d="M380.11,-219.66C415.2,-200.99 497.15,-157.4 539.73,-134.74"/>
<polygon fill="#63b8ff" stroke="#63b8ff" points="541.14,-137.96 548.32,-130.17 537.85,-131.78 541.14,-137.96"/>
</g>
<!-- Node18&#45;&gt;Node11 -->
<g id="edge38" class="edge">
<title>Node18&#45;&gt;Node11</title>
<path fill="none" stroke="#63b8ff" d="M351.57,-219.8C341.67,-211.77 328.31,-198.87 322.5,-184 308.74,-148.75 332.87,-106.91 349.89,-83.56"/>
<polygon fill="#63b8ff" stroke="#63b8ff" points="352.61,-85.76 355.91,-75.69 347.05,-81.51 352.61,-85.76"/>
</g>
<!-- Node18&#45;&gt;Node12 -->
<g id="edge40" class="edge">
<title>Node18&#45;&gt;Node12</title>
<path fill="none" stroke="#63b8ff" d="M363.67,-219.75C363.79,-213.27 363.96,-204.16 364.12,-195.9"/>
<polygon fill="#63b8ff" stroke="#63b8ff" points="367.61,-196.02 364.3,-185.96 360.61,-195.89 367.61,-196.02"/>
</g>
<!-- Node19&#45;&gt;Node4 -->
<g id="edge44" class="edge">
<title>Node19&#45;&gt;Node4</title>
<path fill="none" stroke="#63b8ff" d="M516.69,-219.51C528.59,-211.66 544.57,-199.15 553.5,-184 561.29,-170.78 564.47,-153.62 565.74,-140.47"/>
<polygon fill="#63b8ff" stroke="#63b8ff" points="569.21,-141.07 566.36,-130.86 562.22,-140.62 569.21,-141.07"/>
</g>
<!-- Node19&#45;&gt;Node6 -->
<g id="edge43" class="edge">
<title>Node19&#45;&gt;Node6</title>
<path fill="none" stroke="#63b8ff" d="M538.83,-219.74C602.97,-202.76 734.12,-159.32 806.5,-74 816.92,-61.72 821.92,-43.99 824.32,-30.39"/>
<polygon fill="#63b8ff" stroke="#63b8ff" points="827.73,-31.22 825.65,-20.83 820.8,-30.25 827.73,-31.22"/>
</g>
<!-- Node19&#45;&gt;Node11 -->
<g id="edge42" class="edge">
<title>Node19&#45;&gt;Node11</title>
<path fill="none" stroke="#63b8ff" d="M494.13,-219.74C472.39,-193.87 408.19,-117.48 379.11,-82.88"/>
<polygon fill="#63b8ff" stroke="#63b8ff" points="381.99,-80.87 372.88,-75.47 376.63,-85.37 381.99,-80.87"/>
</g>
<!-- Node19&#45;&gt;Node12 -->
<g id="edge45" class="edge">
<title>Node19&#45;&gt;Node12</title>
<path fill="none" stroke="#63b8ff" d="M478.26,-219.51C456.18,-210.97 422.75,-198.03 397.83,-188.4"/>
<polygon fill="#63b8ff" stroke="#63b8ff" points="399.4,-185.25 388.81,-184.9 396.87,-191.78 399.4,-185.25"/>
</g>
</g>
</svg>
        <g id="navigator" transform="translate(0 0)" fill="#404254">
                <rect fill="#f2f5e9" fill-opacity="0.5" stroke="#606060" stroke-width=".5" x="0" y="0" width="60" height="60"/>
                <use id="zoomplus" xlink:href="#zoomPlus" x="17" y="9" onmousedown="handleZoom(evt,'in')"/>
                <use id="zoomminus" xlink:href="#zoomMin" x="42" y="9" onmousedown="handleZoom(evt,'out')"/>
                <use id="reset" xlink:href="#resetDef" x="30" y="36" onmousedown="handleReset()"/>
                <g id="arrowUp" xlink:href="#dirArrow" transform="translate(30 24)" onmousedown="handlePan(0,-1)">
                  <use xlink:href="#rim" fill="#404040">
                        <set attributeName="fill" to="#808080" begin="arrowUp.mouseover" end="arrowUp.mouseout"/>
                  </use>
                  <path fill="none" stroke="white" stroke-width="1.5" d="M0,-3.0v7 M-2.5,-0.5L0,-3.0L2.5,-0.5"/>
                </g>
                <g id="arrowRight" xlink:href="#dirArrow" transform="rotate(90) translate(36 -43)" onmousedown="handlePan(1,0)">
                  <use xlink:href="#rim" fill="#404040">
                        <set attributeName="fill" to="#808080" begin="arrowRight.mouseover" end="arrowRight.mouseout"/>
                  </use>
                  <path fill="none" stroke="white" stroke-width="1.5" d="M0,-3.0v7 M-2.5,-0.5L0,-3.0L2.5,-0.5"/>
                </g>
                <g id="arrowDown" xlink:href="#dirArrow" transform="rotate(180) translate(-30 -48)" onmousedown="handlePan(0,1)">
                  <use xlink:href="#rim" fill="#404040">
                        <set attributeName="fill" to="#808080" begin="arrowDown.mouseover" end="arrowDown.mouseout"/>
                  </use>
                  <path fill="none" stroke="white" stroke-width="1.5" d="M0,-3.0v7 M-2.5,-0.5L0,-3.0L2.5,-0.5"/>
                </g>
                <g id="arrowLeft" xlink:href="#dirArrow" transform="rotate(270) translate(-36 17)" onmousedown="handlePan(-1,0)">
                  <use xlink:href="#rim" fill="#404040">
                        <set attributeName="fill" to="#808080" begin="arrowLeft.mouseover" end="arrowLeft.mouseout"/>
                  </use>
                  <path fill="none" stroke="white" stroke-width="1.5" d="M0,-3.0v7 M-2.5,-0.5L0,-3.0L2.5,-0.5"/>
                </g>
        </g>
        <svg viewBox="0 0 15 15" width="100%" height="30px" preserveAspectRatio="xMaxYMin meet">
         <g id="arrow_out" transform="scale(0.3 0.3)">
          <a xlink:href="_mouths_8hpp__incl_org.svg" target="_base">
           <rect id="button" ry="5" rx="5" y="6" x="6" height="38" width="38"
                fill="#f2f5e9" fill-opacity="0.5" stroke="#606060" stroke-width="1.0"/>
           <path id="arrow"
             d="M 11.500037,31.436501 C 11.940474,20.09759 22.043105,11.32322 32.158766,21.979434 L 37.068811,17.246167 C 37.068811,17.246167 37.088388,32 37.088388,32 L 22.160133,31.978069 C 22.160133,31.978069 26.997745,27.140456 26.997745,27.140456 C 18.528582,18.264221 13.291696,25.230495 11.500037,31.436501 z"
             style="fill:#404040;"/>
          </a>
         </g>
        </svg>
</svg>
