<?xml version="1.0" encoding="UTF-8" standalone="no"?>
<!DOCTYPE svg PUBLIC "-//W3C//DTD SVG 1.1//EN"
 "http://www.w3.org/Graphics/SVG/1.1/DTD/svg11.dtd">
<!-- Generated by graphviz version 7.0.5 (20221223.1930)
 -->
<!-- Title: src/Mouths.hpp Pages: 1 -->
<!--zoomable 357 -->
<svg id="main" version="1.1" xmlns="http://www.w3.org/2000/svg" xmlns:xlink="http://www.w3.org/1999/xlink" xml:space="preserve" onload="init(evt)">
<style type="text/css"><![CDATA[
.edge:hover path { stroke: red; }
.edge:hover polygon { stroke: red; fill: red; }
]]></style>
<script type="text/javascript"><![CDATA[
var edges = document.getElementsByTagName('g');
if (edges && edges.length) {
  for (var i=0;i<edges.length;i++) {
    if (edges[i].id.substr(0,4)=='edge') {
      edges[i].setAttribute('class','edge');
    }
  }
}
]]></script>
        <defs>
                <circle id="rim" cx="0" cy="0" r="7"/>
                <circle id="rim2" cx="0" cy="0" r="3.5"/>
                <g id="zoomPlus">
                        <use xlink:href="#rim" fill="#404040">
                                <set attributeName="fill" to="#808080" begin="zoomplus.mouseover" end="zoomplus.mouseout"/>
                        </use>
                        <path d="M-4,0h8M0,-4v8" fill="none" stroke="white" stroke-width="1.5" pointer-events="none"/>
                </g>
                <g id="zoomMin">
                        <use xlink:href="#rim" fill="#404040">
                                <set attributeName="fill" to="#808080" begin="zoomminus.mouseover" end="zoomminus.mouseout"/>
                        </use>
                        <path d="M-4,0h8" fill="none" stroke="white" stroke-width="1.5" pointer-events="none"/>
                </g>
                <g id="dirArrow">
                        <path fill="none" stroke="white" stroke-width="1.5" d="M0,-3.0v7 M-2.5,-0.5L0,-3.0L2.5,-0.5"/>
                </g>
               <g id="resetDef">
                       <use xlink:href="#rim2" fill="#404040">
                               <set attributeName="fill" to="#808080" begin="reset.mouseover" end="reset.mouseout"/>
                       </use>
               </g>
        </defs>

<script type="text/javascript">
var viewWidth = 805;
var viewHeight = 357;
var sectionId = 'dynsection-0';
</script>
<script xlink:href="svgpan.js"/>
<svg id="graph" class="graph">
<g id="viewport">
<title>src/Mouths.hpp</title>
<!-- Node1 -->
<g id="node1" class="node">
<title>Node1</title>
<g id="a_node1"><a xlink:title="Mouth components.">
<polygon fill="#999999" stroke="#666666" points="404,-349 321,-349 321,-330 404,-330 404,-349"/>
<text text-anchor="middle" x="362.5" y="-337" font-family="Helvetica,sans-Serif" font-size="10.00">src/Mouths.hpp</text>
</a>
</g>
</g>
<!-- Node2 -->
<g id="node2" class="node">
<title>Node2</title>
<g id="a_node2"><a xlink:href="_bounding_rect_8h_source.html" target="_top" xlink:title=" ">
<polygon fill="white" stroke="#666666" points="85,-129 0,-129 0,-110 85,-110 85,-129"/>
<text text-anchor="middle" x="42.5" y="-117" font-family="Helvetica,sans-Serif" font-size="10.00">BoundingRect.h</text>
</a>
</g>
</g>
<!-- Node1&#45;&gt;Node2 -->
<g id="edge1" class="edge">
<title>Node1&#45;&gt;Node2</title>
<path fill="none" stroke="#63b8ff" d="M320.64,-337.11C253.83,-332.6 123.04,-314.07 48.5,-239 24.72,-215.05 27.42,-198.5 31.5,-165 32.5,-156.8 34.49,-147.94 36.51,-140.3"/>
<polygon fill="#63b8ff" stroke="#63b8ff" points="39.87,-141.28 39.25,-130.7 33.14,-139.36 39.87,-141.28"/>
</g>
<!-- Node4 -->
<g id="node4" class="node">
<title>Node4</title>
<g id="a_node4"><a xlink:href="_draw_context_8h_source.html" target="_top" xlink:title=" ">
<polygon fill="white" stroke="#666666" points="595.5,-129 515.5,-129 515.5,-110 595.5,-110 595.5,-129"/>
<text text-anchor="middle" x="555.5" y="-117" font-family="Helvetica,sans-Serif" font-size="10.00">DrawContext.h</text>
</a>
</g>
</g>
<!-- Node1&#45;&gt;Node4 -->
<g id="edge3" class="edge">
<title>Node1&#45;&gt;Node4</title>
<path fill="none" stroke="#63b8ff" d="M404.4,-338.59C471.1,-336.18 599.88,-320.55 658.5,-239 687.34,-198.87 623.67,-156.15 584.06,-134.63"/>
<polygon fill="#63b8ff" stroke="#63b8ff" points="585.92,-131.65 575.44,-130.09 582.66,-137.85 585.92,-131.65"/>
</g>
<!-- Node12 -->
<g id="node12" class="node">
<title>Node12</title>
<g id="a_node12"><a xlink:href="_drawable_8h_source.html" target="_top" xlink:title=" ">
<polygon fill="white" stroke="#666666" points="421,-184 356,-184 356,-165 421,-165 421,-184"/>
<text text-anchor="middle" x="388.5" y="-172" font-family="Helvetica,sans-Serif" font-size="10.00">Drawable.h</text>
</a>
</g>
</g>
<!-- Node1&#45;&gt;Node12 -->
<g id="edge12" class="edge">
<title>Node1&#45;&gt;Node12</title>
<path fill="none" stroke="#63b8ff" d="M371.49,-329.56C379.24,-321.19 389.88,-307.91 394.5,-294 405.51,-260.86 399.31,-219.64 393.86,-195.58"/>
<polygon fill="#63b8ff" stroke="#63b8ff" points="397.26,-194.76 391.46,-185.89 390.47,-196.43 397.26,-194.76"/>
</g>
<!-- Node13 -->
<g id="node13" class="node">
<title>Node13</title>
<g id="a_node13"><a xlink:href="_face_8h_source.html" target="_top" xlink:title=" ">
<polygon fill="white" stroke="#666666" points="385.5,-294 339.5,-294 339.5,-275 385.5,-275 385.5,-294"/>
<text text-anchor="middle" x="362.5" y="-282" font-family="Helvetica,sans-Serif" font-size="10.00">Face.h</text>
</a>
</g>
</g>
<!-- Node1&#45;&gt;Node13 -->
<g id="edge16" class="edge">
<title>Node1&#45;&gt;Node13</title>
<path fill="none" stroke="#63b8ff" d="M362.5,-329.75C362.5,-323.27 362.5,-314.16 362.5,-305.9"/>
<polygon fill="#63b8ff" stroke="#63b8ff" points="366,-305.96 362.5,-295.96 359,-305.96 366,-305.96"/>
</g>
<!-- Node20 -->
<g id="node20" class="node">
<title>Node20</title>
<g id="a_node20"><a xlink:href="_drawing_utils_8hpp.html" target="_top" xlink:title="drawing utils including geometry handling">
<polygon fill="white" stroke="#666666" points="171.5,-239 81.5,-239 81.5,-220 171.5,-220 171.5,-239"/>
<text text-anchor="middle" x="126.5" y="-227" font-family="Helvetica,sans-Serif" font-size="10.00">DrawingUtils.hpp</text>
</a>
</g>
</g>
<!-- Node1&#45;&gt;Node20 -->
<g id="edge46" class="edge">
<title>Node1&#45;&gt;Node20</title>
<path fill="none" stroke="#63b8ff" d="M343.19,-329.66C302.04,-310.83 205.51,-266.66 156.37,-244.17"/>
<polygon fill="#63b8ff" stroke="#63b8ff" points="158.01,-241.07 147.46,-240.09 155.09,-247.43 158.01,-241.07"/>
</g>
<!-- Node3 -->
<g id="node3" class="node">
<title>Node3</title>
<g id="a_node3"><a xlink:title=" ">
<polygon fill="#e0e0e0" stroke="#999999" points="66.5,-74 18.5,-74 18.5,-55 66.5,-55 66.5,-74"/>
<text text-anchor="middle" x="42.5" y="-62" font-family="Helvetica,sans-Serif" font-size="10.00">stdint.h</text>
</a>
</g>
</g>
<!-- Node2&#45;&gt;Node3 -->
<g id="edge2" class="edge">
<title>Node2&#45;&gt;Node3</title>
<path fill="none" stroke="#63b8ff" d="M42.5,-109.75C42.5,-103.27 42.5,-94.16 42.5,-85.9"/>
<polygon fill="#63b8ff" stroke="#63b8ff" points="46,-85.96 42.5,-75.96 39,-85.96 46,-85.96"/>
</g>
<!-- Node5 -->
<g id="node5" class="node">
<title>Node5</title>
<g id="a_node5"><a xlink:href="_color_palette_8h_source.html" target="_top" xlink:title=" ">
<polygon fill="white" stroke="#666666" points="658,-74 581,-74 581,-55 658,-55 658,-74"/>
<text text-anchor="middle" x="619.5" y="-62" font-family="Helvetica,sans-Serif" font-size="10.00">ColorPalette.h</text>
</a>
</g>
</g>
<!-- Node4&#45;&gt;Node5 -->
<g id="edge4" class="edge">
<title>Node4&#45;&gt;Node5</title>
<path fill="none" stroke="#63b8ff" d="M566.36,-109.51C575.61,-101.85 589.12,-90.66 600.21,-81.47"/>
<polygon fill="#63b8ff" stroke="#63b8ff" points="602.17,-84.4 607.64,-75.32 597.7,-79.01 602.17,-84.4"/>
</g>
<!-- Node8 -->
<g id="node8" class="node">
<title>Node8</title>
<g id="a_node8"><a xlink:title=" ">
<polygon fill="#e0e0e0" stroke="#999999" points="707,-19 666,-19 666,0 707,0 707,-19"/>
<text text-anchor="middle" x="686.5" y="-7" font-family="Helvetica,sans-Serif" font-size="10.00">string</text>
</a>
</g>
</g>
<!-- Node4&#45;&gt;Node8 -->
<g id="edge11" class="edge">
<title>Node4&#45;&gt;Node8</title>
<path fill="none" stroke="#63b8ff" d="M595.83,-111.3C619.38,-105.14 648.01,-93.95 666.5,-74 677.45,-62.19 682.4,-44.42 684.65,-30.68"/>
<polygon fill="#63b8ff" stroke="#63b8ff" points="688.09,-31.34 685.85,-20.98 681.14,-30.48 688.09,-31.34"/>
</g>
<!-- Node9 -->
<g id="node9" class="node">
<title>Node9</title>
<g id="a_node9"><a xlink:href="_expression_8h_source.html" target="_top" xlink:title=" ">
<polygon fill="white" stroke="#666666" points="563,-74 492,-74 492,-55 563,-55 563,-74"/>
<text text-anchor="middle" x="527.5" y="-62" font-family="Helvetica,sans-Serif" font-size="10.00">Expression.h</text>
</a>
</g>
</g>
<!-- Node4&#45;&gt;Node9 -->
<g id="edge8" class="edge">
<title>Node4&#45;&gt;Node9</title>
<path fill="none" stroke="#63b8ff" d="M550.88,-109.75C547.25,-102.88 542.07,-93.08 537.51,-84.45"/>
<polygon fill="#63b8ff" stroke="#63b8ff" points="540.7,-82.99 532.93,-75.78 534.51,-86.26 540.7,-82.99"/>
</g>
<!-- Node10 -->
<g id="node10" class="node">
<title>Node10</title>
<g id="a_node10"><a xlink:href="_gaze_8h_source.html" target="_top" xlink:title=" ">
<polygon fill="white" stroke="#666666" points="474,-74 427,-74 427,-55 474,-55 474,-74"/>
<text text-anchor="middle" x="450.5" y="-62" font-family="Helvetica,sans-Serif" font-size="10.00">Gaze.h</text>
</a>
</g>
</g>
<!-- Node4&#45;&gt;Node10 -->
<g id="edge9" class="edge">
<title>Node4&#45;&gt;Node10</title>
<path fill="none" stroke="#63b8ff" d="M537.69,-109.51C521.37,-101.27 496.97,-88.96 478.13,-79.45"/>
<polygon fill="#63b8ff" stroke="#63b8ff" points="479.9,-76.42 469.4,-75.04 476.75,-82.67 479.9,-76.42"/>
</g>
<!-- Node11 -->
<g id="node11" class="node">
<title>Node11</title>
<g id="a_node11"><a xlink:title=" ">
<polygon fill="#e0e0e0" stroke="#999999" points="408.5,-74 350.5,-74 350.5,-55 408.5,-55 408.5,-74"/>
<text text-anchor="middle" x="379.5" y="-62" font-family="Helvetica,sans-Serif" font-size="10.00">M5GFX.h</text>
</a>
</g>
</g>
<!-- Node4&#45;&gt;Node11 -->
<g id="edge10" class="edge">
<title>Node4&#45;&gt;Node11</title>
<path fill="none" stroke="#63b8ff" d="M525.64,-109.51C496.52,-100.74 452.01,-87.34 419.76,-77.62"/>
<polygon fill="#63b8ff" stroke="#63b8ff" points="420.95,-74.33 410.36,-74.79 418.93,-81.03 420.95,-74.33"/>
</g>
<!-- Node6 -->
<g id="node6" class="node">
<title>Node6</title>
<g id="a_node6"><a xlink:title=" ">
<polygon fill="#e0e0e0" stroke="#999999" points="796.5,-19 728.5,-19 728.5,0 796.5,0 796.5,-19"/>
<text text-anchor="middle" x="762.5" y="-7" font-family="Helvetica,sans-Serif" font-size="10.00">M5Unified.h</text>
</a>
</g>
</g>
<!-- Node5&#45;&gt;Node6 -->
<g id="edge5" class="edge">
<title>Node5&#45;&gt;Node6</title>
<path fill="none" stroke="#63b8ff" d="M643.76,-54.51C666.91,-45.93 702.01,-32.92 728.06,-23.27"/>
<polygon fill="#63b8ff" stroke="#63b8ff" points="729.02,-26.64 737.18,-19.88 726.59,-20.08 729.02,-26.64"/>
</g>
<!-- Node7 -->
<g id="node7" class="node">
<title>Node7</title>
<g id="a_node7"><a xlink:title=" ">
<polygon fill="#e0e0e0" stroke="#999999" points="637,-19 602,-19 602,0 637,0 637,-19"/>
<text text-anchor="middle" x="619.5" y="-7" font-family="Helvetica,sans-Serif" font-size="10.00">map</text>
</a>
</g>
</g>
<!-- Node5&#45;&gt;Node7 -->
<g id="edge6" class="edge">
<title>Node5&#45;&gt;Node7</title>
<path fill="none" stroke="#63b8ff" d="M619.5,-54.75C619.5,-48.27 619.5,-39.16 619.5,-30.9"/>
<polygon fill="#63b8ff" stroke="#63b8ff" points="623,-30.96 619.5,-20.96 616,-30.96 623,-30.96"/>
</g>
<!-- Node5&#45;&gt;Node8 -->
<g id="edge7" class="edge">
<title>Node5&#45;&gt;Node8</title>
<path fill="none" stroke="#63b8ff" d="M630.87,-54.51C640.55,-46.85 654.7,-35.66 666.31,-26.47"/>
<polygon fill="#63b8ff" stroke="#63b8ff" points="668.44,-29.25 674.12,-20.3 664.1,-23.76 668.44,-29.25"/>
</g>
<!-- Node12&#45;&gt;Node2 -->
<g id="edge14" class="edge">
<title>Node12&#45;&gt;Node2</title>
<path fill="none" stroke="#63b8ff" d="M355.64,-168.47C295.91,-159.32 169.05,-139.88 96.46,-128.77"/>
<polygon fill="#63b8ff" stroke="#63b8ff" points="97.21,-125.34 86.79,-127.28 96.15,-132.26 97.21,-125.34"/>
</g>
<!-- Node12&#45;&gt;Node4 -->
<g id="edge15" class="edge">
<title>Node12&#45;&gt;Node4</title>
<path fill="none" stroke="#63b8ff" d="M416.83,-164.51C444.26,-155.8 486.08,-142.53 516.62,-132.84"/>
<polygon fill="#63b8ff" stroke="#63b8ff" points="517.4,-136.27 525.87,-129.9 515.28,-129.59 517.4,-136.27"/>
</g>
<!-- Node12&#45;&gt;Node11 -->
<g id="edge13" class="edge">
<title>Node12&#45;&gt;Node11</title>
<path fill="none" stroke="#63b8ff" d="M387.76,-164.66C386.34,-147.57 383.18,-109.61 381.2,-85.92"/>
<polygon fill="#63b8ff" stroke="#63b8ff" points="384.69,-85.64 380.37,-75.97 377.72,-86.22 384.69,-85.64"/>
</g>
<!-- Node13&#45;&gt;Node2 -->
<g id="edge22" class="edge">
<title>Node13&#45;&gt;Node2</title>
<path fill="none" stroke="#63b8ff" d="M339.11,-282.38C278.23,-279.07 116.54,-267.74 72.5,-239 48.24,-223.17 45.6,-211.82 37.5,-184 33.37,-169.83 34.91,-153.17 37.33,-140.47"/>
<polygon fill="#63b8ff" stroke="#63b8ff" points="40.72,-141.33 39.52,-130.81 33.89,-139.78 40.72,-141.33"/>
</g>
<!-- Node14 -->
<g id="node14" class="node">
<title>Node14</title>
<g id="a_node14"><a xlink:href="_balloon_8h_source.html" target="_top" xlink:title=" ">
<polygon fill="white" stroke="#666666" points="649.5,-239 593.5,-239 593.5,-220 649.5,-220 649.5,-239"/>
<text text-anchor="middle" x="621.5" y="-227" font-family="Helvetica,sans-Serif" font-size="10.00">Balloon.h</text>
</a>
</g>
</g>
<!-- Node13&#45;&gt;Node14 -->
<g id="edge17" class="edge">
<title>Node13&#45;&gt;Node14</title>
<path fill="none" stroke="#63b8ff" d="M385.88,-279.04C424.57,-271.6 504.63,-256.02 582.3,-239.43"/>
<polygon fill="#63b8ff" stroke="#63b8ff" points="582.71,-242.92 591.76,-237.4 581.24,-236.07 582.71,-242.92"/>
</g>
<!-- Node15 -->
<g id="node15" class="node">
<title>Node15</title>
<g id="a_node15"><a xlink:href="_eye_8h_source.html" target="_top" xlink:title=" ">
<polygon fill="white" stroke="#666666" points="483.5,-239 443.5,-239 443.5,-220 483.5,-220 483.5,-239"/>
<text text-anchor="middle" x="463.5" y="-227" font-family="Helvetica,sans-Serif" font-size="10.00">Eye.h</text>
</a>
</g>
</g>
<!-- Node13&#45;&gt;Node15 -->
<g id="edge23" class="edge">
<title>Node13&#45;&gt;Node15</title>
<path fill="none" stroke="#63b8ff" d="M379.63,-274.51C395.25,-266.31 418.58,-254.07 436.67,-244.58"/>
<polygon fill="#63b8ff" stroke="#63b8ff" points="438.05,-247.81 445.28,-240.06 434.8,-241.61 438.05,-247.81"/>
</g>
<!-- Node16 -->
<g id="node16" class="node">
<title>Node16</title>
<g id="a_node16"><a xlink:href="_eyeblow_8h_source.html" target="_top" xlink:title=" ">
<polygon fill="white" stroke="#666666" points="319.5,-239 259.5,-239 259.5,-220 319.5,-220 319.5,-239"/>
<text text-anchor="middle" x="289.5" y="-227" font-family="Helvetica,sans-Serif" font-size="10.00">Eyeblow.h</text>
</a>
</g>
</g>
<!-- Node13&#45;&gt;Node16 -->
<g id="edge27" class="edge">
<title>Node13&#45;&gt;Node16</title>
<path fill="none" stroke="#63b8ff" d="M350.12,-274.51C339.35,-266.7 323.53,-255.21 310.75,-245.93"/>
<polygon fill="#63b8ff" stroke="#63b8ff" points="313.07,-243.29 302.93,-240.25 308.96,-248.95 313.07,-243.29"/>
</g>
<!-- Node17 -->
<g id="node17" class="node">
<title>Node17</title>
<g id="a_node17"><a xlink:href="_mouth_8h_source.html" target="_top" xlink:title=" ">
<polygon fill="white" stroke="#666666" points="241,-239 190,-239 190,-220 241,-220 241,-239"/>
<text text-anchor="middle" x="215.5" y="-227" font-family="Helvetica,sans-Serif" font-size="10.00">Mouth.h</text>
</a>
</g>
</g>
<!-- Node13&#45;&gt;Node17 -->
<g id="edge32" class="edge">
<title>Node13&#45;&gt;Node17</title>
<path fill="none" stroke="#63b8ff" d="M339.21,-275.1C315.44,-266.53 278.26,-253.13 250.86,-243.25"/>
<polygon fill="#63b8ff" stroke="#63b8ff" points="252.17,-240 241.58,-239.9 249.8,-246.59 252.17,-240"/>
</g>
<!-- Node18 -->
<g id="node18" class="node">
<title>Node18</title>
<g id="a_node18"><a xlink:href="_effect_8h_source.html" target="_top" xlink:title=" ">
<polygon fill="white" stroke="#666666" points="387,-239 338,-239 338,-220 387,-220 387,-239"/>
<text text-anchor="middle" x="362.5" y="-227" font-family="Helvetica,sans-Serif" font-size="10.00">Effect.h</text>
</a>
</g>
</g>
<!-- Node13&#45;&gt;Node18 -->
<g id="edge37" class="edge">
<title>Node13&#45;&gt;Node18</title>
<path fill="none" stroke="#63b8ff" d="M362.5,-274.75C362.5,-268.27 362.5,-259.16 362.5,-250.9"/>
<polygon fill="#63b8ff" stroke="#63b8ff" points="366,-250.96 362.5,-240.96 359,-250.96 366,-250.96"/>
</g>
<!-- Node19 -->
<g id="node19" class="node">
<title>Node19</title>
<g id="a_node19"><a xlink:href="_battery_icon_8h_source.html" target="_top" xlink:title=" ">
<polygon fill="white" stroke="#666666" points="575.5,-239 501.5,-239 501.5,-220 575.5,-220 575.5,-239"/>
<text text-anchor="middle" x="538.5" y="-227" font-family="Helvetica,sans-Serif" font-size="10.00">BatteryIcon.h</text>
</a>
</g>
</g>
<!-- Node13&#45;&gt;Node19 -->
<g id="edge41" class="edge">
<title>Node13&#45;&gt;Node19</title>
<path fill="none" stroke="#63b8ff" d="M385.87,-276.46C414.47,-267.85 463.38,-253.12 498.12,-242.66"/>
<polygon fill="#63b8ff" stroke="#63b8ff" points="498.84,-246.1 507.41,-239.86 496.82,-239.4 498.84,-246.1"/>
</g>
<!-- Node14&#45;&gt;Node4 -->
<g id="edge19" class="edge">
<title>Node14&#45;&gt;Node4</title>
<path fill="none" stroke="#63b8ff" d="M618.61,-219.89C614.19,-207.3 605.04,-183.36 593.5,-165 587.44,-155.36 579.4,-145.62 572.27,-137.73"/>
<polygon fill="#63b8ff" stroke="#63b8ff" points="574.93,-135.44 565.54,-130.53 569.81,-140.22 574.93,-135.44"/>
</g>
<!-- Node14&#45;&gt;Node6 -->
<g id="edge18" class="edge">
<title>Node14&#45;&gt;Node6</title>
<path fill="none" stroke="#63b8ff" d="M649.86,-219.78C686.73,-206.74 749.59,-178.25 776.5,-129 793.66,-97.6 781.29,-54.62 771.43,-29.99"/>
<polygon fill="#63b8ff" stroke="#63b8ff" points="774.68,-28.7 767.52,-20.89 768.25,-31.46 774.68,-28.7"/>
</g>
<!-- Node14&#45;&gt;Node8 -->
<g id="edge21" class="edge">
<title>Node14&#45;&gt;Node8</title>
<path fill="none" stroke="#63b8ff" d="M626.81,-219.51C640.12,-196.37 674.7,-132.48 686.5,-74 689.38,-59.72 689.29,-43.27 688.52,-30.69"/>
<polygon fill="#63b8ff" stroke="#63b8ff" points="692.01,-30.42 687.71,-20.74 685.04,-31 692.01,-30.42"/>
</g>
<!-- Node14&#45;&gt;Node12 -->
<g id="edge20" class="edge">
<title>Node14&#45;&gt;Node12</title>
<path fill="none" stroke="#63b8ff" d="M593.22,-222C590.28,-221.32 587.33,-220.65 584.5,-220 532.33,-208.09 472.33,-194.48 432.6,-185.48"/>
<polygon fill="#63b8ff" stroke="#63b8ff" points="433.45,-182.08 422.93,-183.29 431.91,-188.91 433.45,-182.08"/>
</g>
<!-- Node15&#45;&gt;Node4 -->
<g id="edge25" class="edge">
<title>Node15&#45;&gt;Node4</title>
<path fill="none" stroke="#63b8ff" d="M471.08,-219.64C478.75,-210.66 490.96,-196.37 501.5,-184 514.81,-168.38 529.95,-150.57 540.81,-137.8"/>
<polygon fill="#63b8ff" stroke="#63b8ff" points="543.38,-140.17 547.19,-130.29 538.05,-135.64 543.38,-140.17"/>
</g>
<!-- Node15&#45;&gt;Node11 -->
<g id="edge24" class="edge">
<title>Node15&#45;&gt;Node11</title>
<path fill="none" stroke="#63b8ff" d="M458.98,-219.74C445.82,-194.2 407.29,-119.43 389.15,-84.23"/>
<polygon fill="#63b8ff" stroke="#63b8ff" points="392.42,-82.94 384.73,-75.65 386.2,-86.14 392.42,-82.94"/>
</g>
<!-- Node15&#45;&gt;Node12 -->
<g id="edge26" class="edge">
<title>Node15&#45;&gt;Node12</title>
<path fill="none" stroke="#63b8ff" d="M450.78,-219.51C439.72,-211.7 423.46,-200.21 410.33,-190.93"/>
<polygon fill="#63b8ff" stroke="#63b8ff" points="412.46,-188.14 402.27,-185.23 408.42,-193.86 412.46,-188.14"/>
</g>
<!-- Node16&#45;&gt;Node2 -->
<g id="edge29" class="edge">
<title>Node16&#45;&gt;Node2</title>
<path fill="none" stroke="#63b8ff" d="M259.51,-219.53C233.24,-211.33 194.26,-198.33 161.5,-184 128.01,-169.35 91.12,-148.96 67.42,-135.27"/>
<polygon fill="#63b8ff" stroke="#63b8ff" points="69.24,-132.28 58.83,-130.26 65.71,-138.32 69.24,-132.28"/>
</g>
<!-- Node16&#45;&gt;Node4 -->
<g id="edge30" class="edge">
<title>Node16&#45;&gt;Node4</title>
<path fill="none" stroke="#63b8ff" d="M294.61,-219.95C303.37,-206.07 322.65,-178.8 346.5,-165 395.14,-136.86 459.38,-126.44 503.74,-122.62"/>
<polygon fill="#63b8ff" stroke="#63b8ff" points="503.92,-126.12 513.62,-121.87 503.39,-119.14 503.92,-126.12"/>
</g>
<!-- Node16&#45;&gt;Node11 -->
<g id="edge28" class="edge">
<title>Node16&#45;&gt;Node11</title>
<path fill="none" stroke="#63b8ff" d="M293.19,-219.59C301.67,-199.44 323.67,-149.12 347.5,-110 353,-100.97 359.75,-91.4 365.64,-83.45"/>
<polygon fill="#63b8ff" stroke="#63b8ff" points="368.31,-85.72 371.55,-75.63 362.73,-81.5 368.31,-85.72"/>
</g>
<!-- Node16&#45;&gt;Node12 -->
<g id="edge31" class="edge">
<title>Node16&#45;&gt;Node12</title>
<path fill="none" stroke="#63b8ff" d="M306.29,-219.51C321.6,-211.31 344.47,-199.07 362.2,-189.58"/>
<polygon fill="#63b8ff" stroke="#63b8ff" points="363.46,-192.88 370.62,-185.07 360.15,-186.71 363.46,-192.88"/>
</g>
<!-- Node17&#45;&gt;Node2 -->
<g id="edge34" class="edge">
<title>Node17&#45;&gt;Node2</title>
<path fill="none" stroke="#63b8ff" d="M189.67,-221.76C156.74,-212.82 102.08,-196.68 85.5,-184 70.14,-172.26 58.37,-153.41 51.06,-139.29"/>
<polygon fill="#63b8ff" stroke="#63b8ff" points="54.35,-138.04 46.83,-130.57 48.05,-141.1 54.35,-138.04"/>
</g>
<!-- Node17&#45;&gt;Node4 -->
<g id="edge35" class="edge">
<title>Node17&#45;&gt;Node4</title>
<path fill="none" stroke="#63b8ff" d="M226.93,-219.57C245.34,-205.67 283.17,-178.98 319.5,-165 380.38,-141.58 455,-130.16 503.82,-124.83"/>
<polygon fill="#63b8ff" stroke="#63b8ff" points="503.95,-128.33 513.54,-123.82 503.23,-121.37 503.95,-128.33"/>
</g>
<!-- Node17&#45;&gt;Node11 -->
<g id="edge33" class="edge">
<title>Node17&#45;&gt;Node11</title>
<path fill="none" stroke="#63b8ff" d="M224.32,-219.52C243.87,-199.67 292.35,-150.56 333.5,-110 342.9,-100.74 353.47,-90.49 362.11,-82.17"/>
<polygon fill="#63b8ff" stroke="#63b8ff" points="364.41,-84.82 369.2,-75.36 359.56,-79.77 364.41,-84.82"/>
</g>
<!-- Node17&#45;&gt;Node12 -->
<g id="edge36" class="edge">
<title>Node17&#45;&gt;Node12</title>
<path fill="none" stroke="#63b8ff" d="M241.4,-220.57C269.77,-211.87 315.62,-197.83 348.59,-187.73"/>
<polygon fill="#63b8ff" stroke="#63b8ff" points="349.25,-191.18 357.79,-184.91 347.2,-184.49 349.25,-191.18"/>
</g>
<!-- Node18&#45;&gt;Node4 -->
<g id="edge39" class="edge">
<title>Node18&#45;&gt;Node4</title>
<path fill="none" stroke="#63b8ff" d="M378.29,-219.66C411.52,-201.07 488.9,-157.77 529.53,-135.03"/>
<polygon fill="#63b8ff" stroke="#63b8ff" points="531.15,-138.14 538.17,-130.2 527.73,-132.03 531.15,-138.14"/>
</g>
<!-- Node18&#45;&gt;Node11 -->
<g id="edge38" class="edge">
<title>Node18&#45;&gt;Node11</title>
<path fill="none" stroke="#63b8ff" d="M358.24,-219.55C354.3,-210.73 348.73,-196.78 346.5,-184 340.23,-148.02 357.06,-107.23 368.93,-84.11"/>
<polygon fill="#63b8ff" stroke="#63b8ff" points="371.85,-86.08 373.52,-75.61 365.69,-82.75 371.85,-86.08"/>
</g>
<!-- Node18&#45;&gt;Node12 -->
<g id="edge40" class="edge">
<title>Node18&#45;&gt;Node12</title>
<path fill="none" stroke="#63b8ff" d="M366.79,-219.75C370.12,-212.96 374.86,-203.3 379.06,-194.73"/>
<polygon fill="#63b8ff" stroke="#63b8ff" points="382.18,-196.32 383.45,-185.8 375.9,-193.24 382.18,-196.32"/>
</g>
<!-- Node19&#45;&gt;Node4 -->
<g id="edge44" class="edge">
<title>Node19&#45;&gt;Node4</title>
<path fill="none" stroke="#63b8ff" d="M549.86,-219.67C559.28,-211.56 572,-198.61 577.5,-184 583.21,-168.81 576.23,-151.39 568.65,-138.64"/>
<polygon fill="#63b8ff" stroke="#63b8ff" points="571.68,-136.87 563.25,-130.44 565.83,-140.72 571.68,-136.87"/>
</g>
<!-- Node19&#45;&gt;Node6 -->
<g id="edge43" class="edge">
<title>Node19&#45;&gt;Node6</title>
<path fill="none" stroke="#63b8ff" d="M550.21,-219.68C561.57,-210.96 579.16,-197.08 593.5,-184 653.17,-129.59 718.42,-59.17 747.3,-27.39"/>
<polygon fill="#63b8ff" stroke="#63b8ff" points="749.62,-30.04 753.73,-20.28 744.43,-25.34 749.62,-30.04"/>
</g>
<!-- Node19&#45;&gt;Node11 -->
<g id="edge42" class="edge">
<title>Node19&#45;&gt;Node11</title>
<path fill="none" stroke="#63b8ff" d="M529.95,-219.74C504.61,-193.76 429.57,-116.83 396.02,-82.44"/>
<polygon fill="#63b8ff" stroke="#63b8ff" points="398.64,-80.1 389.15,-75.39 393.62,-84.99 398.64,-80.1"/>
</g>
<!-- Node19&#45;&gt;Node12 -->
<g id="edge45" class="edge">
<title>Node19&#45;&gt;Node12</title>
<path fill="none" stroke="#63b8ff" d="M513.05,-219.51C488.74,-210.92 451.84,-197.88 424.51,-188.22"/>
<polygon fill="#63b8ff" stroke="#63b8ff" points="425.84,-184.98 415.25,-184.95 423.51,-191.58 425.84,-184.98"/>
</g>
<!-- Node20&#45;&gt;Node2 -->
<g id="edge47" class="edge">
<title>Node20&#45;&gt;Node2</title>
<path fill="none" stroke="#63b8ff" d="M96.72,-219.62C79.34,-212.8 58.68,-201.51 47.5,-184 39.29,-171.14 38.48,-153.71 39.47,-140.36"/>
<polygon fill="#63b8ff" stroke="#63b8ff" points="42.93,-140.94 40.62,-130.6 35.98,-140.12 42.93,-140.94"/>
</g>
<!-- Node20&#45;&gt;Node4 -->
<g id="edge48" class="edge">
<title>Node20&#45;&gt;Node4</title>
<path fill="none" stroke="#63b8ff" d="M143.55,-219.66C170.88,-205.87 226.48,-179.35 276.5,-165 354.13,-142.73 447.32,-130.7 503.94,-124.95"/>
<polygon fill="#63b8ff" stroke="#63b8ff" points="503.99,-128.46 513.6,-124 503.3,-121.5 503.99,-128.46"/>
</g>
<!-- Node20&#45;&gt;Node12 -->
<g id="edge49" class="edge">
<title>Node20&#45;&gt;Node12</title>
<path fill="none" stroke="#63b8ff" d="M170.94,-219.51C219.47,-209.69 296.67,-194.08 344.87,-184.33"/>
<polygon fill="#63b8ff" stroke="#63b8ff" points="345.28,-187.81 354.39,-182.4 343.89,-180.95 345.28,-187.81"/>
</g>
</g>
</svg>
        <g id="navigator" transform="translate(0 0)" fill="#404254">
                <rect fill="#f2f5e9" fill-opacity="0.5" stroke="#606060" stroke-width=".5" x="0" y="0" width="60" height="60"/>
                <use id="zoomplus" xlink:href="#zoomPlus" x="17" y="9" onmousedown="handleZoom(evt,'in')"/>
                <use id="zoomminus" xlink:href="#zoomMin" x="42" y="9" onmousedown="handleZoom(evt,'out')"/>
                <use id="reset" xlink:href="#resetDef" x="30" y="36" onmousedown="handleReset()"/>
                <g id="arrowUp" xlink:href="#dirArrow" transform="translate(30 24)" onmousedown="handlePan(0,-1)">
                  <use xlink:href="#rim" fill="#404040">
                        <set attributeName="fill" to="#808080" begin="arrowUp.mouseover" end="arrowUp.mouseout"/>
                  </use>
                  <path fill="none" stroke="white" stroke-width="1.5" d="M0,-3.0v7 M-2.5,-0.5L0,-3.0L2.5,-0.5"/>
                </g>
                <g id="arrowRight" xlink:href="#dirArrow" transform="rotate(90) translate(36 -43)" onmousedown="handlePan(1,0)">
                  <use xlink:href="#rim" fill="#404040">
                        <set attributeName="fill" to="#808080" begin="arrowRight.mouseover" end="arrowRight.mouseout"/>
                  </use>
                  <path fill="none" stroke="white" stroke-width="1.5" d="M0,-3.0v7 M-2.5,-0.5L0,-3.0L2.5,-0.5"/>
                </g>
                <g id="arrowDown" xlink:href="#dirArrow" transform="rotate(180) translate(-30 -48)" onmousedown="handlePan(0,1)">
                  <use xlink:href="#rim" fill="#404040">
                        <set attributeName="fill" to="#808080" begin="arrowDown.mouseover" end="arrowDown.mouseout"/>
                  </use>
                  <path fill="none" stroke="white" stroke-width="1.5" d="M0,-3.0v7 M-2.5,-0.5L0,-3.0L2.5,-0.5"/>
                </g>
                <g id="arrowLeft" xlink:href="#dirArrow" transform="rotate(270) translate(-36 17)" onmousedown="handlePan(-1,0)">
                  <use xlink:href="#rim" fill="#404040">
                        <set attributeName="fill" to="#808080" begin="arrowLeft.mouseover" end="arrowLeft.mouseout"/>
                  </use>
                  <path fill="none" stroke="white" stroke-width="1.5" d="M0,-3.0v7 M-2.5,-0.5L0,-3.0L2.5,-0.5"/>
                </g>
        </g>
        <svg viewBox="0 0 15 15" width="100%" height="30px" preserveAspectRatio="xMaxYMin meet">
         <g id="arrow_out" transform="scale(0.3 0.3)">
          <a xlink:href="_mouths_8hpp__incl_org.svg" target="_base">
           <rect id="button" ry="5" rx="5" y="6" x="6" height="38" width="38"
                fill="#f2f5e9" fill-opacity="0.5" stroke="#606060" stroke-width="1.0"/>
           <path id="arrow"
             d="M 11.500037,31.436501 C 11.940474,20.09759 22.043105,11.32322 32.158766,21.979434 L 37.068811,17.246167 C 37.068811,17.246167 37.088388,32 37.088388,32 L 22.160133,31.978069 C 22.160133,31.978069 26.997745,27.140456 26.997745,27.140456 C 18.528582,18.264221 13.291696,25.230495 11.500037,31.436501 z"
             style="fill:#404040;"/>
          </a>
         </g>
        </svg>
</svg>
