<?xml version="1.0" encoding="UTF-8" standalone="no"?>
<!DOCTYPE svg PUBLIC "-//W3C//DTD SVG 1.1//EN"
 "http://www.w3.org/Graphics/SVG/1.1/DTD/svg11.dtd">
<!-- Generated by graphviz version 7.0.5 (20221223.1930)
 -->
<!-- Title: m5avatar::Drawable Pages: 1 -->
<svg width="1863pt" height="434pt"
 viewBox="0.00 0.00 1862.50 434.00" xmlns="http://www.w3.org/2000/svg" xmlns:xlink="http://www.w3.org/1999/xlink">
<g id="graph0" class="graph" transform="scale(1 1) rotate(0) translate(4 430)">
<title>m5avatar::Drawable</title>
<!-- Node1 -->
<g id="node1" class="node">
<title>Node1</title>
<g id="a_node1"><a xlink:title=" ">
<polygon fill="#999999" stroke="#666666" points="1233,-426 1128,-426 1128,-374 1233,-374 1233,-426"/>
<text text-anchor="middle" x="1180.5" y="-414" font-family="Helvetica,sans-Serif" font-size="10.00">{m5avatar::Drawable</text>
<text text-anchor="start" x="1136" y="-403" font-family="Helvetica,sans-Serif" font-size="10.00">||+ ~Drawable()</text>
<text text-anchor="start" x="1136" y="-392" font-family="Helvetica,sans-Serif" font-size="10.00">+ draw()</text>
<text text-anchor="middle" x="1180.5" y="-381" font-family="Helvetica,sans-Serif" font-size="10.00">}</text>
</a>
</g>
</g>
<!-- Node2 -->
<g id="node2" class="node">
<title>Node2</title>
<g id="a_node2"><a xlink:href="classm5avatar_1_1_b_m_p_eye.html" target="_top" xlink:title=" ">
<polygon fill="white" stroke="#bfbfbf" points="274.5,-250 172.5,-250 172.5,-220 274.5,-220 274.5,-250"/>
<text text-anchor="middle" x="223.5" y="-238" font-family="Helvetica,sans-Serif" font-size="10.00">{m5avatar::BMPEye</text>
<text text-anchor="middle" x="223.5" y="-227" font-family="Helvetica,sans-Serif" font-size="10.00">||}</text>
</a>
</g>
</g>
<!-- Node1&#45;&gt;Node2 -->
<g id="edge1" class="edge">
<title>Node1&#45;&gt;Node2</title>
<path fill="none" stroke="#63b8ff" d="M1116.13,-398.06C922.42,-394.77 353.85,-381.47 283.5,-338 250.99,-317.91 234.05,-273.17 227.21,-250.2"/>
<polygon fill="none" stroke="#63b8ff" points="1115.96,-401.56 1126.02,-398.23 1116.07,-394.56 1115.96,-401.56"/>
</g>
<!-- Node3 -->
<g id="node3" class="node">
<title>Node3</title>
<g id="a_node3"><a xlink:href="classm5avatar_1_1_balloon.html" target="_top" xlink:title=" ">
<polygon fill="white" stroke="#bfbfbf" points="390,-277.5 293,-277.5 293,-192.5 390,-192.5 390,-277.5"/>
<text text-anchor="middle" x="341.5" y="-265.5" font-family="Helvetica,sans-Serif" font-size="10.00">{m5avatar::Balloon</text>
<text text-anchor="start" x="301" y="-254.5" font-family="Helvetica,sans-Serif" font-size="10.00">||+ Balloon()</text>
<text text-anchor="start" x="301" y="-243.5" font-family="Helvetica,sans-Serif" font-size="10.00">+ ~Balloon()</text>
<text text-anchor="start" x="301" y="-232.5" font-family="Helvetica,sans-Serif" font-size="10.00">+ Balloon()</text>
<text text-anchor="start" x="301" y="-221.5" font-family="Helvetica,sans-Serif" font-size="10.00">+ operator=()</text>
<text text-anchor="start" x="301" y="-210.5" font-family="Helvetica,sans-Serif" font-size="10.00">+ draw()</text>
<text text-anchor="middle" x="341.5" y="-199.5" font-family="Helvetica,sans-Serif" font-size="10.00">}</text>
</a>
</g>
</g>
<!-- Node1&#45;&gt;Node3 -->
<g id="edge2" class="edge">
<title>Node1&#45;&gt;Node3</title>
<path fill="none" stroke="#63b8ff" d="M1116.37,-397.45C940.27,-392.7 458.33,-376.31 398.5,-338 377.06,-324.27 362.94,-299.49 354.12,-277.79"/>
<polygon fill="none" stroke="#63b8ff" points="1116.17,-400.94 1126.26,-397.71 1116.35,-393.94 1116.17,-400.94"/>
</g>
<!-- Node4 -->
<g id="node4" class="node">
<title>Node4</title>
<g id="a_node4"><a xlink:href="classm5avatar_1_1_base_eye.html" target="_top" xlink:title=" ">
<polygon fill="white" stroke="#bfbfbf" points="511,-338 408,-338 408,-132 511,-132 511,-338"/>
<text text-anchor="middle" x="459.5" y="-326" font-family="Helvetica,sans-Serif" font-size="10.00">{m5avatar::BaseEye</text>
<text text-anchor="start" x="416" y="-315" font-family="Helvetica,sans-Serif" font-size="10.00">|# height_</text>
<text text-anchor="start" x="416" y="-304" font-family="Helvetica,sans-Serif" font-size="10.00"># width_</text>
<text text-anchor="start" x="416" y="-293" font-family="Helvetica,sans-Serif" font-size="10.00"># is_left_</text>
<text text-anchor="start" x="416" y="-282" font-family="Helvetica,sans-Serif" font-size="10.00"># palette_</text>
<text text-anchor="start" x="416" y="-271" font-family="Helvetica,sans-Serif" font-size="10.00"># center_x_</text>
<text text-anchor="start" x="416" y="-260" font-family="Helvetica,sans-Serif" font-size="10.00"># center_y_</text>
<text text-anchor="start" x="416" y="-249" font-family="Helvetica,sans-Serif" font-size="10.00"># gaze_</text>
<text text-anchor="start" x="416" y="-238" font-family="Helvetica,sans-Serif" font-size="10.00"># iris_bg_color_</text>
<text text-anchor="start" x="416" y="-227" font-family="Helvetica,sans-Serif" font-size="10.00"># skin_color_</text>
<text text-anchor="start" x="416" y="-216" font-family="Helvetica,sans-Serif" font-size="10.00"># iris_x_</text>
<text text-anchor="start" x="416" y="-205" font-family="Helvetica,sans-Serif" font-size="10.00"># iris_y_</text>
<text text-anchor="start" x="416" y="-194" font-family="Helvetica,sans-Serif" font-size="10.00"># open_ratio_</text>
<text text-anchor="start" x="416" y="-183" font-family="Helvetica,sans-Serif" font-size="10.00"># expression_</text>
<text text-anchor="start" x="416" y="-172" font-family="Helvetica,sans-Serif" font-size="10.00">|+ BaseEye()</text>
<text text-anchor="start" x="416" y="-161" font-family="Helvetica,sans-Serif" font-size="10.00">+ BaseEye()</text>
<text text-anchor="start" x="416" y="-150" font-family="Helvetica,sans-Serif" font-size="10.00">+ update()</text>
<text text-anchor="middle" x="459.5" y="-139" font-family="Helvetica,sans-Serif" font-size="10.00">}</text>
</a>
</g>
</g>
<!-- Node1&#45;&gt;Node4 -->
<g id="edge3" class="edge">
<title>Node1&#45;&gt;Node4</title>
<path fill="none" stroke="#63b8ff" d="M1116.23,-396.15C1023.95,-390.85 849.19,-376.28 705.5,-338 636.03,-319.49 560.19,-285.83 511.35,-262.26"/>
<polygon fill="none" stroke="#63b8ff" points="1115.92,-399.64 1126.1,-396.7 1116.31,-392.65 1115.92,-399.64"/>
</g>
<!-- Node9 -->
<g id="node9" class="node">
<title>Node9</title>
<g id="a_node9"><a xlink:href="classm5avatar_1_1_base_eyebrow.html" target="_top" xlink:title=" ">
<polygon fill="white" stroke="#bfbfbf" points="838.5,-316 714.5,-316 714.5,-154 838.5,-154 838.5,-316"/>
<text text-anchor="middle" x="776.5" y="-304" font-family="Helvetica,sans-Serif" font-size="10.00">{m5avatar::BaseEyebrow</text>
<text text-anchor="start" x="722.5" y="-293" font-family="Helvetica,sans-Serif" font-size="10.00">|# height_</text>
<text text-anchor="start" x="722.5" y="-282" font-family="Helvetica,sans-Serif" font-size="10.00"># width_</text>
<text text-anchor="start" x="722.5" y="-271" font-family="Helvetica,sans-Serif" font-size="10.00"># is_left_</text>
<text text-anchor="start" x="722.5" y="-260" font-family="Helvetica,sans-Serif" font-size="10.00"># primary_color_</text>
<text text-anchor="start" x="722.5" y="-249" font-family="Helvetica,sans-Serif" font-size="10.00"># secondary_color_</text>
<text text-anchor="start" x="722.5" y="-238" font-family="Helvetica,sans-Serif" font-size="10.00"># background_color_</text>
<text text-anchor="start" x="722.5" y="-227" font-family="Helvetica,sans-Serif" font-size="10.00"># center_x_</text>
<text text-anchor="start" x="722.5" y="-216" font-family="Helvetica,sans-Serif" font-size="10.00"># center_y_</text>
<text text-anchor="start" x="722.5" y="-205" font-family="Helvetica,sans-Serif" font-size="10.00"># expression_</text>
<text text-anchor="start" x="722.5" y="-194" font-family="Helvetica,sans-Serif" font-size="10.00">|+ BaseEyebrow()</text>
<text text-anchor="start" x="722.5" y="-183" font-family="Helvetica,sans-Serif" font-size="10.00">+ BaseEyebrow()</text>
<text text-anchor="start" x="722.5" y="-172" font-family="Helvetica,sans-Serif" font-size="10.00">+ update()</text>
<text text-anchor="middle" x="776.5" y="-161" font-family="Helvetica,sans-Serif" font-size="10.00">}</text>
</a>
</g>
</g>
<!-- Node1&#45;&gt;Node9 -->
<g id="edge8" class="edge">
<title>Node1&#45;&gt;Node9</title>
<path fill="none" stroke="#63b8ff" d="M1116.38,-390.99C1062.35,-382.62 983.94,-366.59 920.5,-338 891.87,-325.1 863.08,-306.18 838.85,-288.12"/>
<polygon fill="none" stroke="#63b8ff" points="1115.62,-394.42 1126.03,-392.44 1116.66,-387.5 1115.62,-394.42"/>
</g>
<!-- Node13 -->
<g id="node13" class="node">
<title>Node13</title>
<g id="a_node13"><a xlink:href="classm5avatar_1_1_base_mouth.html" target="_top" xlink:title=" ">
<polygon fill="white" stroke="#bfbfbf" points="1043.5,-332.5 929.5,-332.5 929.5,-137.5 1043.5,-137.5 1043.5,-332.5"/>
<text text-anchor="middle" x="986.5" y="-320.5" font-family="Helvetica,sans-Serif" font-size="10.00">{m5avatar::BaseMouth</text>
<text text-anchor="start" x="937.5" y="-309.5" font-family="Helvetica,sans-Serif" font-size="10.00">|# min_width_</text>
<text text-anchor="start" x="937.5" y="-298.5" font-family="Helvetica,sans-Serif" font-size="10.00"># max_width_</text>
<text text-anchor="start" x="937.5" y="-287.5" font-family="Helvetica,sans-Serif" font-size="10.00"># min_height_</text>
<text text-anchor="start" x="937.5" y="-276.5" font-family="Helvetica,sans-Serif" font-size="10.00"># max_height_</text>
<text text-anchor="start" x="937.5" y="-265.5" font-family="Helvetica,sans-Serif" font-size="10.00"># palette_</text>
<text text-anchor="start" x="937.5" y="-254.5" font-family="Helvetica,sans-Serif" font-size="10.00"># center_x_</text>
<text text-anchor="start" x="937.5" y="-243.5" font-family="Helvetica,sans-Serif" font-size="10.00"># center_y_</text>
<text text-anchor="start" x="937.5" y="-232.5" font-family="Helvetica,sans-Serif" font-size="10.00"># background_color_</text>
<text text-anchor="start" x="937.5" y="-221.5" font-family="Helvetica,sans-Serif" font-size="10.00"># skin_color_</text>
<text text-anchor="start" x="937.5" y="-210.5" font-family="Helvetica,sans-Serif" font-size="10.00"># open_ratio_</text>
<text text-anchor="start" x="937.5" y="-199.5" font-family="Helvetica,sans-Serif" font-size="10.00"># breath_</text>
<text text-anchor="start" x="937.5" y="-188.5" font-family="Helvetica,sans-Serif" font-size="10.00"># expression_</text>
<text text-anchor="start" x="937.5" y="-177.5" font-family="Helvetica,sans-Serif" font-size="10.00">|+ BaseMouth()</text>
<text text-anchor="start" x="937.5" y="-166.5" font-family="Helvetica,sans-Serif" font-size="10.00">+ BaseMouth()</text>
<text text-anchor="start" x="937.5" y="-155.5" font-family="Helvetica,sans-Serif" font-size="10.00">+ update()</text>
<text text-anchor="middle" x="986.5" y="-144.5" font-family="Helvetica,sans-Serif" font-size="10.00">}</text>
</a>
</g>
</g>
<!-- Node1&#45;&gt;Node13 -->
<g id="edge12" class="edge">
<title>Node1&#45;&gt;Node13</title>
<path fill="none" stroke="#63b8ff" d="M1117.38,-377.16C1095.25,-367.47 1071.26,-354.48 1052.5,-338 1049.49,-335.36 1046.56,-332.54 1043.72,-329.6"/>
<polygon fill="none" stroke="#63b8ff" points="1115.76,-380.27 1126.33,-380.93 1118.47,-373.82 1115.76,-380.27"/>
</g>
<!-- Node18 -->
<g id="node18" class="node">
<title>Node18</title>
<g id="a_node18"><a xlink:href="classm5avatar_1_1_battery_icon.html" target="_top" xlink:title=" ">
<polygon fill="white" stroke="#bfbfbf" points="1175.5,-277.5 1061.5,-277.5 1061.5,-192.5 1175.5,-192.5 1175.5,-277.5"/>
<text text-anchor="middle" x="1118.5" y="-265.5" font-family="Helvetica,sans-Serif" font-size="10.00">{m5avatar::BatteryIcon</text>
<text text-anchor="start" x="1069.5" y="-254.5" font-family="Helvetica,sans-Serif" font-size="10.00">||+ BatteryIcon()</text>
<text text-anchor="start" x="1069.5" y="-243.5" font-family="Helvetica,sans-Serif" font-size="10.00">+ ~BatteryIcon()</text>
<text text-anchor="start" x="1069.5" y="-232.5" font-family="Helvetica,sans-Serif" font-size="10.00">+ BatteryIcon()</text>
<text text-anchor="start" x="1069.5" y="-221.5" font-family="Helvetica,sans-Serif" font-size="10.00">+ operator=()</text>
<text text-anchor="start" x="1069.5" y="-210.5" font-family="Helvetica,sans-Serif" font-size="10.00">+ draw()</text>
<text text-anchor="middle" x="1118.5" y="-199.5" font-family="Helvetica,sans-Serif" font-size="10.00">}</text>
</a>
</g>
</g>
<!-- Node1&#45;&gt;Node18 -->
<g id="edge17" class="edge">
<title>Node1&#45;&gt;Node18</title>
<path fill="none" stroke="#63b8ff" d="M1166.79,-362.97C1157.22,-337.79 1144.41,-304.11 1134.39,-277.76"/>
<polygon fill="none" stroke="#63b8ff" points="1163.45,-364.01 1170.27,-372.12 1169.99,-361.53 1163.45,-364.01"/>
</g>
<!-- Node19 -->
<g id="node19" class="node">
<title>Node19</title>
<g id="a_node19"><a xlink:href="classm5avatar_1_1_dog_eye.html" target="_top" xlink:title=" ">
<polygon fill="white" stroke="#bfbfbf" points="1291.5,-250 1193.5,-250 1193.5,-220 1291.5,-220 1291.5,-250"/>
<text text-anchor="middle" x="1242.5" y="-238" font-family="Helvetica,sans-Serif" font-size="10.00">{m5avatar::DogEye</text>
<text text-anchor="middle" x="1242.5" y="-227" font-family="Helvetica,sans-Serif" font-size="10.00">||}</text>
</a>
</g>
</g>
<!-- Node1&#45;&gt;Node19 -->
<g id="edge18" class="edge">
<title>Node1&#45;&gt;Node19</title>
<path fill="none" stroke="#63b8ff" d="M1194.15,-363.12C1207.65,-327.63 1227.61,-275.14 1237.11,-250.18"/>
<polygon fill="none" stroke="#63b8ff" points="1191.01,-361.53 1190.73,-372.12 1197.55,-364.01 1191.01,-361.53"/>
</g>
<!-- Node20 -->
<g id="node20" class="node">
<title>Node20</title>
<g id="a_node20"><a xlink:href="classm5avatar_1_1_dog_mouth.html" target="_top" xlink:title=" ">
<polygon fill="white" stroke="#bfbfbf" points="1419,-266.5 1310,-266.5 1310,-203.5 1419,-203.5 1419,-266.5"/>
<text text-anchor="middle" x="1364.5" y="-254.5" font-family="Helvetica,sans-Serif" font-size="10.00">{m5avatar::DogMouth</text>
<text text-anchor="start" x="1318" y="-243.5" font-family="Helvetica,sans-Serif" font-size="10.00">||+ DogMouth()</text>
<text text-anchor="start" x="1318" y="-232.5" font-family="Helvetica,sans-Serif" font-size="10.00">+ DogMouth()</text>
<text text-anchor="start" x="1318" y="-221.5" font-family="Helvetica,sans-Serif" font-size="10.00">+ draw()</text>
<text text-anchor="middle" x="1364.5" y="-210.5" font-family="Helvetica,sans-Serif" font-size="10.00">}</text>
</a>
</g>
</g>
<!-- Node1&#45;&gt;Node20 -->
<g id="edge19" class="edge">
<title>Node1&#45;&gt;Node20</title>
<path fill="none" stroke="#63b8ff" d="M1243.78,-374.72C1263.39,-365.22 1284.12,-352.97 1300.5,-338 1322.41,-317.98 1339.71,-288.78 1350.77,-266.75"/>
<polygon fill="none" stroke="#63b8ff" points="1242.31,-371.54 1234.72,-378.93 1245.27,-377.89 1242.31,-371.54"/>
</g>
<!-- Node21 -->
<g id="node21" class="node">
<title>Node21</title>
<g id="a_node21"><a xlink:href="classm5avatar_1_1_effect.html" target="_top" xlink:title=" ">
<polygon fill="white" stroke="#bfbfbf" points="1526,-277.5 1437,-277.5 1437,-192.5 1526,-192.5 1526,-277.5"/>
<text text-anchor="middle" x="1481.5" y="-265.5" font-family="Helvetica,sans-Serif" font-size="10.00">{m5avatar::Effect</text>
<text text-anchor="start" x="1445" y="-254.5" font-family="Helvetica,sans-Serif" font-size="10.00">||+ Effect()</text>
<text text-anchor="start" x="1445" y="-243.5" font-family="Helvetica,sans-Serif" font-size="10.00">+ ~Effect()</text>
<text text-anchor="start" x="1445" y="-232.5" font-family="Helvetica,sans-Serif" font-size="10.00">+ Effect()</text>
<text text-anchor="start" x="1445" y="-221.5" font-family="Helvetica,sans-Serif" font-size="10.00">+ operator=()</text>
<text text-anchor="start" x="1445" y="-210.5" font-family="Helvetica,sans-Serif" font-size="10.00">+ draw()</text>
<text text-anchor="middle" x="1481.5" y="-199.5" font-family="Helvetica,sans-Serif" font-size="10.00">}</text>
</a>
</g>
</g>
<!-- Node1&#45;&gt;Node21 -->
<g id="edge20" class="edge">
<title>Node1&#45;&gt;Node21</title>
<path fill="none" stroke="#63b8ff" d="M1244.62,-397.54C1298.8,-393.22 1375.79,-379.45 1428.5,-338 1447.72,-322.89 1460.68,-298.88 1468.97,-277.96"/>
<polygon fill="none" stroke="#63b8ff" points="1244.66,-394.03 1234.93,-398.22 1245.15,-401.01 1244.66,-394.03"/>
</g>
<!-- Node22 -->
<g id="node22" class="node">
<title>Node22</title>
<g id="a_node22"><a xlink:href="classm5avatar_1_1_eye.html" target="_top" xlink:title=" ">
<polygon fill="white" stroke="#bfbfbf" points="1624.5,-288.5 1544.5,-288.5 1544.5,-181.5 1624.5,-181.5 1624.5,-288.5"/>
<text text-anchor="middle" x="1584.5" y="-276.5" font-family="Helvetica,sans-Serif" font-size="10.00">{m5avatar::Eye</text>
<text text-anchor="start" x="1552.5" y="-265.5" font-family="Helvetica,sans-Serif" font-size="10.00">||+ Eye()</text>
<text text-anchor="start" x="1552.5" y="-254.5" font-family="Helvetica,sans-Serif" font-size="10.00">+ Eye()</text>
<text text-anchor="start" x="1552.5" y="-243.5" font-family="Helvetica,sans-Serif" font-size="10.00">+ Eye()</text>
<text text-anchor="start" x="1552.5" y="-232.5" font-family="Helvetica,sans-Serif" font-size="10.00">+ ~Eye()</text>
<text text-anchor="start" x="1552.5" y="-221.5" font-family="Helvetica,sans-Serif" font-size="10.00">+ Eye()</text>
<text text-anchor="start" x="1552.5" y="-210.5" font-family="Helvetica,sans-Serif" font-size="10.00">+ operator=()</text>
<text text-anchor="start" x="1552.5" y="-199.5" font-family="Helvetica,sans-Serif" font-size="10.00">+ draw()</text>
<text text-anchor="middle" x="1584.5" y="-188.5" font-family="Helvetica,sans-Serif" font-size="10.00">}</text>
</a>
</g>
</g>
<!-- Node1&#45;&gt;Node22 -->
<g id="edge21" class="edge">
<title>Node1&#45;&gt;Node22</title>
<path fill="none" stroke="#63b8ff" d="M1244.82,-394.96C1334.39,-388.18 1490.73,-371.79 1535.5,-338 1551.57,-325.87 1562.63,-307.1 1570.11,-288.95"/>
<polygon fill="none" stroke="#63b8ff" points="1244.67,-391.46 1234.96,-395.69 1245.19,-398.44 1244.67,-391.46"/>
</g>
<!-- Node23 -->
<g id="node23" class="node">
<title>Node23</title>
<g id="a_node23"><a xlink:href="classm5avatar_1_1_eyeblow.html" target="_top" xlink:title=" ">
<polygon fill="white" stroke="#bfbfbf" points="1744,-283 1643,-283 1643,-187 1744,-187 1744,-283"/>
<text text-anchor="middle" x="1693.5" y="-271" font-family="Helvetica,sans-Serif" font-size="10.00">{m5avatar::Eyeblow</text>
<text text-anchor="start" x="1651" y="-260" font-family="Helvetica,sans-Serif" font-size="10.00">||+ Eyeblow()</text>
<text text-anchor="start" x="1651" y="-249" font-family="Helvetica,sans-Serif" font-size="10.00">+ Eyeblow()</text>
<text text-anchor="start" x="1651" y="-238" font-family="Helvetica,sans-Serif" font-size="10.00">+ ~Eyeblow()</text>
<text text-anchor="start" x="1651" y="-227" font-family="Helvetica,sans-Serif" font-size="10.00">+ Eyeblow()</text>
<text text-anchor="start" x="1651" y="-216" font-family="Helvetica,sans-Serif" font-size="10.00">+ operator=()</text>
<text text-anchor="start" x="1651" y="-205" font-family="Helvetica,sans-Serif" font-size="10.00">+ draw()</text>
<text text-anchor="middle" x="1693.5" y="-194" font-family="Helvetica,sans-Serif" font-size="10.00">}</text>
</a>
</g>
</g>
<!-- Node1&#45;&gt;Node23 -->
<g id="edge22" class="edge">
<title>Node1&#45;&gt;Node23</title>
<path fill="none" stroke="#63b8ff" d="M1244.41,-397.18C1353.76,-392.98 1571.02,-379.51 1633.5,-338 1653.01,-325.04 1667.04,-303.39 1676.6,-283.37"/>
<polygon fill="none" stroke="#63b8ff" points="1244.59,-393.68 1234.73,-397.54 1244.85,-400.67 1244.59,-393.68"/>
</g>
<!-- Node24 -->
<g id="node24" class="node">
<title>Node24</title>
<g id="a_node24"><a xlink:href="classm5avatar_1_1_mouth.html" target="_top" xlink:title=" ">
<polygon fill="white" stroke="#bfbfbf" points="1854.5,-283 1762.5,-283 1762.5,-187 1854.5,-187 1854.5,-283"/>
<text text-anchor="middle" x="1808.5" y="-271" font-family="Helvetica,sans-Serif" font-size="10.00">{m5avatar::Mouth</text>
<text text-anchor="start" x="1770.5" y="-260" font-family="Helvetica,sans-Serif" font-size="10.00">||+ Mouth()</text>
<text text-anchor="start" x="1770.5" y="-249" font-family="Helvetica,sans-Serif" font-size="10.00">+ ~Mouth()</text>
<text text-anchor="start" x="1770.5" y="-238" font-family="Helvetica,sans-Serif" font-size="10.00">+ Mouth()</text>
<text text-anchor="start" x="1770.5" y="-227" font-family="Helvetica,sans-Serif" font-size="10.00">+ operator=()</text>
<text text-anchor="start" x="1770.5" y="-216" font-family="Helvetica,sans-Serif" font-size="10.00">+ Mouth()</text>
<text text-anchor="start" x="1770.5" y="-205" font-family="Helvetica,sans-Serif" font-size="10.00">+ draw()</text>
<text text-anchor="middle" x="1808.5" y="-194" font-family="Helvetica,sans-Serif" font-size="10.00">}</text>
</a>
</g>
</g>
<!-- Node1&#45;&gt;Node24 -->
<g id="edge23" class="edge">
<title>Node1&#45;&gt;Node24</title>
<path fill="none" stroke="#63b8ff" d="M1244.63,-399.52C1376.31,-399.44 1671.66,-392.93 1753.5,-338 1772.63,-325.16 1785.65,-303.4 1794.2,-283.27"/>
<polygon fill="none" stroke="#63b8ff" points="1244.69,-396.02 1234.68,-399.52 1244.68,-403.02 1244.69,-396.02"/>
</g>
<!-- Node5 -->
<g id="node5" class="node">
<title>Node5</title>
<g id="a_node5"><a xlink:href="classm5avatar_1_1_doggy_eye.html" target="_top" xlink:title=" ">
<polygon fill="white" stroke="#bfbfbf" points="107,-79.5 0,-79.5 0,-16.5 107,-16.5 107,-79.5"/>
<text text-anchor="middle" x="53.5" y="-67.5" font-family="Helvetica,sans-Serif" font-size="10.00">{m5avatar::DoggyEye</text>
<text text-anchor="start" x="8" y="-56.5" font-family="Helvetica,sans-Serif" font-size="10.00">||+ draw()</text>
<text text-anchor="start" x="8" y="-45.5" font-family="Helvetica,sans-Serif" font-size="10.00">+ BaseEye()</text>
<text text-anchor="start" x="8" y="-34.5" font-family="Helvetica,sans-Serif" font-size="10.00">+ BaseEye()</text>
<text text-anchor="middle" x="53.5" y="-23.5" font-family="Helvetica,sans-Serif" font-size="10.00">}</text>
</a>
</g>
</g>
<!-- Node4&#45;&gt;Node5 -->
<g id="edge4" class="edge">
<title>Node4&#45;&gt;Node5</title>
<path fill="none" stroke="#63b8ff" d="M398.81,-132.2C398.7,-132.13 398.6,-132.07 398.5,-132 292.39,-62.6 232.89,-143.92 115.5,-96 105.75,-92.02 96.18,-86.1 87.59,-79.79"/>
<polygon fill="none" stroke="#63b8ff" points="396.61,-134.93 406.69,-138.2 400.85,-129.36 396.61,-134.93"/>
</g>
<!-- Node6 -->
<g id="node6" class="node">
<title>Node6</title>
<g id="a_node6"><a xlink:href="classm5avatar_1_1_ellipse_eye.html" target="_top" xlink:title=" ">
<polygon fill="white" stroke="#bfbfbf" points="234,-79.5 125,-79.5 125,-16.5 234,-16.5 234,-79.5"/>
<text text-anchor="middle" x="179.5" y="-67.5" font-family="Helvetica,sans-Serif" font-size="10.00">{m5avatar::EllipseEye</text>
<text text-anchor="start" x="133" y="-56.5" font-family="Helvetica,sans-Serif" font-size="10.00">||+ draw()</text>
<text text-anchor="start" x="133" y="-45.5" font-family="Helvetica,sans-Serif" font-size="10.00">+ BaseEye()</text>
<text text-anchor="start" x="133" y="-34.5" font-family="Helvetica,sans-Serif" font-size="10.00">+ BaseEye()</text>
<text text-anchor="middle" x="179.5" y="-23.5" font-family="Helvetica,sans-Serif" font-size="10.00">}</text>
</a>
</g>
</g>
<!-- Node4&#45;&gt;Node6 -->
<g id="edge5" class="edge">
<title>Node4&#45;&gt;Node6</title>
<path fill="none" stroke="#63b8ff" d="M398.8,-132.22C398.7,-132.14 398.6,-132.07 398.5,-132 340.98,-90.12 307.06,-125.91 242.5,-96 233.21,-91.7 223.96,-85.88 215.52,-79.81"/>
<polygon fill="none" stroke="#63b8ff" points="396.51,-134.87 406.44,-138.57 400.99,-129.49 396.51,-134.87"/>
</g>
<!-- Node7 -->
<g id="node7" class="node">
<title>Node7</title>
<g id="a_node7"><a xlink:href="classm5avatar_1_1_pink_demon_eye.html" target="_top" xlink:title=" ">
<polygon fill="white" stroke="#bfbfbf" points="383,-90.5 252,-90.5 252,-5.5 383,-5.5 383,-90.5"/>
<text text-anchor="middle" x="317.5" y="-78.5" font-family="Helvetica,sans-Serif" font-size="10.00">{m5avatar::PinkDemonEye</text>
<text text-anchor="start" x="260" y="-67.5" font-family="Helvetica,sans-Serif" font-size="10.00">||+ drawEyelid()</text>
<text text-anchor="start" x="260" y="-56.5" font-family="Helvetica,sans-Serif" font-size="10.00">+ overwriteOpenRatio()</text>
<text text-anchor="start" x="260" y="-45.5" font-family="Helvetica,sans-Serif" font-size="10.00">+ draw()</text>
<text text-anchor="start" x="260" y="-34.5" font-family="Helvetica,sans-Serif" font-size="10.00">+ BaseEye()</text>
<text text-anchor="start" x="260" y="-23.5" font-family="Helvetica,sans-Serif" font-size="10.00">+ BaseEye()</text>
<text text-anchor="middle" x="317.5" y="-12.5" font-family="Helvetica,sans-Serif" font-size="10.00">}</text>
</a>
</g>
</g>
<!-- Node4&#45;&gt;Node7 -->
<g id="edge6" class="edge">
<title>Node4&#45;&gt;Node7</title>
<path fill="none" stroke="#63b8ff" d="M401.09,-135.42C400.23,-134.27 399.37,-133.13 398.5,-132 387.57,-117.8 374.45,-103.44 361.98,-90.75"/>
<polygon fill="none" stroke="#63b8ff" points="398.05,-137.18 406.75,-143.22 403.72,-133.07 398.05,-137.18"/>
</g>
<!-- Node8 -->
<g id="node8" class="node">
<title>Node8</title>
<g id="a_node8"><a xlink:href="classm5avatar_1_1_toon_eye1.html" target="_top" xlink:title=" ">
<polygon fill="white" stroke="#bfbfbf" points="517.5,-96 401.5,-96 401.5,0 517.5,0 517.5,-96"/>
<text text-anchor="middle" x="459.5" y="-84" font-family="Helvetica,sans-Serif" font-size="10.00">{m5avatar::ToonEye1</text>
<text text-anchor="start" x="409.5" y="-73" font-family="Helvetica,sans-Serif" font-size="10.00">||+ drawEyelid()</text>
<text text-anchor="start" x="409.5" y="-62" font-family="Helvetica,sans-Serif" font-size="10.00">+ drawEyelash100()</text>
<text text-anchor="start" x="409.5" y="-51" font-family="Helvetica,sans-Serif" font-size="10.00">+ overwriteOpenRatio()</text>
<text text-anchor="start" x="409.5" y="-40" font-family="Helvetica,sans-Serif" font-size="10.00">+ draw()</text>
<text text-anchor="start" x="409.5" y="-29" font-family="Helvetica,sans-Serif" font-size="10.00">+ BaseEye()</text>
<text text-anchor="start" x="409.5" y="-18" font-family="Helvetica,sans-Serif" font-size="10.00">+ BaseEye()</text>
<text text-anchor="middle" x="459.5" y="-7" font-family="Helvetica,sans-Serif" font-size="10.00">}</text>
</a>
</g>
</g>
<!-- Node4&#45;&gt;Node8 -->
<g id="edge7" class="edge">
<title>Node4&#45;&gt;Node8</title>
<path fill="none" stroke="#63b8ff" d="M459.5,-120.26C459.5,-111.92 459.5,-103.82 459.5,-96.26"/>
<polygon fill="none" stroke="#63b8ff" points="456,-120.25 459.5,-130.25 463,-120.25 456,-120.25"/>
</g>
<!-- Node10 -->
<g id="node10" class="node">
<title>Node10</title>
<g id="a_node10"><a xlink:href="classm5avatar_1_1_bow_eyebrow.html" target="_top" xlink:title=" ">
<polygon fill="white" stroke="#bfbfbf" points="657,-79.5 536,-79.5 536,-16.5 657,-16.5 657,-79.5"/>
<text text-anchor="middle" x="596.5" y="-67.5" font-family="Helvetica,sans-Serif" font-size="10.00">{m5avatar::BowEyebrow</text>
<text text-anchor="start" x="544" y="-56.5" font-family="Helvetica,sans-Serif" font-size="10.00">||+ draw()</text>
<text text-anchor="start" x="544" y="-45.5" font-family="Helvetica,sans-Serif" font-size="10.00">+ BaseEyebrow()</text>
<text text-anchor="start" x="544" y="-34.5" font-family="Helvetica,sans-Serif" font-size="10.00">+ BaseEyebrow()</text>
<text text-anchor="middle" x="596.5" y="-23.5" font-family="Helvetica,sans-Serif" font-size="10.00">}</text>
</a>
</g>
</g>
<!-- Node9&#45;&gt;Node10 -->
<g id="edge9" class="edge">
<title>Node9&#45;&gt;Node10</title>
<path fill="none" stroke="#63b8ff" d="M706.32,-161.87C678.62,-133.4 648.29,-102.23 626.54,-79.87"/>
<polygon fill="none" stroke="#63b8ff" points="703.51,-164 712.99,-168.73 708.53,-159.12 703.51,-164"/>
</g>
<!-- Node11 -->
<g id="node11" class="node">
<title>Node11</title>
<g id="a_node11"><a xlink:href="classm5avatar_1_1_ellipse_eyebrow.html" target="_top" xlink:title=" ">
<polygon fill="white" stroke="#bfbfbf" points="805.5,-79.5 675.5,-79.5 675.5,-16.5 805.5,-16.5 805.5,-79.5"/>
<text text-anchor="middle" x="740.5" y="-67.5" font-family="Helvetica,sans-Serif" font-size="10.00">{m5avatar::EllipseEyebrow</text>
<text text-anchor="start" x="683.5" y="-56.5" font-family="Helvetica,sans-Serif" font-size="10.00">||+ draw()</text>
<text text-anchor="start" x="683.5" y="-45.5" font-family="Helvetica,sans-Serif" font-size="10.00">+ BaseEyebrow()</text>
<text text-anchor="start" x="683.5" y="-34.5" font-family="Helvetica,sans-Serif" font-size="10.00">+ BaseEyebrow()</text>
<text text-anchor="middle" x="740.5" y="-23.5" font-family="Helvetica,sans-Serif" font-size="10.00">}</text>
</a>
</g>
</g>
<!-- Node9&#45;&gt;Node11 -->
<g id="edge10" class="edge">
<title>Node9&#45;&gt;Node11</title>
<path fill="none" stroke="#63b8ff" d="M758.71,-142.58C754.31,-119.95 749.89,-97.23 746.5,-79.85"/>
<polygon fill="none" stroke="#63b8ff" points="755.23,-143.03 760.58,-152.18 762.1,-141.69 755.23,-143.03"/>
</g>
<!-- Node12 -->
<g id="node12" class="node">
<title>Node12</title>
<g id="a_node12"><a xlink:href="classm5avatar_1_1_rect_eyebrow.html" target="_top" xlink:title=" ">
<polygon fill="white" stroke="#bfbfbf" points="945.5,-79.5 823.5,-79.5 823.5,-16.5 945.5,-16.5 945.5,-79.5"/>
<text text-anchor="middle" x="884.5" y="-67.5" font-family="Helvetica,sans-Serif" font-size="10.00">{m5avatar::RectEyebrow</text>
<text text-anchor="start" x="831.5" y="-56.5" font-family="Helvetica,sans-Serif" font-size="10.00">||+ draw()</text>
<text text-anchor="start" x="831.5" y="-45.5" font-family="Helvetica,sans-Serif" font-size="10.00">+ BaseEyebrow()</text>
<text text-anchor="start" x="831.5" y="-34.5" font-family="Helvetica,sans-Serif" font-size="10.00">+ BaseEyebrow()</text>
<text text-anchor="middle" x="884.5" y="-23.5" font-family="Helvetica,sans-Serif" font-size="10.00">}</text>
</a>
</g>
</g>
<!-- Node9&#45;&gt;Node12 -->
<g id="edge11" class="edge">
<title>Node9&#45;&gt;Node12</title>
<path fill="none" stroke="#63b8ff" d="M829.15,-143.82C842.6,-120.78 856.16,-97.55 866.49,-79.85"/>
<polygon fill="none" stroke="#63b8ff" points="826.18,-141.96 824.16,-152.36 832.23,-145.48 826.18,-141.96"/>
</g>
<!-- Node14 -->
<g id="node14" class="node">
<title>Node14</title>
<g id="a_node14"><a xlink:href="classm5avatar_1_1_doggy_mouth.html" target="_top" xlink:title=" ">
<polygon fill="white" stroke="#bfbfbf" points="1083,-79.5 964,-79.5 964,-16.5 1083,-16.5 1083,-79.5"/>
<text text-anchor="middle" x="1023.5" y="-67.5" font-family="Helvetica,sans-Serif" font-size="10.00">{m5avatar::DoggyMouth</text>
<text text-anchor="start" x="972" y="-56.5" font-family="Helvetica,sans-Serif" font-size="10.00">||+ draw()</text>
<text text-anchor="start" x="972" y="-45.5" font-family="Helvetica,sans-Serif" font-size="10.00">+ BaseMouth()</text>
<text text-anchor="start" x="972" y="-34.5" font-family="Helvetica,sans-Serif" font-size="10.00">+ BaseMouth()</text>
<text text-anchor="middle" x="1023.5" y="-23.5" font-family="Helvetica,sans-Serif" font-size="10.00">}</text>
</a>
</g>
</g>
<!-- Node13&#45;&gt;Node14 -->
<g id="edge13" class="edge">
<title>Node13&#45;&gt;Node14</title>
<path fill="none" stroke="#63b8ff" d="M1008.1,-126C1011.47,-109.13 1014.71,-92.97 1017.33,-79.85"/>
<polygon fill="none" stroke="#63b8ff" points="1004.69,-125.19 1006.16,-135.68 1011.56,-126.56 1004.69,-125.19"/>
</g>
<!-- Node15 -->
<g id="node15" class="node">
<title>Node15</title>
<g id="a_node15"><a xlink:href="classm5avatar_1_1_omega_mouth.html" target="_top" xlink:title=" ">
<polygon fill="white" stroke="#bfbfbf" points="1224,-79.5 1101,-79.5 1101,-16.5 1224,-16.5 1224,-79.5"/>
<text text-anchor="middle" x="1162.5" y="-67.5" font-family="Helvetica,sans-Serif" font-size="10.00">{m5avatar::OmegaMouth</text>
<text text-anchor="start" x="1109" y="-56.5" font-family="Helvetica,sans-Serif" font-size="10.00">||+ draw()</text>
<text text-anchor="start" x="1109" y="-45.5" font-family="Helvetica,sans-Serif" font-size="10.00">+ BaseMouth()</text>
<text text-anchor="start" x="1109" y="-34.5" font-family="Helvetica,sans-Serif" font-size="10.00">+ BaseMouth()</text>
<text text-anchor="middle" x="1162.5" y="-23.5" font-family="Helvetica,sans-Serif" font-size="10.00">}</text>
</a>
</g>
</g>
<!-- Node13&#45;&gt;Node15 -->
<g id="edge14" class="edge">
<title>Node13&#45;&gt;Node15</title>
<path fill="none" stroke="#63b8ff" d="M1051.12,-133.49C1051.58,-132.99 1052.04,-132.49 1052.5,-132 1070.67,-112.47 1093.88,-94.21 1114.29,-79.81"/>
<polygon fill="none" stroke="#63b8ff" points="1048.73,-130.91 1044.81,-140.75 1054.02,-135.5 1048.73,-130.91"/>
</g>
<!-- Node16 -->
<g id="node16" class="node">
<title>Node16</title>
<g id="a_node16"><a xlink:href="classm5avatar_1_1_rect_mouth.html" target="_top" xlink:title=" ">
<polygon fill="white" stroke="#bfbfbf" points="1354.5,-79.5 1242.5,-79.5 1242.5,-16.5 1354.5,-16.5 1354.5,-79.5"/>
<text text-anchor="middle" x="1298.5" y="-67.5" font-family="Helvetica,sans-Serif" font-size="10.00">{m5avatar::RectMouth</text>
<text text-anchor="start" x="1250.5" y="-56.5" font-family="Helvetica,sans-Serif" font-size="10.00">||+ draw()</text>
<text text-anchor="start" x="1250.5" y="-45.5" font-family="Helvetica,sans-Serif" font-size="10.00">+ BaseMouth()</text>
<text text-anchor="start" x="1250.5" y="-34.5" font-family="Helvetica,sans-Serif" font-size="10.00">+ BaseMouth()</text>
<text text-anchor="middle" x="1298.5" y="-23.5" font-family="Helvetica,sans-Serif" font-size="10.00">}</text>
</a>
</g>
</g>
<!-- Node13&#45;&gt;Node16 -->
<g id="edge15" class="edge">
<title>Node13&#45;&gt;Node16</title>
<path fill="none" stroke="#63b8ff" d="M1053.56,-132.29C1123.69,-89.47 1161.55,-127.37 1233.5,-96 1243.2,-91.77 1252.87,-85.91 1261.67,-79.76"/>
<polygon fill="none" stroke="#63b8ff" points="1051.66,-129.35 1045.18,-137.73 1055.47,-135.22 1051.66,-129.35"/>
</g>
<!-- Node17 -->
<g id="node17" class="node">
<title>Node17</title>
<g id="a_node17"><a xlink:href="classm5avatar_1_1_u_shape_mouth.html" target="_top" xlink:title=" ">
<polygon fill="white" stroke="#bfbfbf" points="1500,-79.5 1373,-79.5 1373,-16.5 1500,-16.5 1500,-79.5"/>
<text text-anchor="middle" x="1436.5" y="-67.5" font-family="Helvetica,sans-Serif" font-size="10.00">{m5avatar::UShapeMouth</text>
<text text-anchor="start" x="1381" y="-56.5" font-family="Helvetica,sans-Serif" font-size="10.00">||+ draw()</text>
<text text-anchor="start" x="1381" y="-45.5" font-family="Helvetica,sans-Serif" font-size="10.00">+ BaseMouth()</text>
<text text-anchor="start" x="1381" y="-34.5" font-family="Helvetica,sans-Serif" font-size="10.00">+ BaseMouth()</text>
<text text-anchor="middle" x="1436.5" y="-23.5" font-family="Helvetica,sans-Serif" font-size="10.00">}</text>
</a>
</g>
</g>
<!-- Node13&#45;&gt;Node17 -->
<g id="edge16" class="edge">
<title>Node13&#45;&gt;Node17</title>
<path fill="none" stroke="#63b8ff" d="M1053.25,-132.48C1173.88,-62.77 1235.82,-141.69 1363.5,-96 1374.57,-92.04 1385.67,-86.13 1395.76,-79.82"/>
<polygon fill="none" stroke="#63b8ff" points="1051.76,-129.3 1045,-137.46 1055.37,-135.29 1051.76,-129.3"/>
</g>
</g>
</svg>
