<?xml version="1.0" encoding="UTF-8" standalone="no"?>
<!DOCTYPE svg PUBLIC "-//W3C//DTD SVG 1.1//EN"
 "http://www.w3.org/Graphics/SVG/1.1/DTD/svg11.dtd">
<!-- Generated by graphviz version 7.0.5 (20221223.1930)
 -->
<!-- Title: m5avatar::PinkDemonEye Pages: 1 -->
<svg width="356pt" height="479pt"
 viewBox="0.00 0.00 355.50 479.00" xmlns="http://www.w3.org/2000/svg" xmlns:xlink="http://www.w3.org/1999/xlink">
<g id="graph0" class="graph" transform="scale(1 1) rotate(0) translate(4 475)">
<title>m5avatar::PinkDemonEye</title>
<!-- Node1 -->
<g id="node1" class="node">
<title>Node1</title>
<g id="a_node1"><a xlink:title=" ">
<polygon fill="#999999" stroke="#666666" points="248,-85 117,-85 117,0 248,0 248,-85"/>
<text text-anchor="middle" x="182.5" y="-73" font-family="Helvetica,sans-Serif" font-size="10.00">{m5avatar::PinkDemonEye</text>
<text text-anchor="start" x="125" y="-62" font-family="Helvetica,sans-Serif" font-size="10.00">||+ drawEyelid()</text>
<text text-anchor="start" x="125" y="-51" font-family="Helvetica,sans-Serif" font-size="10.00">+ overwriteOpenRatio()</text>
<text text-anchor="start" x="125" y="-40" font-family="Helvetica,sans-Serif" font-size="10.00">+ draw()</text>
<text text-anchor="start" x="125" y="-29" font-family="Helvetica,sans-Serif" font-size="10.00">+ BaseEye()</text>
<text text-anchor="start" x="125" y="-18" font-family="Helvetica,sans-Serif" font-size="10.00">+ BaseEye()</text>
<text text-anchor="middle" x="182.5" y="-7" font-family="Helvetica,sans-Serif" font-size="10.00">}</text>
</a>
</g>
</g>
<!-- Node2 -->
<g id="node2" class="node">
<title>Node2</title>
<g id="a_node2"><a xlink:href="classm5avatar_1_1_base_eye.html" target="_top" xlink:title=" ">
<polygon fill="white" stroke="#bfbfbf" points="234,-306 131,-306 131,-122 234,-122 234,-306"/>
<text text-anchor="middle" x="182.5" y="-294" font-family="Helvetica,sans-Serif" font-size="10.00">{m5avatar::BaseEye</text>
<text text-anchor="start" x="139" y="-283" font-family="Helvetica,sans-Serif" font-size="10.00">|# height_</text>
<text text-anchor="start" x="139" y="-272" font-family="Helvetica,sans-Serif" font-size="10.00"># width_</text>
<text text-anchor="start" x="139" y="-261" font-family="Helvetica,sans-Serif" font-size="10.00"># is_left_</text>
<text text-anchor="start" x="139" y="-250" font-family="Helvetica,sans-Serif" font-size="10.00"># center_x_</text>
<text text-anchor="start" x="139" y="-239" font-family="Helvetica,sans-Serif" font-size="10.00"># center_y_</text>
<text text-anchor="start" x="139" y="-228" font-family="Helvetica,sans-Serif" font-size="10.00"># iris_bg_color_</text>
<text text-anchor="start" x="139" y="-217" font-family="Helvetica,sans-Serif" font-size="10.00"># skin_color_</text>
<text text-anchor="start" x="139" y="-206" font-family="Helvetica,sans-Serif" font-size="10.00"># iris_x_</text>
<text text-anchor="start" x="139" y="-195" font-family="Helvetica,sans-Serif" font-size="10.00"># iris_y_</text>
<text text-anchor="start" x="139" y="-184" font-family="Helvetica,sans-Serif" font-size="10.00"># open_ratio_</text>
<text text-anchor="start" x="139" y="-173" font-family="Helvetica,sans-Serif" font-size="10.00"># expression_</text>
<text text-anchor="start" x="139" y="-162" font-family="Helvetica,sans-Serif" font-size="10.00">|+ BaseEye()</text>
<text text-anchor="start" x="139" y="-151" font-family="Helvetica,sans-Serif" font-size="10.00">+ BaseEye()</text>
<text text-anchor="start" x="139" y="-140" font-family="Helvetica,sans-Serif" font-size="10.00">+ update()</text>
<text text-anchor="middle" x="182.5" y="-129" font-family="Helvetica,sans-Serif" font-size="10.00">}</text>
</a>
</g>
</g>
<!-- Node2&#45;&gt;Node1 -->
<g id="edge1" class="edge">
<title>Node2&#45;&gt;Node1</title>
<path fill="none" stroke="#63b8ff" d="M182.5,-110.58C182.5,-101.8 182.5,-93.29 182.5,-85.45"/>
<polygon fill="none" stroke="#63b8ff" points="179,-110.29 182.5,-120.29 186,-110.29 179,-110.29"/>
</g>
<!-- Node3 -->
<g id="node3" class="node">
<title>Node3</title>
<g id="a_node3"><a xlink:href="classm5avatar_1_1_drawable.html" target="_top" xlink:title=" ">
<polygon fill="white" stroke="#bfbfbf" points="105,-438 0,-438 0,-386 105,-386 105,-438"/>
<text text-anchor="middle" x="52.5" y="-426" font-family="Helvetica,sans-Serif" font-size="10.00">{m5avatar::Drawable</text>
<text text-anchor="start" x="8" y="-415" font-family="Helvetica,sans-Serif" font-size="10.00">||+ ~Drawable()</text>
<text text-anchor="start" x="8" y="-404" font-family="Helvetica,sans-Serif" font-size="10.00">+ draw()</text>
<text text-anchor="middle" x="52.5" y="-393" font-family="Helvetica,sans-Serif" font-size="10.00">}</text>
</a>
</g>
</g>
<!-- Node3&#45;&gt;Node2 -->
<g id="edge2" class="edge">
<title>Node3&#45;&gt;Node2</title>
<path fill="none" stroke="#63b8ff" d="M75.44,-376.41C90.77,-353.3 111.57,-321.95 130.75,-293.02"/>
<polygon fill="none" stroke="#63b8ff" points="72.68,-374.25 70.07,-384.52 78.51,-378.12 72.68,-374.25"/>
</g>
<!-- Node4 -->
<g id="node4" class="node">
<title>Node4</title>
<g id="a_node4"><a xlink:href="classm5avatar_1_1_color_palette.html" target="_top" xlink:title=" ">
<polygon fill="white" stroke="#666666" points="241.5,-471 123.5,-471 123.5,-353 241.5,-353 241.5,-471"/>
<text text-anchor="middle" x="182.5" y="-459" font-family="Helvetica,sans-Serif" font-size="10.00">{m5avatar::ColorPalette</text>
<text text-anchor="start" x="131.5" y="-448" font-family="Helvetica,sans-Serif" font-size="10.00">||+ ColorPalette()</text>
<text text-anchor="start" x="131.5" y="-437" font-family="Helvetica,sans-Serif" font-size="10.00">+ ~ColorPalette()</text>
<text text-anchor="start" x="131.5" y="-426" font-family="Helvetica,sans-Serif" font-size="10.00">+ ColorPalette()</text>
<text text-anchor="start" x="131.5" y="-415" font-family="Helvetica,sans-Serif" font-size="10.00">+ operator=()</text>
<text text-anchor="start" x="131.5" y="-404" font-family="Helvetica,sans-Serif" font-size="10.00">+ get()</text>
<text text-anchor="start" x="131.5" y="-393" font-family="Helvetica,sans-Serif" font-size="10.00">+ set()</text>
<text text-anchor="start" x="131.5" y="-382" font-family="Helvetica,sans-Serif" font-size="10.00">+ contains()</text>
<text text-anchor="start" x="131.5" y="-371" font-family="Helvetica,sans-Serif" font-size="10.00">+ clear()</text>
<text text-anchor="middle" x="182.5" y="-360" font-family="Helvetica,sans-Serif" font-size="10.00">}</text>
</a>
</g>
</g>
<!-- Node4&#45;&gt;Node2 -->
<g id="edge3" class="edge">
<title>Node4&#45;&gt;Node2</title>
<path fill="none" stroke="#404040" d="M182.5,-352.72C182.5,-342.15 182.5,-330.83 182.5,-319.39"/>
<polygon fill="none" stroke="#404040" points="182.5,-319.37 178.5,-313.37 182.5,-307.37 186.5,-313.37 182.5,-319.37"/>
<text text-anchor="middle" x="204" y="-327" font-family="Helvetica,sans-Serif" font-size="10.00"> #palette_</text>
</g>
<!-- Node5 -->
<g id="node5" class="node">
<title>Node5</title>
<g id="a_node5"><a xlink:href="classm5avatar_1_1_gaze.html" target="_top" xlink:title=" ">
<polygon fill="white" stroke="#bfbfbf" points="347.5,-465.5 259.5,-465.5 259.5,-358.5 347.5,-358.5 347.5,-465.5"/>
<text text-anchor="middle" x="303.5" y="-453.5" font-family="Helvetica,sans-Serif" font-size="10.00">{m5avatar::Gaze</text>
<text text-anchor="start" x="267.5" y="-442.5" font-family="Helvetica,sans-Serif" font-size="10.00">||+ Gaze()</text>
<text text-anchor="start" x="267.5" y="-431.5" font-family="Helvetica,sans-Serif" font-size="10.00">+ Gaze()</text>
<text text-anchor="start" x="267.5" y="-420.5" font-family="Helvetica,sans-Serif" font-size="10.00">+ ~Gaze()</text>
<text text-anchor="start" x="267.5" y="-409.5" font-family="Helvetica,sans-Serif" font-size="10.00">+ Gaze()</text>
<text text-anchor="start" x="267.5" y="-398.5" font-family="Helvetica,sans-Serif" font-size="10.00">+ operator=()</text>
<text text-anchor="start" x="267.5" y="-387.5" font-family="Helvetica,sans-Serif" font-size="10.00">+ getVertical()</text>
<text text-anchor="start" x="267.5" y="-376.5" font-family="Helvetica,sans-Serif" font-size="10.00">+ getHorizontal()</text>
<text text-anchor="middle" x="303.5" y="-365.5" font-family="Helvetica,sans-Serif" font-size="10.00">}</text>
</a>
</g>
</g>
<!-- Node5&#45;&gt;Node2 -->
<g id="edge4" class="edge">
<title>Node5&#45;&gt;Node2</title>
<path fill="none" stroke="#404040" d="M270.92,-358.22C261.67,-343.24 251.31,-326.46 241.03,-309.81"/>
<polygon fill="none" stroke="#404040" points="241.07,-309.88 234.52,-306.88 234.77,-299.67 241.33,-302.67 241.07,-309.88"/>
<text text-anchor="middle" x="270.5" y="-327" font-family="Helvetica,sans-Serif" font-size="10.00"> #gaze_</text>
</g>
</g>
</svg>
