<?xml version="1.0" encoding="UTF-8" standalone="no"?>
<!DOCTYPE svg PUBLIC "-//W3C//DTD SVG 1.1//EN"
 "http://www.w3.org/Graphics/SVG/1.1/DTD/svg11.dtd">
<!-- Generated by graphviz version 7.0.5 (20221223.1930)
 -->
<!-- Title: m5avatar::RectMouth Pages: 1 -->
<svg width="250pt" height="457pt"
 viewBox="0.00 0.00 249.50 457.00" xmlns="http://www.w3.org/2000/svg" xmlns:xlink="http://www.w3.org/1999/xlink">
<g id="graph0" class="graph" transform="scale(1 1) rotate(0) translate(4 453)">
<title>m5avatar::RectMouth</title>
<!-- Node1 -->
<g id="node1" class="node">
<title>Node1</title>
<g id="a_node1"><a xlink:title=" ">
<polygon fill="#999999" stroke="#666666" points="173.5,-63 61.5,-63 61.5,0 173.5,0 173.5,-63"/>
<text text-anchor="middle" x="117.5" y="-51" font-family="Helvetica,sans-Serif" font-size="10.00">{m5avatar::RectMouth</text>
<text text-anchor="start" x="69.5" y="-40" font-family="Helvetica,sans-Serif" font-size="10.00">||+ draw()</text>
<text text-anchor="start" x="69.5" y="-29" font-family="Helvetica,sans-Serif" font-size="10.00">+ BaseMouth()</text>
<text text-anchor="start" x="69.5" y="-18" font-family="Helvetica,sans-Serif" font-size="10.00">+ BaseMouth()</text>
<text text-anchor="middle" x="117.5" y="-7" font-family="Helvetica,sans-Serif" font-size="10.00">}</text>
</a>
</g>
</g>
<!-- Node2 -->
<g id="node2" class="node">
<title>Node2</title>
<g id="a_node2"><a xlink:href="classm5avatar_1_1_base_mouth.html" target="_top" xlink:title=" ">
<polygon fill="white" stroke="#bfbfbf" points="174.5,-284 60.5,-284 60.5,-100 174.5,-100 174.5,-284"/>
<text text-anchor="middle" x="117.5" y="-272" font-family="Helvetica,sans-Serif" font-size="10.00">{m5avatar::BaseMouth</text>
<text text-anchor="start" x="68.5" y="-261" font-family="Helvetica,sans-Serif" font-size="10.00">|# min_width_</text>
<text text-anchor="start" x="68.5" y="-250" font-family="Helvetica,sans-Serif" font-size="10.00"># max_width_</text>
<text text-anchor="start" x="68.5" y="-239" font-family="Helvetica,sans-Serif" font-size="10.00"># min_height_</text>
<text text-anchor="start" x="68.5" y="-228" font-family="Helvetica,sans-Serif" font-size="10.00"># max_height_</text>
<text text-anchor="start" x="68.5" y="-217" font-family="Helvetica,sans-Serif" font-size="10.00"># center_x_</text>
<text text-anchor="start" x="68.5" y="-206" font-family="Helvetica,sans-Serif" font-size="10.00"># center_y_</text>
<text text-anchor="start" x="68.5" y="-195" font-family="Helvetica,sans-Serif" font-size="10.00"># background_color_</text>
<text text-anchor="start" x="68.5" y="-184" font-family="Helvetica,sans-Serif" font-size="10.00"># skin_color_</text>
<text text-anchor="start" x="68.5" y="-173" font-family="Helvetica,sans-Serif" font-size="10.00"># open_ratio_</text>
<text text-anchor="start" x="68.5" y="-162" font-family="Helvetica,sans-Serif" font-size="10.00"># breath_</text>
<text text-anchor="start" x="68.5" y="-151" font-family="Helvetica,sans-Serif" font-size="10.00"># expression_</text>
<text text-anchor="start" x="68.5" y="-140" font-family="Helvetica,sans-Serif" font-size="10.00">|+ BaseMouth()</text>
<text text-anchor="start" x="68.5" y="-129" font-family="Helvetica,sans-Serif" font-size="10.00">+ BaseMouth()</text>
<text text-anchor="start" x="68.5" y="-118" font-family="Helvetica,sans-Serif" font-size="10.00">+ update()</text>
<text text-anchor="middle" x="117.5" y="-107" font-family="Helvetica,sans-Serif" font-size="10.00">}</text>
</a>
</g>
</g>
<!-- Node2&#45;&gt;Node1 -->
<g id="edge1" class="edge">
<title>Node2&#45;&gt;Node1</title>
<path fill="none" stroke="#63b8ff" d="M117.5,-88.23C117.5,-79.31 117.5,-70.84 117.5,-63.3"/>
<polygon fill="none" stroke="#63b8ff" points="114,-88.2 117.5,-98.2 121,-88.2 114,-88.2"/>
</g>
<!-- Node3 -->
<g id="node3" class="node">
<title>Node3</title>
<g id="a_node3"><a xlink:href="classm5avatar_1_1_drawable.html" target="_top" xlink:title=" ">
<polygon fill="white" stroke="#bfbfbf" points="105,-416 0,-416 0,-364 105,-364 105,-416"/>
<text text-anchor="middle" x="52.5" y="-404" font-family="Helvetica,sans-Serif" font-size="10.00">{m5avatar::Drawable</text>
<text text-anchor="start" x="8" y="-393" font-family="Helvetica,sans-Serif" font-size="10.00">||+ ~Drawable()</text>
<text text-anchor="start" x="8" y="-382" font-family="Helvetica,sans-Serif" font-size="10.00">+ draw()</text>
<text text-anchor="middle" x="52.5" y="-371" font-family="Helvetica,sans-Serif" font-size="10.00">}</text>
</a>
</g>
</g>
<!-- Node3&#45;&gt;Node2 -->
<g id="edge2" class="edge">
<title>Node3&#45;&gt;Node2</title>
<path fill="none" stroke="#63b8ff" d="M64.43,-353.02C70.87,-333.59 79.15,-308.65 87.24,-284.26"/>
<polygon fill="none" stroke="#63b8ff" points="61.17,-351.75 61.34,-362.34 67.81,-353.95 61.17,-351.75"/>
</g>
<!-- Node4 -->
<g id="node4" class="node">
<title>Node4</title>
<g id="a_node4"><a xlink:href="classm5avatar_1_1_color_palette.html" target="_top" xlink:title=" ">
<polygon fill="white" stroke="#666666" points="241.5,-449 123.5,-449 123.5,-331 241.5,-331 241.5,-449"/>
<text text-anchor="middle" x="182.5" y="-437" font-family="Helvetica,sans-Serif" font-size="10.00">{m5avatar::ColorPalette</text>
<text text-anchor="start" x="131.5" y="-426" font-family="Helvetica,sans-Serif" font-size="10.00">||+ ColorPalette()</text>
<text text-anchor="start" x="131.5" y="-415" font-family="Helvetica,sans-Serif" font-size="10.00">+ ~ColorPalette()</text>
<text text-anchor="start" x="131.5" y="-404" font-family="Helvetica,sans-Serif" font-size="10.00">+ ColorPalette()</text>
<text text-anchor="start" x="131.5" y="-393" font-family="Helvetica,sans-Serif" font-size="10.00">+ operator=()</text>
<text text-anchor="start" x="131.5" y="-382" font-family="Helvetica,sans-Serif" font-size="10.00">+ get()</text>
<text text-anchor="start" x="131.5" y="-371" font-family="Helvetica,sans-Serif" font-size="10.00">+ set()</text>
<text text-anchor="start" x="131.5" y="-360" font-family="Helvetica,sans-Serif" font-size="10.00">+ contains()</text>
<text text-anchor="start" x="131.5" y="-349" font-family="Helvetica,sans-Serif" font-size="10.00">+ clear()</text>
<text text-anchor="middle" x="182.5" y="-338" font-family="Helvetica,sans-Serif" font-size="10.00">}</text>
</a>
</g>
</g>
<!-- Node4&#45;&gt;Node2 -->
<g id="edge3" class="edge">
<title>Node4&#45;&gt;Node2</title>
<path fill="none" stroke="#404040" d="M163.17,-330.72C159.59,-319.92 155.75,-308.34 151.88,-296.65"/>
<polygon fill="none" stroke="#404040" points="151.89,-296.71 146.21,-292.27 148.12,-285.32 153.8,-289.76 151.89,-296.71"/>
<text text-anchor="middle" x="177" y="-305" font-family="Helvetica,sans-Serif" font-size="10.00"> #palette_</text>
</g>
</g>
</svg>
