<?xml version="1.0" encoding="UTF-8" standalone="no"?>
<!DOCTYPE svg PUBLIC "-//W3C//DTD SVG 1.1//EN"
 "http://www.w3.org/Graphics/SVG/1.1/DTD/svg11.dtd">
<!-- Generated by graphviz version 7.0.5 (20221223.1930)
 -->
<!-- Title: m5avatar::BaseEye Pages: 1 -->
<svg width="526pt" height="434pt"
 viewBox="0.00 0.00 525.50 434.00" xmlns="http://www.w3.org/2000/svg" xmlns:xlink="http://www.w3.org/1999/xlink">
<g id="graph0" class="graph" transform="scale(1 1) rotate(0) translate(4 430)">
<title>m5avatar::BaseEye</title>
<!-- Node1 -->
<g id="node1" class="node">
<title>Node1</title>
<g id="a_node1"><a xlink:title=" ">
<polygon fill="#999999" stroke="#666666" points="300,-338 197,-338 197,-132 300,-132 300,-338"/>
<text text-anchor="middle" x="248.5" y="-326" font-family="Helvetica,sans-Serif" font-size="10.00">{m5avatar::BaseEye</text>
<text text-anchor="start" x="205" y="-315" font-family="Helvetica,sans-Serif" font-size="10.00">|# height_</text>
<text text-anchor="start" x="205" y="-304" font-family="Helvetica,sans-Serif" font-size="10.00"># width_</text>
<text text-anchor="start" x="205" y="-293" font-family="Helvetica,sans-Serif" font-size="10.00"># is_left_</text>
<text text-anchor="start" x="205" y="-282" font-family="Helvetica,sans-Serif" font-size="10.00"># palette_</text>
<text text-anchor="start" x="205" y="-271" font-family="Helvetica,sans-Serif" font-size="10.00"># center_x_</text>
<text text-anchor="start" x="205" y="-260" font-family="Helvetica,sans-Serif" font-size="10.00"># center_y_</text>
<text text-anchor="start" x="205" y="-249" font-family="Helvetica,sans-Serif" font-size="10.00"># gaze_</text>
<text text-anchor="start" x="205" y="-238" font-family="Helvetica,sans-Serif" font-size="10.00"># iris_bg_color_</text>
<text text-anchor="start" x="205" y="-227" font-family="Helvetica,sans-Serif" font-size="10.00"># skin_color_</text>
<text text-anchor="start" x="205" y="-216" font-family="Helvetica,sans-Serif" font-size="10.00"># iris_x_</text>
<text text-anchor="start" x="205" y="-205" font-family="Helvetica,sans-Serif" font-size="10.00"># iris_y_</text>
<text text-anchor="start" x="205" y="-194" font-family="Helvetica,sans-Serif" font-size="10.00"># open_ratio_</text>
<text text-anchor="start" x="205" y="-183" font-family="Helvetica,sans-Serif" font-size="10.00"># expression_</text>
<text text-anchor="start" x="205" y="-172" font-family="Helvetica,sans-Serif" font-size="10.00">|+ BaseEye()</text>
<text text-anchor="start" x="205" y="-161" font-family="Helvetica,sans-Serif" font-size="10.00">+ BaseEye()</text>
<text text-anchor="start" x="205" y="-150" font-family="Helvetica,sans-Serif" font-size="10.00">+ update()</text>
<text text-anchor="middle" x="248.5" y="-139" font-family="Helvetica,sans-Serif" font-size="10.00">}</text>
</a>
</g>
</g>
<!-- Node3 -->
<g id="node3" class="node">
<title>Node3</title>
<g id="a_node3"><a xlink:href="classm5avatar_1_1_doggy_eye.html" target="_top" xlink:title=" ">
<polygon fill="white" stroke="#bfbfbf" points="107,-79.5 0,-79.5 0,-16.5 107,-16.5 107,-79.5"/>
<text text-anchor="middle" x="53.5" y="-67.5" font-family="Helvetica,sans-Serif" font-size="10.00">{m5avatar::DoggyEye</text>
<text text-anchor="start" x="8" y="-56.5" font-family="Helvetica,sans-Serif" font-size="10.00">||+ draw()</text>
<text text-anchor="start" x="8" y="-45.5" font-family="Helvetica,sans-Serif" font-size="10.00">+ BaseEye()</text>
<text text-anchor="start" x="8" y="-34.5" font-family="Helvetica,sans-Serif" font-size="10.00">+ BaseEye()</text>
<text text-anchor="middle" x="53.5" y="-23.5" font-family="Helvetica,sans-Serif" font-size="10.00">}</text>
</a>
</g>
</g>
<!-- Node1&#45;&gt;Node3 -->
<g id="edge2" class="edge">
<title>Node1&#45;&gt;Node3</title>
<path fill="none" stroke="#63b8ff" d="M188.78,-177.35C155.02,-145.32 114.11,-106.5 86.18,-80"/>
<polygon fill="none" stroke="#63b8ff" points="185.99,-179.52 195.66,-183.87 190.81,-174.45 185.99,-179.52"/>
</g>
<!-- Node4 -->
<g id="node4" class="node">
<title>Node4</title>
<g id="a_node4"><a xlink:href="classm5avatar_1_1_ellipse_eye.html" target="_top" xlink:title=" ">
<polygon fill="white" stroke="#bfbfbf" points="234,-79.5 125,-79.5 125,-16.5 234,-16.5 234,-79.5"/>
<text text-anchor="middle" x="179.5" y="-67.5" font-family="Helvetica,sans-Serif" font-size="10.00">{m5avatar::EllipseEye</text>
<text text-anchor="start" x="133" y="-56.5" font-family="Helvetica,sans-Serif" font-size="10.00">||+ draw()</text>
<text text-anchor="start" x="133" y="-45.5" font-family="Helvetica,sans-Serif" font-size="10.00">+ BaseEye()</text>
<text text-anchor="start" x="133" y="-34.5" font-family="Helvetica,sans-Serif" font-size="10.00">+ BaseEye()</text>
<text text-anchor="middle" x="179.5" y="-23.5" font-family="Helvetica,sans-Serif" font-size="10.00">}</text>
</a>
</g>
</g>
<!-- Node1&#45;&gt;Node4 -->
<g id="edge3" class="edge">
<title>Node1&#45;&gt;Node4</title>
<path fill="none" stroke="#63b8ff" d="M206.43,-121.22C200.81,-106.13 195.46,-91.8 191.04,-79.94"/>
<polygon fill="none" stroke="#63b8ff" points="203.06,-122.2 209.84,-130.34 209.62,-119.75 203.06,-122.2"/>
</g>
<!-- Node5 -->
<g id="node5" class="node">
<title>Node5</title>
<g id="a_node5"><a xlink:href="classm5avatar_1_1_pink_demon_eye.html" target="_top" xlink:title=" ">
<polygon fill="white" stroke="#bfbfbf" points="383,-90.5 252,-90.5 252,-5.5 383,-5.5 383,-90.5"/>
<text text-anchor="middle" x="317.5" y="-78.5" font-family="Helvetica,sans-Serif" font-size="10.00">{m5avatar::PinkDemonEye</text>
<text text-anchor="start" x="260" y="-67.5" font-family="Helvetica,sans-Serif" font-size="10.00">||+ drawEyelid()</text>
<text text-anchor="start" x="260" y="-56.5" font-family="Helvetica,sans-Serif" font-size="10.00">+ overwriteOpenRatio()</text>
<text text-anchor="start" x="260" y="-45.5" font-family="Helvetica,sans-Serif" font-size="10.00">+ draw()</text>
<text text-anchor="start" x="260" y="-34.5" font-family="Helvetica,sans-Serif" font-size="10.00">+ BaseEye()</text>
<text text-anchor="start" x="260" y="-23.5" font-family="Helvetica,sans-Serif" font-size="10.00">+ BaseEye()</text>
<text text-anchor="middle" x="317.5" y="-12.5" font-family="Helvetica,sans-Serif" font-size="10.00">}</text>
</a>
</g>
</g>
<!-- Node1&#45;&gt;Node5 -->
<g id="edge4" class="edge">
<title>Node1&#45;&gt;Node5</title>
<path fill="none" stroke="#63b8ff" d="M290.54,-121.27C294.59,-110.44 298.48,-99.99 301.99,-90.57"/>
<polygon fill="none" stroke="#63b8ff" points="287.38,-119.75 287.16,-130.34 293.94,-122.2 287.38,-119.75"/>
</g>
<!-- Node6 -->
<g id="node6" class="node">
<title>Node6</title>
<g id="a_node6"><a xlink:href="classm5avatar_1_1_toon_eye1.html" target="_top" xlink:title=" ">
<polygon fill="white" stroke="#bfbfbf" points="517.5,-96 401.5,-96 401.5,0 517.5,0 517.5,-96"/>
<text text-anchor="middle" x="459.5" y="-84" font-family="Helvetica,sans-Serif" font-size="10.00">{m5avatar::ToonEye1</text>
<text text-anchor="start" x="409.5" y="-73" font-family="Helvetica,sans-Serif" font-size="10.00">||+ drawEyelid()</text>
<text text-anchor="start" x="409.5" y="-62" font-family="Helvetica,sans-Serif" font-size="10.00">+ drawEyelash100()</text>
<text text-anchor="start" x="409.5" y="-51" font-family="Helvetica,sans-Serif" font-size="10.00">+ overwriteOpenRatio()</text>
<text text-anchor="start" x="409.5" y="-40" font-family="Helvetica,sans-Serif" font-size="10.00">+ draw()</text>
<text text-anchor="start" x="409.5" y="-29" font-family="Helvetica,sans-Serif" font-size="10.00">+ BaseEye()</text>
<text text-anchor="start" x="409.5" y="-18" font-family="Helvetica,sans-Serif" font-size="10.00">+ BaseEye()</text>
<text text-anchor="middle" x="459.5" y="-7" font-family="Helvetica,sans-Serif" font-size="10.00">}</text>
</a>
</g>
</g>
<!-- Node1&#45;&gt;Node6 -->
<g id="edge5" class="edge">
<title>Node1&#45;&gt;Node6</title>
<path fill="none" stroke="#63b8ff" d="M308.82,-181.12C339.33,-154.37 376.05,-122.17 405.61,-96.25"/>
<polygon fill="none" stroke="#63b8ff" points="306.74,-178.28 301.52,-187.51 311.35,-183.55 306.74,-178.28"/>
</g>
<!-- Node2 -->
<g id="node2" class="node">
<title>Node2</title>
<g id="a_node2"><a xlink:href="classm5avatar_1_1_drawable.html" target="_top" xlink:title=" ">
<polygon fill="white" stroke="#bfbfbf" points="301,-426 196,-426 196,-374 301,-374 301,-426"/>
<text text-anchor="middle" x="248.5" y="-414" font-family="Helvetica,sans-Serif" font-size="10.00">{m5avatar::Drawable</text>
<text text-anchor="start" x="204" y="-403" font-family="Helvetica,sans-Serif" font-size="10.00">||+ ~Drawable()</text>
<text text-anchor="start" x="204" y="-392" font-family="Helvetica,sans-Serif" font-size="10.00">+ draw()</text>
<text text-anchor="middle" x="248.5" y="-381" font-family="Helvetica,sans-Serif" font-size="10.00">}</text>
</a>
</g>
</g>
<!-- Node2&#45;&gt;Node1 -->
<g id="edge1" class="edge">
<title>Node2&#45;&gt;Node1</title>
<path fill="none" stroke="#63b8ff" d="M248.5,-362.2C248.5,-354.82 248.5,-346.72 248.5,-338.3"/>
<polygon fill="none" stroke="#63b8ff" points="245,-362.02 248.5,-372.02 252,-362.02 245,-362.02"/>
</g>
</g>
</svg>
