<?xml version="1.0" encoding="UTF-8" standalone="no"?>
<!DOCTYPE svg PUBLIC "-//W3C//DTD SVG 1.1//EN"
 "http://www.w3.org/Graphics/SVG/1.1/DTD/svg11.dtd">
<!-- Generated by graphviz version 7.0.5 (20221223.1930)
 -->
<!-- Title: m5avatar::Face Pages: 1 -->
<svg width="1307pt" height="236pt"
 viewBox="0.00 0.00 1306.50 236.00" xmlns="http://www.w3.org/2000/svg" xmlns:xlink="http://www.w3.org/1999/xlink">
<g id="graph0" class="graph" transform="scale(1 1) rotate(0) translate(4 232)">
<title>m5avatar::Face</title>
<!-- Node1 -->
<g id="node1" class="node">
<title>Node1</title>
<g id="a_node1"><a xlink:title=" ">
<polygon fill="#999999" stroke="#666666" points="666,-228 580,-228 580,-77 666,-77 666,-228"/>
<text text-anchor="middle" x="623" y="-216" font-family="Helvetica,sans-Serif" font-size="10.00">{m5avatar::Face</text>
<text text-anchor="start" x="588" y="-205" font-family="Helvetica,sans-Serif" font-size="10.00">||+ Face()</text>
<text text-anchor="start" x="588" y="-194" font-family="Helvetica,sans-Serif" font-size="10.00">+ Face()</text>
<text text-anchor="start" x="588" y="-183" font-family="Helvetica,sans-Serif" font-size="10.00">+ Face()</text>
<text text-anchor="start" x="588" y="-172" font-family="Helvetica,sans-Serif" font-size="10.00">+ Face()</text>
<text text-anchor="start" x="588" y="-161" font-family="Helvetica,sans-Serif" font-size="10.00">+ ~Face()</text>
<text text-anchor="start" x="588" y="-150" font-family="Helvetica,sans-Serif" font-size="10.00">+ Face()</text>
<text text-anchor="start" x="588" y="-139" font-family="Helvetica,sans-Serif" font-size="10.00">+ operator=()</text>
<text text-anchor="start" x="588" y="-128" font-family="Helvetica,sans-Serif" font-size="10.00">+ getLeftEye()</text>
<text text-anchor="start" x="588" y="-117" font-family="Helvetica,sans-Serif" font-size="10.00">+ getRightEye()</text>
<text text-anchor="start" x="588" y="-106" font-family="Helvetica,sans-Serif" font-size="10.00">+ getMouth()</text>
<text text-anchor="start" x="588" y="-95" font-family="Helvetica,sans-Serif" font-size="10.00">and 7 more...</text>
<text text-anchor="middle" x="623" y="-84" font-family="Helvetica,sans-Serif" font-size="10.00">}</text>
</a>
</g>
</g>
<!-- Node2 -->
<g id="node2" class="node">
<title>Node2</title>
<g id="a_node2"><a xlink:href="classm5avatar_1_1_b_m_p_face.html" target="_top" xlink:title=" ">
<polygon fill="white" stroke="#bfbfbf" points="108,-41 0,-41 0,0 108,0 108,-41"/>
<text text-anchor="middle" x="54" y="-29" font-family="Helvetica,sans-Serif" font-size="10.00">{m5avatar::BMPFace</text>
<text text-anchor="start" x="8" y="-18" font-family="Helvetica,sans-Serif" font-size="10.00">||+ BMPFace()</text>
<text text-anchor="middle" x="54" y="-7" font-family="Helvetica,sans-Serif" font-size="10.00">}</text>
</a>
</g>
</g>
<!-- Node1&#45;&gt;Node2 -->
<g id="edge1" class="edge">
<title>Node1&#45;&gt;Node2</title>
<path fill="none" stroke="#63b8ff" d="M568.62,-141.21C475.55,-123.23 279.97,-83.93 117,-41 114.12,-40.24 111.18,-39.44 108.21,-38.6"/>
<polygon fill="none" stroke="#63b8ff" points="567.75,-144.6 578.23,-143.06 569.08,-137.73 567.75,-144.6"/>
</g>
<!-- Node3 -->
<g id="node3" class="node">
<title>Node3</title>
<g id="a_node3"><a xlink:href="classm5avatar_1_1_dog_face.html" target="_top" xlink:title=" ">
<polygon fill="white" stroke="#bfbfbf" points="230,-41 126,-41 126,0 230,0 230,-41"/>
<text text-anchor="middle" x="178" y="-29" font-family="Helvetica,sans-Serif" font-size="10.00">{m5avatar::DogFace</text>
<text text-anchor="start" x="134" y="-18" font-family="Helvetica,sans-Serif" font-size="10.00">||+ DogFace()</text>
<text text-anchor="middle" x="178" y="-7" font-family="Helvetica,sans-Serif" font-size="10.00">}</text>
</a>
</g>
</g>
<!-- Node1&#45;&gt;Node3 -->
<g id="edge2" class="edge">
<title>Node1&#45;&gt;Node3</title>
<path fill="none" stroke="#63b8ff" d="M568.73,-136.42C494.21,-115.6 356.12,-76.56 239,-41 236.13,-40.13 233.18,-39.22 230.21,-38.3"/>
<polygon fill="none" stroke="#63b8ff" points="567.66,-139.76 578.23,-139.07 569.54,-133.01 567.66,-139.76"/>
</g>
<!-- Node4 -->
<g id="node4" class="node">
<title>Node4</title>
<g id="a_node4"><a xlink:href="classm5avatar_1_1_doggy_face.html" target="_top" xlink:title=" ">
<polygon fill="white" stroke="#bfbfbf" points="361.5,-41 248.5,-41 248.5,0 361.5,0 361.5,-41"/>
<text text-anchor="middle" x="305" y="-29" font-family="Helvetica,sans-Serif" font-size="10.00">{m5avatar::DoggyFace</text>
<text text-anchor="start" x="256.5" y="-18" font-family="Helvetica,sans-Serif" font-size="10.00">||+ DoggyFace()</text>
<text text-anchor="middle" x="305" y="-7" font-family="Helvetica,sans-Serif" font-size="10.00">}</text>
</a>
</g>
</g>
<!-- Node1&#45;&gt;Node4 -->
<g id="edge3" class="edge">
<title>Node1&#45;&gt;Node4</title>
<path fill="none" stroke="#63b8ff" d="M569.34,-129.56C509.07,-104.92 412.09,-65.28 353.86,-41.47"/>
<polygon fill="none" stroke="#63b8ff" points="567.8,-132.72 578.38,-133.26 570.45,-126.24 567.8,-132.72"/>
</g>
<!-- Node5 -->
<g id="node5" class="node">
<title>Node5</title>
<g id="a_node5"><a xlink:href="classm5avatar_1_1_girly_face.html" target="_top" xlink:title=" ">
<polygon fill="white" stroke="#bfbfbf" points="486,-41 380,-41 380,0 486,0 486,-41"/>
<text text-anchor="middle" x="433" y="-29" font-family="Helvetica,sans-Serif" font-size="10.00">{m5avatar::GirlyFace</text>
<text text-anchor="start" x="388" y="-18" font-family="Helvetica,sans-Serif" font-size="10.00">||+ GirlyFace()</text>
<text text-anchor="middle" x="433" y="-7" font-family="Helvetica,sans-Serif" font-size="10.00">}</text>
</a>
</g>
</g>
<!-- Node1&#45;&gt;Node5 -->
<g id="edge4" class="edge">
<title>Node1&#45;&gt;Node5</title>
<path fill="none" stroke="#63b8ff" d="M570.75,-115.75C535.73,-91.79 490.91,-61.12 462.08,-41.39"/>
<polygon fill="none" stroke="#63b8ff" points="568.41,-118.39 578.64,-121.15 572.36,-112.61 568.41,-118.39"/>
</g>
<!-- Node6 -->
<g id="node6" class="node">
<title>Node6</title>
<g id="a_node6"><a xlink:href="classm5avatar_1_1_girly_face2.html" target="_top" xlink:title=" ">
<polygon fill="white" stroke="#bfbfbf" points="615.5,-41 504.5,-41 504.5,0 615.5,0 615.5,-41"/>
<text text-anchor="middle" x="560" y="-29" font-family="Helvetica,sans-Serif" font-size="10.00">{m5avatar::GirlyFace2</text>
<text text-anchor="start" x="512.5" y="-18" font-family="Helvetica,sans-Serif" font-size="10.00">||+ GirlyFace2()</text>
<text text-anchor="middle" x="560" y="-7" font-family="Helvetica,sans-Serif" font-size="10.00">}</text>
</a>
</g>
</g>
<!-- Node1&#45;&gt;Node6 -->
<g id="edge5" class="edge">
<title>Node1&#45;&gt;Node6</title>
<path fill="none" stroke="#63b8ff" d="M581.78,-66.44C577.31,-57.23 573.14,-48.61 569.66,-41.44"/>
<polygon fill="none" stroke="#63b8ff" points="578.55,-67.8 586.06,-75.27 584.85,-64.74 578.55,-67.8"/>
</g>
<!-- Node7 -->
<g id="node7" class="node">
<title>Node7</title>
<g id="a_node7"><a xlink:href="classm5avatar_1_1_oled_face.html" target="_top" xlink:title=" ">
<polygon fill="white" stroke="#bfbfbf" points="740.5,-41 633.5,-41 633.5,0 740.5,0 740.5,-41"/>
<text text-anchor="middle" x="687" y="-29" font-family="Helvetica,sans-Serif" font-size="10.00">{m5avatar::OledFace</text>
<text text-anchor="start" x="641.5" y="-18" font-family="Helvetica,sans-Serif" font-size="10.00">||+ OledFace()</text>
<text text-anchor="middle" x="687" y="-7" font-family="Helvetica,sans-Serif" font-size="10.00">}</text>
</a>
</g>
</g>
<!-- Node1&#45;&gt;Node7 -->
<g id="edge6" class="edge">
<title>Node1&#45;&gt;Node7</title>
<path fill="none" stroke="#63b8ff" d="M664.88,-66.44C669.41,-57.23 673.65,-48.61 677.19,-41.44"/>
<polygon fill="none" stroke="#63b8ff" points="661.8,-64.76 660.53,-75.27 668.08,-67.85 661.8,-64.76"/>
</g>
<!-- Node8 -->
<g id="node8" class="node">
<title>Node8</title>
<g id="a_node8"><a xlink:href="classm5avatar_1_1_omega_face.html" target="_top" xlink:title="face template for &quot;OωO&quot; face">
<polygon fill="white" stroke="#666666" points="877,-41 759,-41 759,0 877,0 877,-41"/>
<text text-anchor="middle" x="818" y="-29" font-family="Helvetica,sans-Serif" font-size="10.00">{m5avatar::OmegaFace</text>
<text text-anchor="start" x="767" y="-18" font-family="Helvetica,sans-Serif" font-size="10.00">||+ OmegaFace()</text>
<text text-anchor="middle" x="818" y="-7" font-family="Helvetica,sans-Serif" font-size="10.00">}</text>
</a>
</g>
</g>
<!-- Node1&#45;&gt;Node8 -->
<g id="edge7" class="edge">
<title>Node1&#45;&gt;Node8</title>
<path fill="none" stroke="#63b8ff" d="M675.68,-116.38C711.76,-92.33 758.3,-61.3 788.15,-41.4"/>
<polygon fill="none" stroke="#63b8ff" points="673.92,-113.35 667.54,-121.81 677.8,-119.17 673.92,-113.35"/>
</g>
<!-- Node9 -->
<g id="node9" class="node">
<title>Node9</title>
<g id="a_node9"><a xlink:href="classm5avatar_1_1_pink_demon_face.html" target="_top" xlink:title=" ">
<polygon fill="white" stroke="#bfbfbf" points="1032.5,-41 895.5,-41 895.5,0 1032.5,0 1032.5,-41"/>
<text text-anchor="middle" x="964" y="-29" font-family="Helvetica,sans-Serif" font-size="10.00">{m5avatar::PinkDemonFace</text>
<text text-anchor="start" x="903.5" y="-18" font-family="Helvetica,sans-Serif" font-size="10.00">||+ PinkDemonFace()</text>
<text text-anchor="middle" x="964" y="-7" font-family="Helvetica,sans-Serif" font-size="10.00">}</text>
</a>
</g>
</g>
<!-- Node1&#45;&gt;Node9 -->
<g id="edge8" class="edge">
<title>Node1&#45;&gt;Node9</title>
<path fill="none" stroke="#63b8ff" d="M676.91,-130.95C741.24,-106.42 848.07,-65.7 911.68,-41.44"/>
<polygon fill="none" stroke="#63b8ff" points="675.7,-127.66 667.6,-134.5 678.19,-134.2 675.7,-127.66"/>
</g>
<!-- Node10 -->
<g id="node10" class="node">
<title>Node10</title>
<g id="a_node10"><a xlink:href="classm5avatar_1_1_simple_face.html" target="_top" xlink:title="face template for &quot;o_o&quot;">
<polygon fill="white" stroke="#666666" points="1167,-41 1051,-41 1051,0 1167,0 1167,-41"/>
<text text-anchor="middle" x="1109" y="-29" font-family="Helvetica,sans-Serif" font-size="10.00">{m5avatar::SimpleFace</text>
<text text-anchor="start" x="1059" y="-18" font-family="Helvetica,sans-Serif" font-size="10.00">||+ SimpleFace()</text>
<text text-anchor="middle" x="1109" y="-7" font-family="Helvetica,sans-Serif" font-size="10.00">}</text>
</a>
</g>
</g>
<!-- Node1&#45;&gt;Node10 -->
<g id="edge9" class="edge">
<title>Node1&#45;&gt;Node10</title>
<path fill="none" stroke="#63b8ff" d="M677,-137.73C756.91,-117.24 911.31,-77.24 1042,-41 1044.8,-40.22 1047.67,-39.42 1050.56,-38.6"/>
<polygon fill="none" stroke="#63b8ff" points="676.51,-134.24 667.69,-140.11 678.25,-141.02 676.51,-134.24"/>
</g>
<!-- Node11 -->
<g id="node11" class="node">
<title>Node11</title>
<g id="a_node11"><a xlink:href="classm5avatar_1_1_toon_face1.html" target="_top" xlink:title=" ">
<polygon fill="white" stroke="#bfbfbf" points="1298.5,-41 1185.5,-41 1185.5,0 1298.5,0 1298.5,-41"/>
<text text-anchor="middle" x="1242" y="-29" font-family="Helvetica,sans-Serif" font-size="10.00">{m5avatar::ToonFace1</text>
<text text-anchor="start" x="1193.5" y="-18" font-family="Helvetica,sans-Serif" font-size="10.00">||+ ToonFace1()</text>
<text text-anchor="middle" x="1242" y="-7" font-family="Helvetica,sans-Serif" font-size="10.00">}</text>
</a>
</g>
</g>
<!-- Node1&#45;&gt;Node11 -->
<g id="edge10" class="edge">
<title>Node1&#45;&gt;Node11</title>
<path fill="none" stroke="#63b8ff" d="M677.58,-142.28C777.22,-125.07 994.98,-85.73 1176,-41 1179.02,-40.25 1182.1,-39.46 1185.21,-38.63"/>
<polygon fill="none" stroke="#63b8ff" points="677.07,-138.81 667.81,-143.96 678.26,-145.71 677.07,-138.81"/>
</g>
</g>
</svg>
