<?xml version="1.0" encoding="UTF-8" standalone="no"?>
<!DOCTYPE svg PUBLIC "-//W3C//DTD SVG 1.1//EN"
 "http://www.w3.org/Graphics/SVG/1.1/DTD/svg11.dtd">
<!-- Generated by graphviz version 7.0.5 (20221223.1930)
 -->
<!-- Title: m5avatar::EllipseEyebrow Pages: 1 -->
<svg width="250pt" height="435pt"
 viewBox="0.00 0.00 249.50 435.00" xmlns="http://www.w3.org/2000/svg" xmlns:xlink="http://www.w3.org/1999/xlink">
<g id="graph0" class="graph" transform="scale(1 1) rotate(0) translate(4 431)">
<title>m5avatar::EllipseEyebrow</title>
<!-- Node1 -->
<g id="node1" class="node">
<title>Node1</title>
<g id="a_node1"><a xlink:title=" ">
<polygon fill="#999999" stroke="#666666" points="182.5,-63 52.5,-63 52.5,0 182.5,0 182.5,-63"/>
<text text-anchor="middle" x="117.5" y="-51" font-family="Helvetica,sans-Serif" font-size="10.00">{m5avatar::EllipseEyebrow</text>
<text text-anchor="start" x="60.5" y="-40" font-family="Helvetica,sans-Serif" font-size="10.00">||+ draw()</text>
<text text-anchor="start" x="60.5" y="-29" font-family="Helvetica,sans-Serif" font-size="10.00">+ BaseEyebrow()</text>
<text text-anchor="start" x="60.5" y="-18" font-family="Helvetica,sans-Serif" font-size="10.00">+ BaseEyebrow()</text>
<text text-anchor="middle" x="117.5" y="-7" font-family="Helvetica,sans-Serif" font-size="10.00">}</text>
</a>
</g>
</g>
<!-- Node2 -->
<g id="node2" class="node">
<title>Node2</title>
<g id="a_node2"><a xlink:href="classm5avatar_1_1_base_eyebrow.html" target="_top" xlink:title=" ">
<polygon fill="white" stroke="#bfbfbf" points="179.5,-262 55.5,-262 55.5,-100 179.5,-100 179.5,-262"/>
<text text-anchor="middle" x="117.5" y="-250" font-family="Helvetica,sans-Serif" font-size="10.00">{m5avatar::BaseEyebrow</text>
<text text-anchor="start" x="63.5" y="-239" font-family="Helvetica,sans-Serif" font-size="10.00">|# height_</text>
<text text-anchor="start" x="63.5" y="-228" font-family="Helvetica,sans-Serif" font-size="10.00"># width_</text>
<text text-anchor="start" x="63.5" y="-217" font-family="Helvetica,sans-Serif" font-size="10.00"># is_left_</text>
<text text-anchor="start" x="63.5" y="-206" font-family="Helvetica,sans-Serif" font-size="10.00"># primary_color_</text>
<text text-anchor="start" x="63.5" y="-195" font-family="Helvetica,sans-Serif" font-size="10.00"># secondary_color_</text>
<text text-anchor="start" x="63.5" y="-184" font-family="Helvetica,sans-Serif" font-size="10.00"># background_color_</text>
<text text-anchor="start" x="63.5" y="-173" font-family="Helvetica,sans-Serif" font-size="10.00"># center_x_</text>
<text text-anchor="start" x="63.5" y="-162" font-family="Helvetica,sans-Serif" font-size="10.00"># center_y_</text>
<text text-anchor="start" x="63.5" y="-151" font-family="Helvetica,sans-Serif" font-size="10.00"># expression_</text>
<text text-anchor="start" x="63.5" y="-140" font-family="Helvetica,sans-Serif" font-size="10.00">|+ BaseEyebrow()</text>
<text text-anchor="start" x="63.5" y="-129" font-family="Helvetica,sans-Serif" font-size="10.00">+ BaseEyebrow()</text>
<text text-anchor="start" x="63.5" y="-118" font-family="Helvetica,sans-Serif" font-size="10.00">+ update()</text>
<text text-anchor="middle" x="117.5" y="-107" font-family="Helvetica,sans-Serif" font-size="10.00">}</text>
</a>
</g>
</g>
<!-- Node2&#45;&gt;Node1 -->
<g id="edge1" class="edge">
<title>Node2&#45;&gt;Node1</title>
<path fill="none" stroke="#63b8ff" d="M117.5,-88.33C117.5,-79.43 117.5,-70.89 117.5,-63.29"/>
<polygon fill="none" stroke="#63b8ff" points="114,-88.26 117.5,-98.26 121,-88.26 114,-88.26"/>
</g>
<!-- Node3 -->
<g id="node3" class="node">
<title>Node3</title>
<g id="a_node3"><a xlink:href="classm5avatar_1_1_drawable.html" target="_top" xlink:title=" ">
<polygon fill="white" stroke="#bfbfbf" points="105,-394 0,-394 0,-342 105,-342 105,-394"/>
<text text-anchor="middle" x="52.5" y="-382" font-family="Helvetica,sans-Serif" font-size="10.00">{m5avatar::Drawable</text>
<text text-anchor="start" x="8" y="-371" font-family="Helvetica,sans-Serif" font-size="10.00">||+ ~Drawable()</text>
<text text-anchor="start" x="8" y="-360" font-family="Helvetica,sans-Serif" font-size="10.00">+ draw()</text>
<text text-anchor="middle" x="52.5" y="-349" font-family="Helvetica,sans-Serif" font-size="10.00">}</text>
</a>
</g>
</g>
<!-- Node3&#45;&gt;Node2 -->
<g id="edge2" class="edge">
<title>Node3&#45;&gt;Node2</title>
<path fill="none" stroke="#63b8ff" d="M65.22,-330.81C72.1,-311.21 80.9,-286.18 89.3,-262.25"/>
<polygon fill="none" stroke="#63b8ff" points="61.92,-329.64 61.9,-340.24 68.52,-331.96 61.92,-329.64"/>
</g>
<!-- Node4 -->
<g id="node4" class="node">
<title>Node4</title>
<g id="a_node4"><a xlink:href="classm5avatar_1_1_color_palette.html" target="_top" xlink:title=" ">
<polygon fill="white" stroke="#666666" points="241.5,-427 123.5,-427 123.5,-309 241.5,-309 241.5,-427"/>
<text text-anchor="middle" x="182.5" y="-415" font-family="Helvetica,sans-Serif" font-size="10.00">{m5avatar::ColorPalette</text>
<text text-anchor="start" x="131.5" y="-404" font-family="Helvetica,sans-Serif" font-size="10.00">||+ ColorPalette()</text>
<text text-anchor="start" x="131.5" y="-393" font-family="Helvetica,sans-Serif" font-size="10.00">+ ~ColorPalette()</text>
<text text-anchor="start" x="131.5" y="-382" font-family="Helvetica,sans-Serif" font-size="10.00">+ ColorPalette()</text>
<text text-anchor="start" x="131.5" y="-371" font-family="Helvetica,sans-Serif" font-size="10.00">+ operator=()</text>
<text text-anchor="start" x="131.5" y="-360" font-family="Helvetica,sans-Serif" font-size="10.00">+ get()</text>
<text text-anchor="start" x="131.5" y="-349" font-family="Helvetica,sans-Serif" font-size="10.00">+ set()</text>
<text text-anchor="start" x="131.5" y="-338" font-family="Helvetica,sans-Serif" font-size="10.00">+ contains()</text>
<text text-anchor="start" x="131.5" y="-327" font-family="Helvetica,sans-Serif" font-size="10.00">+ clear()</text>
<text text-anchor="middle" x="182.5" y="-316" font-family="Helvetica,sans-Serif" font-size="10.00">}</text>
</a>
</g>
</g>
<!-- Node4&#45;&gt;Node2 -->
<g id="edge3" class="edge">
<title>Node4&#45;&gt;Node2</title>
<path fill="none" stroke="#404040" d="M162.02,-308.72C158.18,-297.79 154.08,-286.12 149.99,-274.46"/>
<polygon fill="none" stroke="#404040" points="150,-274.5 144.24,-270.17 146.02,-263.18 151.79,-267.52 150,-274.5"/>
<text text-anchor="middle" x="175" y="-283" font-family="Helvetica,sans-Serif" font-size="10.00"> #palette_</text>
</g>
</g>
</svg>
