<?xml version="1.0" encoding="UTF-8" standalone="no"?>
<!DOCTYPE svg PUBLIC "-//W3C//DTD SVG 1.1//EN"
 "http://www.w3.org/Graphics/SVG/1.1/DTD/svg11.dtd">
<!-- Generated by graphviz version 7.0.5 (20221223.1930)
 -->
<!-- Title: m5avatar::BaseEye Pages: 1 -->
<!--zoomable 467 -->
<svg id="main" version="1.1" xmlns="http://www.w3.org/2000/svg" xmlns:xlink="http://www.w3.org/1999/xlink" xml:space="preserve" onload="init(evt)">
<style type="text/css"><![CDATA[
.edge:hover path { stroke: red; }
.edge:hover polygon { stroke: red; fill: red; }
]]></style>
<script type="text/javascript"><![CDATA[
var edges = document.getElementsByTagName('g');
if (edges && edges.length) {
  for (var i=0;i<edges.length;i++) {
    if (edges[i].id.substr(0,4)=='edge') {
      edges[i].setAttribute('class','edge');
    }
  }
}
]]></script>
        <defs>
                <circle id="rim" cx="0" cy="0" r="7"/>
                <circle id="rim2" cx="0" cy="0" r="3.5"/>
                <g id="zoomPlus">
                        <use xlink:href="#rim" fill="#404040">
                                <set attributeName="fill" to="#808080" begin="zoomplus.mouseover" end="zoomplus.mouseout"/>
                        </use>
                        <path d="M-4,0h8M0,-4v8" fill="none" stroke="white" stroke-width="1.5" pointer-events="none"/>
                </g>
                <g id="zoomMin">
                        <use xlink:href="#rim" fill="#404040">
                                <set attributeName="fill" to="#808080" begin="zoomminus.mouseover" end="zoomminus.mouseout"/>
                        </use>
                        <path d="M-4,0h8" fill="none" stroke="white" stroke-width="1.5" pointer-events="none"/>
                </g>
                <g id="dirArrow">
                        <path fill="none" stroke="white" stroke-width="1.5" d="M0,-3.0v7 M-2.5,-0.5L0,-3.0L2.5,-0.5"/>
                </g>
               <g id="resetDef">
                       <use xlink:href="#rim2" fill="#404040">
                               <set attributeName="fill" to="#808080" begin="reset.mouseover" end="reset.mouseout"/>
                       </use>
               </g>
        </defs>

<script type="text/javascript">
var viewWidth = 765;
var viewHeight = 467;
var sectionId = 'dynsection-0';
</script>
<script xlink:href="svgpan.js"/>
<svg id="graph" class="graph">
<g id="viewport">
<title>m5avatar::BaseEye</title>
<!-- Node1 -->
<g id="node1" class="node">
<title>Node1</title>
<g id="a_node1"><a xlink:title=" ">
<polygon fill="#999999" stroke="#666666" points="369,-371 266,-371 266,-165 369,-165 369,-371"/>
<text text-anchor="middle" x="317.5" y="-359" font-family="Helvetica,sans-Serif" font-size="10.00">{m5avatar::BaseEye</text>
<text text-anchor="start" x="274" y="-348" font-family="Helvetica,sans-Serif" font-size="10.00">|# height_</text>
<text text-anchor="start" x="274" y="-337" font-family="Helvetica,sans-Serif" font-size="10.00"># width_</text>
<text text-anchor="start" x="274" y="-326" font-family="Helvetica,sans-Serif" font-size="10.00"># is_left_</text>
<text text-anchor="start" x="274" y="-315" font-family="Helvetica,sans-Serif" font-size="10.00"># palette_</text>
<text text-anchor="start" x="274" y="-304" font-family="Helvetica,sans-Serif" font-size="10.00"># center_x_</text>
<text text-anchor="start" x="274" y="-293" font-family="Helvetica,sans-Serif" font-size="10.00"># center_y_</text>
<text text-anchor="start" x="274" y="-282" font-family="Helvetica,sans-Serif" font-size="10.00"># gaze_</text>
<text text-anchor="start" x="274" y="-271" font-family="Helvetica,sans-Serif" font-size="10.00"># iris_bg_color_</text>
<text text-anchor="start" x="274" y="-260" font-family="Helvetica,sans-Serif" font-size="10.00"># skin_color_</text>
<text text-anchor="start" x="274" y="-249" font-family="Helvetica,sans-Serif" font-size="10.00"># iris_x_</text>
<text text-anchor="start" x="274" y="-238" font-family="Helvetica,sans-Serif" font-size="10.00"># iris_y_</text>
<text text-anchor="start" x="274" y="-227" font-family="Helvetica,sans-Serif" font-size="10.00"># open_ratio_</text>
<text text-anchor="start" x="274" y="-216" font-family="Helvetica,sans-Serif" font-size="10.00"># expression_</text>
<text text-anchor="start" x="274" y="-205" font-family="Helvetica,sans-Serif" font-size="10.00">|+ BaseEye()</text>
<text text-anchor="start" x="274" y="-194" font-family="Helvetica,sans-Serif" font-size="10.00">+ BaseEye()</text>
<text text-anchor="start" x="274" y="-183" font-family="Helvetica,sans-Serif" font-size="10.00">+ update()</text>
<text text-anchor="middle" x="317.5" y="-172" font-family="Helvetica,sans-Serif" font-size="10.00">}</text>
</a>
</g>
</g>
<!-- Node3 -->
<g id="node3" class="node">
<title>Node3</title>
<g id="a_node3"><a xlink:href="classm5avatar_1_1_doggy_eye.html" target="_top" xlink:title=" ">
<polygon fill="white" stroke="#bfbfbf" points="107,-96 0,-96 0,-33 107,-33 107,-96"/>
<text text-anchor="middle" x="53.5" y="-84" font-family="Helvetica,sans-Serif" font-size="10.00">{m5avatar::DoggyEye</text>
<text text-anchor="start" x="8" y="-73" font-family="Helvetica,sans-Serif" font-size="10.00">||+ draw()</text>
<text text-anchor="start" x="8" y="-62" font-family="Helvetica,sans-Serif" font-size="10.00">+ BaseEye()</text>
<text text-anchor="start" x="8" y="-51" font-family="Helvetica,sans-Serif" font-size="10.00">+ BaseEye()</text>
<text text-anchor="middle" x="53.5" y="-40" font-family="Helvetica,sans-Serif" font-size="10.00">}</text>
</a>
</g>
</g>
<!-- Node1&#45;&gt;Node3 -->
<g id="edge2" class="edge">
<title>Node1&#45;&gt;Node3</title>
<path fill="none" stroke="#63b8ff" d="M256.04,-229.53C214.8,-203.31 160.07,-166.42 115.5,-129 103.7,-119.09 91.66,-107.24 81.36,-96.47"/>
<polygon fill="none" stroke="#63b8ff" points="254.08,-232.43 264.41,-234.81 257.82,-226.51 254.08,-232.43"/>
</g>
<!-- Node4 -->
<g id="node4" class="node">
<title>Node4</title>
<g id="a_node4"><a xlink:href="classm5avatar_1_1_ellipse_eye.html" target="_top" xlink:title=" ">
<polygon fill="white" stroke="#bfbfbf" points="234,-96 125,-96 125,-33 234,-33 234,-96"/>
<text text-anchor="middle" x="179.5" y="-84" font-family="Helvetica,sans-Serif" font-size="10.00">{m5avatar::EllipseEye</text>
<text text-anchor="start" x="133" y="-73" font-family="Helvetica,sans-Serif" font-size="10.00">||+ draw()</text>
<text text-anchor="start" x="133" y="-62" font-family="Helvetica,sans-Serif" font-size="10.00">+ BaseEye()</text>
<text text-anchor="start" x="133" y="-51" font-family="Helvetica,sans-Serif" font-size="10.00">+ BaseEye()</text>
<text text-anchor="middle" x="179.5" y="-40" font-family="Helvetica,sans-Serif" font-size="10.00">}</text>
</a>
</g>
</g>
<!-- Node1&#45;&gt;Node4 -->
<g id="edge3" class="edge">
<title>Node1&#45;&gt;Node4</title>
<path fill="none" stroke="#63b8ff" d="M259.13,-181.77C238.34,-151.42 216.24,-119.15 200.61,-96.33"/>
<polygon fill="none" stroke="#63b8ff" points="256.13,-183.59 264.67,-189.86 261.91,-179.63 256.13,-183.59"/>
</g>
<!-- Node5 -->
<g id="node5" class="node">
<title>Node5</title>
<g id="a_node5"><a xlink:href="classm5avatar_1_1_pink_demon_eye.html" target="_top" xlink:title=" ">
<polygon fill="white" stroke="#bfbfbf" points="383,-107 252,-107 252,-22 383,-22 383,-107"/>
<text text-anchor="middle" x="317.5" y="-95" font-family="Helvetica,sans-Serif" font-size="10.00">{m5avatar::PinkDemonEye</text>
<text text-anchor="start" x="260" y="-84" font-family="Helvetica,sans-Serif" font-size="10.00">||+ drawEyelid()</text>
<text text-anchor="start" x="260" y="-73" font-family="Helvetica,sans-Serif" font-size="10.00">+ overwriteOpenRatio()</text>
<text text-anchor="start" x="260" y="-62" font-family="Helvetica,sans-Serif" font-size="10.00">+ draw()</text>
<text text-anchor="start" x="260" y="-51" font-family="Helvetica,sans-Serif" font-size="10.00">+ BaseEye()</text>
<text text-anchor="start" x="260" y="-40" font-family="Helvetica,sans-Serif" font-size="10.00">+ BaseEye()</text>
<text text-anchor="middle" x="317.5" y="-29" font-family="Helvetica,sans-Serif" font-size="10.00">}</text>
</a>
</g>
</g>
<!-- Node1&#45;&gt;Node5 -->
<g id="edge4" class="edge">
<title>Node1&#45;&gt;Node5</title>
<path fill="none" stroke="#63b8ff" d="M317.5,-153.3C317.5,-136.8 317.5,-120.77 317.5,-107.02"/>
<polygon fill="none" stroke="#63b8ff" points="314,-153.26 317.5,-163.26 321,-153.26 314,-153.26"/>
</g>
<!-- Node6 -->
<g id="node6" class="node">
<title>Node6</title>
<g id="a_node6"><a xlink:href="classm5avatar_1_1_toon_eye1.html" target="_top" xlink:title=" ">
<polygon fill="white" stroke="#bfbfbf" points="570,-129 401,-129 401,0 570,0 570,-129"/>
<text text-anchor="middle" x="485.5" y="-117" font-family="Helvetica,sans-Serif" font-size="10.00">{m5avatar::ToonEye1</text>
<text text-anchor="start" x="409" y="-106" font-family="Helvetica,sans-Serif" font-size="10.00">||+ update2()</text>
<text text-anchor="start" x="409" y="-95" font-family="Helvetica,sans-Serif" font-size="10.00">+ drawEyelid()</text>
<text text-anchor="start" x="409" y="-84" font-family="Helvetica,sans-Serif" font-size="10.00">+ drawEyelash()</text>
<text text-anchor="start" x="409" y="-73" font-family="Helvetica,sans-Serif" font-size="10.00">+ overwriteOpenRatio()</text>
<text text-anchor="start" x="409" y="-62" font-family="Helvetica,sans-Serif" font-size="10.00">+ draw()</text>
<text text-anchor="start" x="409" y="-51" font-family="Helvetica,sans-Serif" font-size="10.00">+ BaseEye()</text>
<text text-anchor="start" x="409" y="-40" font-family="Helvetica,sans-Serif" font-size="10.00">+ BaseEye()</text>
<text text-anchor="start" x="409" y="-29" font-family="Helvetica,sans-Serif" font-size="10.00"># computeEyelidBaseWaypoints()</text>
<text text-anchor="start" x="409" y="-18" font-family="Helvetica,sans-Serif" font-size="10.00"># computeEyelashBaseWaypoints()</text>
<text text-anchor="middle" x="485.5" y="-7" font-family="Helvetica,sans-Serif" font-size="10.00">}</text>
</a>
</g>
</g>
<!-- Node1&#45;&gt;Node6 -->
<g id="edge5" class="edge">
<title>Node1&#45;&gt;Node6</title>
<path fill="none" stroke="#63b8ff" d="M376.64,-196.06C394.72,-174.38 414.49,-150.68 432.15,-129.48"/>
<polygon fill="none" stroke="#63b8ff" points="373.96,-193.81 370.25,-203.74 379.34,-198.3 373.96,-193.81"/>
</g>
<!-- Node7 -->
<g id="node7" class="node">
<title>Node7</title>
<g id="a_node7"><a xlink:href="classm5avatar_1_1_toon_eye2.html" target="_top" xlink:title=" ">
<polygon fill="white" stroke="#bfbfbf" points="757,-129 588,-129 588,0 757,0 757,-129"/>
<text text-anchor="middle" x="672.5" y="-117" font-family="Helvetica,sans-Serif" font-size="10.00">{m5avatar::ToonEye2</text>
<text text-anchor="start" x="596" y="-106" font-family="Helvetica,sans-Serif" font-size="10.00">||+ update2()</text>
<text text-anchor="start" x="596" y="-95" font-family="Helvetica,sans-Serif" font-size="10.00">+ drawEyelid()</text>
<text text-anchor="start" x="596" y="-84" font-family="Helvetica,sans-Serif" font-size="10.00">+ drawEyelash()</text>
<text text-anchor="start" x="596" y="-73" font-family="Helvetica,sans-Serif" font-size="10.00">+ overwriteOpenRatio()</text>
<text text-anchor="start" x="596" y="-62" font-family="Helvetica,sans-Serif" font-size="10.00">+ draw()</text>
<text text-anchor="start" x="596" y="-51" font-family="Helvetica,sans-Serif" font-size="10.00">+ BaseEye()</text>
<text text-anchor="start" x="596" y="-40" font-family="Helvetica,sans-Serif" font-size="10.00">+ BaseEye()</text>
<text text-anchor="start" x="596" y="-29" font-family="Helvetica,sans-Serif" font-size="10.00"># computeEyelidBaseWaypoints()</text>
<text text-anchor="start" x="596" y="-18" font-family="Helvetica,sans-Serif" font-size="10.00"># computeEyelashBaseWaypoints()</text>
<text text-anchor="middle" x="672.5" y="-7" font-family="Helvetica,sans-Serif" font-size="10.00">}</text>
</a>
</g>
</g>
<!-- Node1&#45;&gt;Node7 -->
<g id="edge6" class="edge">
<title>Node1&#45;&gt;Node7</title>
<path fill="none" stroke="#63b8ff" d="M379.24,-236.99C433.03,-210.25 512.68,-169.23 579.5,-129 582.18,-127.39 584.89,-125.73 587.61,-124.03"/>
<polygon fill="none" stroke="#63b8ff" points="377.93,-233.73 370.53,-241.3 381.04,-240 377.93,-233.73"/>
</g>
<!-- Node2 -->
<g id="node2" class="node">
<title>Node2</title>
<g id="a_node2"><a xlink:href="classm5avatar_1_1_drawable.html" target="_top" xlink:title=" ">
<polygon fill="white" stroke="#bfbfbf" points="370,-459 265,-459 265,-407 370,-407 370,-459"/>
<text text-anchor="middle" x="317.5" y="-447" font-family="Helvetica,sans-Serif" font-size="10.00">{m5avatar::Drawable</text>
<text text-anchor="start" x="273" y="-436" font-family="Helvetica,sans-Serif" font-size="10.00">||+ ~Drawable()</text>
<text text-anchor="start" x="273" y="-425" font-family="Helvetica,sans-Serif" font-size="10.00">+ draw()</text>
<text text-anchor="middle" x="317.5" y="-414" font-family="Helvetica,sans-Serif" font-size="10.00">}</text>
</a>
</g>
</g>
<!-- Node2&#45;&gt;Node1 -->
<g id="edge1" class="edge">
<title>Node2&#45;&gt;Node1</title>
<path fill="none" stroke="#63b8ff" d="M317.5,-395.2C317.5,-387.82 317.5,-379.72 317.5,-371.3"/>
<polygon fill="none" stroke="#63b8ff" points="314,-395.02 317.5,-405.02 321,-395.02 314,-395.02"/>
</g>
</g>
</svg>
        <g id="navigator" transform="translate(0 0)" fill="#404254">
                <rect fill="#f2f5e9" fill-opacity="0.5" stroke="#606060" stroke-width=".5" x="0" y="0" width="60" height="60"/>
                <use id="zoomplus" xlink:href="#zoomPlus" x="17" y="9" onmousedown="handleZoom(evt,'in')"/>
                <use id="zoomminus" xlink:href="#zoomMin" x="42" y="9" onmousedown="handleZoom(evt,'out')"/>
                <use id="reset" xlink:href="#resetDef" x="30" y="36" onmousedown="handleReset()"/>
                <g id="arrowUp" xlink:href="#dirArrow" transform="translate(30 24)" onmousedown="handlePan(0,-1)">
                  <use xlink:href="#rim" fill="#404040">
                        <set attributeName="fill" to="#808080" begin="arrowUp.mouseover" end="arrowUp.mouseout"/>
                  </use>
                  <path fill="none" stroke="white" stroke-width="1.5" d="M0,-3.0v7 M-2.5,-0.5L0,-3.0L2.5,-0.5"/>
                </g>
                <g id="arrowRight" xlink:href="#dirArrow" transform="rotate(90) translate(36 -43)" onmousedown="handlePan(1,0)">
                  <use xlink:href="#rim" fill="#404040">
                        <set attributeName="fill" to="#808080" begin="arrowRight.mouseover" end="arrowRight.mouseout"/>
                  </use>
                  <path fill="none" stroke="white" stroke-width="1.5" d="M0,-3.0v7 M-2.5,-0.5L0,-3.0L2.5,-0.5"/>
                </g>
                <g id="arrowDown" xlink:href="#dirArrow" transform="rotate(180) translate(-30 -48)" onmousedown="handlePan(0,1)">
                  <use xlink:href="#rim" fill="#404040">
                        <set attributeName="fill" to="#808080" begin="arrowDown.mouseover" end="arrowDown.mouseout"/>
                  </use>
                  <path fill="none" stroke="white" stroke-width="1.5" d="M0,-3.0v7 M-2.5,-0.5L0,-3.0L2.5,-0.5"/>
                </g>
                <g id="arrowLeft" xlink:href="#dirArrow" transform="rotate(270) translate(-36 17)" onmousedown="handlePan(-1,0)">
                  <use xlink:href="#rim" fill="#404040">
                        <set attributeName="fill" to="#808080" begin="arrowLeft.mouseover" end="arrowLeft.mouseout"/>
                  </use>
                  <path fill="none" stroke="white" stroke-width="1.5" d="M0,-3.0v7 M-2.5,-0.5L0,-3.0L2.5,-0.5"/>
                </g>
        </g>
        <svg viewBox="0 0 15 15" width="100%" height="30px" preserveAspectRatio="xMaxYMin meet">
         <g id="arrow_out" transform="scale(0.3 0.3)">
          <a xlink:href="classm5avatar_1_1_base_eye__inherit__graph_org.svg" target="_base">
           <rect id="button" ry="5" rx="5" y="6" x="6" height="38" width="38"
                fill="#f2f5e9" fill-opacity="0.5" stroke="#606060" stroke-width="1.0"/>
           <path id="arrow"
             d="M 11.500037,31.436501 C 11.940474,20.09759 22.043105,11.32322 32.158766,21.979434 L 37.068811,17.246167 C 37.068811,17.246167 37.088388,32 37.088388,32 L 22.160133,31.978069 C 22.160133,31.978069 26.997745,27.140456 26.997745,27.140456 C 18.528582,18.264221 13.291696,25.230495 11.500037,31.436501 z"
             style="fill:#404040;"/>
          </a>
         </g>
        </svg>
</svg>
