<?xml version="1.0" encoding="UTF-8" standalone="no"?>
<!DOCTYPE svg PUBLIC "-//W3C//DTD SVG 1.1//EN"
 "http://www.w3.org/Graphics/SVG/1.1/DTD/svg11.dtd">
<!-- Generated by graphviz version 7.0.5 (20221223.1930)
 -->
<!-- Title: m5avatar::Drawable Pages: 1 -->
<!--zoomable 467 -->
<svg id="main" version="1.1" xmlns="http://www.w3.org/2000/svg" xmlns:xlink="http://www.w3.org/1999/xlink" xml:space="preserve" onload="init(evt)">
<style type="text/css"><![CDATA[
.edge:hover path { stroke: red; }
.edge:hover polygon { stroke: red; fill: red; }
]]></style>
<script type="text/javascript"><![CDATA[
var edges = document.getElementsByTagName('g');
if (edges && edges.length) {
  for (var i=0;i<edges.length;i++) {
    if (edges[i].id.substr(0,4)=='edge') {
      edges[i].setAttribute('class','edge');
    }
  }
}
]]></script>
        <defs>
                <circle id="rim" cx="0" cy="0" r="7"/>
                <circle id="rim2" cx="0" cy="0" r="3.5"/>
                <g id="zoomPlus">
                        <use xlink:href="#rim" fill="#404040">
                                <set attributeName="fill" to="#808080" begin="zoomplus.mouseover" end="zoomplus.mouseout"/>
                        </use>
                        <path d="M-4,0h8M0,-4v8" fill="none" stroke="white" stroke-width="1.5" pointer-events="none"/>
                </g>
                <g id="zoomMin">
                        <use xlink:href="#rim" fill="#404040">
                                <set attributeName="fill" to="#808080" begin="zoomminus.mouseover" end="zoomminus.mouseout"/>
                        </use>
                        <path d="M-4,0h8" fill="none" stroke="white" stroke-width="1.5" pointer-events="none"/>
                </g>
                <g id="dirArrow">
                        <path fill="none" stroke="white" stroke-width="1.5" d="M0,-3.0v7 M-2.5,-0.5L0,-3.0L2.5,-0.5"/>
                </g>
               <g id="resetDef">
                       <use xlink:href="#rim2" fill="#404040">
                               <set attributeName="fill" to="#808080" begin="reset.mouseover" end="reset.mouseout"/>
                       </use>
               </g>
        </defs>

<script type="text/javascript">
var viewWidth = 1915;
var viewHeight = 467;
var sectionId = 'dynsection-0';
</script>
<script xlink:href="svgpan.js"/>
<svg id="graph" class="graph">
<g id="viewport">
<title>m5avatar::Drawable</title>
<!-- Node1 -->
<g id="node1" class="node">
<title>Node1</title>
<g id="a_node1"><a xlink:title=" ">
<polygon fill="#999999" stroke="#666666" points="1285,-459 1180,-459 1180,-407 1285,-407 1285,-459"/>
<text text-anchor="middle" x="1232.5" y="-447" font-family="Helvetica,sans-Serif" font-size="10.00">{m5avatar::Drawable</text>
<text text-anchor="start" x="1188" y="-436" font-family="Helvetica,sans-Serif" font-size="10.00">||+ ~Drawable()</text>
<text text-anchor="start" x="1188" y="-425" font-family="Helvetica,sans-Serif" font-size="10.00">+ draw()</text>
<text text-anchor="middle" x="1232.5" y="-414" font-family="Helvetica,sans-Serif" font-size="10.00">}</text>
</a>
</g>
</g>
<!-- Node2 -->
<g id="node2" class="node">
<title>Node2</title>
<g id="a_node2"><a xlink:href="classm5avatar_1_1_b_m_p_eye.html" target="_top" xlink:title=" ">
<polygon fill="white" stroke="#bfbfbf" points="300.5,-283 198.5,-283 198.5,-253 300.5,-253 300.5,-283"/>
<text text-anchor="middle" x="249.5" y="-271" font-family="Helvetica,sans-Serif" font-size="10.00">{m5avatar::BMPEye</text>
<text text-anchor="middle" x="249.5" y="-260" font-family="Helvetica,sans-Serif" font-size="10.00">||}</text>
</a>
</g>
</g>
<!-- Node1&#45;&gt;Node2 -->
<g id="edge1" class="edge">
<title>Node1&#45;&gt;Node2</title>
<path fill="none" stroke="#63b8ff" d="M1168.28,-431.2C970.92,-428.26 382.17,-415.81 309.5,-371 276.97,-350.94 260.04,-306.19 253.21,-283.21"/>
<polygon fill="none" stroke="#63b8ff" points="1168.04,-434.7 1178.09,-431.34 1168.14,-427.7 1168.04,-434.7"/>
</g>
<!-- Node3 -->
<g id="node3" class="node">
<title>Node3</title>
<g id="a_node3"><a xlink:href="classm5avatar_1_1_balloon.html" target="_top" xlink:title=" ">
<polygon fill="white" stroke="#bfbfbf" points="416,-310.5 319,-310.5 319,-225.5 416,-225.5 416,-310.5"/>
<text text-anchor="middle" x="367.5" y="-298.5" font-family="Helvetica,sans-Serif" font-size="10.00">{m5avatar::Balloon</text>
<text text-anchor="start" x="327" y="-287.5" font-family="Helvetica,sans-Serif" font-size="10.00">||+ Balloon()</text>
<text text-anchor="start" x="327" y="-276.5" font-family="Helvetica,sans-Serif" font-size="10.00">+ ~Balloon()</text>
<text text-anchor="start" x="327" y="-265.5" font-family="Helvetica,sans-Serif" font-size="10.00">+ Balloon()</text>
<text text-anchor="start" x="327" y="-254.5" font-family="Helvetica,sans-Serif" font-size="10.00">+ operator=()</text>
<text text-anchor="start" x="327" y="-243.5" font-family="Helvetica,sans-Serif" font-size="10.00">+ draw()</text>
<text text-anchor="middle" x="367.5" y="-232.5" font-family="Helvetica,sans-Serif" font-size="10.00">}</text>
</a>
</g>
</g>
<!-- Node1&#45;&gt;Node3 -->
<g id="edge2" class="edge">
<title>Node1&#45;&gt;Node3</title>
<path fill="none" stroke="#63b8ff" d="M1168.1,-430.61C987.72,-426.24 486.57,-410.63 424.5,-371 403.04,-357.3 388.92,-332.52 380.11,-310.81"/>
<polygon fill="none" stroke="#63b8ff" points="1167.92,-434.11 1178,-430.85 1168.09,-427.11 1167.92,-434.11"/>
</g>
<!-- Node4 -->
<g id="node4" class="node">
<title>Node4</title>
<g id="a_node4"><a xlink:href="classm5avatar_1_1_base_eye.html" target="_top" xlink:title=" ">
<polygon fill="white" stroke="#bfbfbf" points="537,-371 434,-371 434,-165 537,-165 537,-371"/>
<text text-anchor="middle" x="485.5" y="-359" font-family="Helvetica,sans-Serif" font-size="10.00">{m5avatar::BaseEye</text>
<text text-anchor="start" x="442" y="-348" font-family="Helvetica,sans-Serif" font-size="10.00">|# height_</text>
<text text-anchor="start" x="442" y="-337" font-family="Helvetica,sans-Serif" font-size="10.00"># width_</text>
<text text-anchor="start" x="442" y="-326" font-family="Helvetica,sans-Serif" font-size="10.00"># is_left_</text>
<text text-anchor="start" x="442" y="-315" font-family="Helvetica,sans-Serif" font-size="10.00"># palette_</text>
<text text-anchor="start" x="442" y="-304" font-family="Helvetica,sans-Serif" font-size="10.00"># center_x_</text>
<text text-anchor="start" x="442" y="-293" font-family="Helvetica,sans-Serif" font-size="10.00"># center_y_</text>
<text text-anchor="start" x="442" y="-282" font-family="Helvetica,sans-Serif" font-size="10.00"># gaze_</text>
<text text-anchor="start" x="442" y="-271" font-family="Helvetica,sans-Serif" font-size="10.00"># iris_bg_color_</text>
<text text-anchor="start" x="442" y="-260" font-family="Helvetica,sans-Serif" font-size="10.00"># skin_color_</text>
<text text-anchor="start" x="442" y="-249" font-family="Helvetica,sans-Serif" font-size="10.00"># iris_x_</text>
<text text-anchor="start" x="442" y="-238" font-family="Helvetica,sans-Serif" font-size="10.00"># iris_y_</text>
<text text-anchor="start" x="442" y="-227" font-family="Helvetica,sans-Serif" font-size="10.00"># open_ratio_</text>
<text text-anchor="start" x="442" y="-216" font-family="Helvetica,sans-Serif" font-size="10.00"># expression_</text>
<text text-anchor="start" x="442" y="-205" font-family="Helvetica,sans-Serif" font-size="10.00">|+ BaseEye()</text>
<text text-anchor="start" x="442" y="-194" font-family="Helvetica,sans-Serif" font-size="10.00">+ BaseEye()</text>
<text text-anchor="start" x="442" y="-183" font-family="Helvetica,sans-Serif" font-size="10.00">+ update()</text>
<text text-anchor="middle" x="485.5" y="-172" font-family="Helvetica,sans-Serif" font-size="10.00">}</text>
</a>
</g>
</g>
<!-- Node1&#45;&gt;Node4 -->
<g id="edge3" class="edge">
<title>Node1&#45;&gt;Node4</title>
<path fill="none" stroke="#63b8ff" d="M1168.4,-428.48C1076.33,-422.36 901.82,-406.82 757.5,-371 678.57,-351.41 591.16,-316.03 537.26,-292.53"/>
<polygon fill="none" stroke="#63b8ff" points="1168.04,-431.96 1178.25,-429.11 1168.49,-424.98 1168.04,-431.96"/>
</g>
<!-- Node9 -->
<g id="node9" class="node">
<title>Node9</title>
<g id="a_node9"><a xlink:href="classm5avatar_1_1_base_eyebrow.html" target="_top" xlink:title=" ">
<polygon fill="white" stroke="#bfbfbf" points="890.5,-349 766.5,-349 766.5,-187 890.5,-187 890.5,-349"/>
<text text-anchor="middle" x="828.5" y="-337" font-family="Helvetica,sans-Serif" font-size="10.00">{m5avatar::BaseEyebrow</text>
<text text-anchor="start" x="774.5" y="-326" font-family="Helvetica,sans-Serif" font-size="10.00">|# height_</text>
<text text-anchor="start" x="774.5" y="-315" font-family="Helvetica,sans-Serif" font-size="10.00"># width_</text>
<text text-anchor="start" x="774.5" y="-304" font-family="Helvetica,sans-Serif" font-size="10.00"># is_left_</text>
<text text-anchor="start" x="774.5" y="-293" font-family="Helvetica,sans-Serif" font-size="10.00"># primary_color_</text>
<text text-anchor="start" x="774.5" y="-282" font-family="Helvetica,sans-Serif" font-size="10.00"># secondary_color_</text>
<text text-anchor="start" x="774.5" y="-271" font-family="Helvetica,sans-Serif" font-size="10.00"># background_color_</text>
<text text-anchor="start" x="774.5" y="-260" font-family="Helvetica,sans-Serif" font-size="10.00"># center_x_</text>
<text text-anchor="start" x="774.5" y="-249" font-family="Helvetica,sans-Serif" font-size="10.00"># center_y_</text>
<text text-anchor="start" x="774.5" y="-238" font-family="Helvetica,sans-Serif" font-size="10.00"># expression_</text>
<text text-anchor="start" x="774.5" y="-227" font-family="Helvetica,sans-Serif" font-size="10.00">|+ BaseEyebrow()</text>
<text text-anchor="start" x="774.5" y="-216" font-family="Helvetica,sans-Serif" font-size="10.00">+ BaseEyebrow()</text>
<text text-anchor="start" x="774.5" y="-205" font-family="Helvetica,sans-Serif" font-size="10.00">+ update()</text>
<text text-anchor="middle" x="828.5" y="-194" font-family="Helvetica,sans-Serif" font-size="10.00">}</text>
</a>
</g>
</g>
<!-- Node1&#45;&gt;Node9 -->
<g id="edge8" class="edge">
<title>Node1&#45;&gt;Node9</title>
<path fill="none" stroke="#63b8ff" d="M1168.38,-423.99C1114.35,-415.62 1035.94,-399.59 972.5,-371 943.87,-358.1 915.08,-339.18 890.85,-321.12"/>
<polygon fill="none" stroke="#63b8ff" points="1167.62,-427.42 1178.03,-425.44 1168.66,-420.5 1167.62,-427.42"/>
</g>
<!-- Node13 -->
<g id="node13" class="node">
<title>Node13</title>
<g id="a_node13"><a xlink:href="classm5avatar_1_1_base_mouth.html" target="_top" xlink:title=" ">
<polygon fill="white" stroke="#bfbfbf" points="1095.5,-365.5 981.5,-365.5 981.5,-170.5 1095.5,-170.5 1095.5,-365.5"/>
<text text-anchor="middle" x="1038.5" y="-353.5" font-family="Helvetica,sans-Serif" font-size="10.00">{m5avatar::BaseMouth</text>
<text text-anchor="start" x="989.5" y="-342.5" font-family="Helvetica,sans-Serif" font-size="10.00">|# min_width_</text>
<text text-anchor="start" x="989.5" y="-331.5" font-family="Helvetica,sans-Serif" font-size="10.00"># max_width_</text>
<text text-anchor="start" x="989.5" y="-320.5" font-family="Helvetica,sans-Serif" font-size="10.00"># min_height_</text>
<text text-anchor="start" x="989.5" y="-309.5" font-family="Helvetica,sans-Serif" font-size="10.00"># max_height_</text>
<text text-anchor="start" x="989.5" y="-298.5" font-family="Helvetica,sans-Serif" font-size="10.00"># palette_</text>
<text text-anchor="start" x="989.5" y="-287.5" font-family="Helvetica,sans-Serif" font-size="10.00"># center_x_</text>
<text text-anchor="start" x="989.5" y="-276.5" font-family="Helvetica,sans-Serif" font-size="10.00"># center_y_</text>
<text text-anchor="start" x="989.5" y="-265.5" font-family="Helvetica,sans-Serif" font-size="10.00"># background_color_</text>
<text text-anchor="start" x="989.5" y="-254.5" font-family="Helvetica,sans-Serif" font-size="10.00"># skin_color_</text>
<text text-anchor="start" x="989.5" y="-243.5" font-family="Helvetica,sans-Serif" font-size="10.00"># open_ratio_</text>
<text text-anchor="start" x="989.5" y="-232.5" font-family="Helvetica,sans-Serif" font-size="10.00"># breath_</text>
<text text-anchor="start" x="989.5" y="-221.5" font-family="Helvetica,sans-Serif" font-size="10.00"># expression_</text>
<text text-anchor="start" x="989.5" y="-210.5" font-family="Helvetica,sans-Serif" font-size="10.00">|+ BaseMouth()</text>
<text text-anchor="start" x="989.5" y="-199.5" font-family="Helvetica,sans-Serif" font-size="10.00">+ BaseMouth()</text>
<text text-anchor="start" x="989.5" y="-188.5" font-family="Helvetica,sans-Serif" font-size="10.00">+ update()</text>
<text text-anchor="middle" x="1038.5" y="-177.5" font-family="Helvetica,sans-Serif" font-size="10.00">}</text>
</a>
</g>
</g>
<!-- Node1&#45;&gt;Node13 -->
<g id="edge12" class="edge">
<title>Node1&#45;&gt;Node13</title>
<path fill="none" stroke="#63b8ff" d="M1169.38,-410.16C1147.25,-400.47 1123.26,-387.48 1104.5,-371 1101.49,-368.36 1098.56,-365.54 1095.72,-362.6"/>
<polygon fill="none" stroke="#63b8ff" points="1167.76,-413.27 1178.33,-413.93 1170.47,-406.82 1167.76,-413.27"/>
</g>
<!-- Node18 -->
<g id="node18" class="node">
<title>Node18</title>
<g id="a_node18"><a xlink:href="classm5avatar_1_1_battery_icon.html" target="_top" xlink:title=" ">
<polygon fill="white" stroke="#bfbfbf" points="1227.5,-310.5 1113.5,-310.5 1113.5,-225.5 1227.5,-225.5 1227.5,-310.5"/>
<text text-anchor="middle" x="1170.5" y="-298.5" font-family="Helvetica,sans-Serif" font-size="10.00">{m5avatar::BatteryIcon</text>
<text text-anchor="start" x="1121.5" y="-287.5" font-family="Helvetica,sans-Serif" font-size="10.00">||+ BatteryIcon()</text>
<text text-anchor="start" x="1121.5" y="-276.5" font-family="Helvetica,sans-Serif" font-size="10.00">+ ~BatteryIcon()</text>
<text text-anchor="start" x="1121.5" y="-265.5" font-family="Helvetica,sans-Serif" font-size="10.00">+ BatteryIcon()</text>
<text text-anchor="start" x="1121.5" y="-254.5" font-family="Helvetica,sans-Serif" font-size="10.00">+ operator=()</text>
<text text-anchor="start" x="1121.5" y="-243.5" font-family="Helvetica,sans-Serif" font-size="10.00">+ draw()</text>
<text text-anchor="middle" x="1170.5" y="-232.5" font-family="Helvetica,sans-Serif" font-size="10.00">}</text>
</a>
</g>
</g>
<!-- Node1&#45;&gt;Node18 -->
<g id="edge17" class="edge">
<title>Node1&#45;&gt;Node18</title>
<path fill="none" stroke="#63b8ff" d="M1218.79,-395.97C1209.22,-370.79 1196.41,-337.11 1186.39,-310.76"/>
<polygon fill="none" stroke="#63b8ff" points="1215.45,-397.01 1222.27,-405.12 1221.99,-394.53 1215.45,-397.01"/>
</g>
<!-- Node19 -->
<g id="node19" class="node">
<title>Node19</title>
<g id="a_node19"><a xlink:href="classm5avatar_1_1_dog_eye.html" target="_top" xlink:title=" ">
<polygon fill="white" stroke="#bfbfbf" points="1343.5,-283 1245.5,-283 1245.5,-253 1343.5,-253 1343.5,-283"/>
<text text-anchor="middle" x="1294.5" y="-271" font-family="Helvetica,sans-Serif" font-size="10.00">{m5avatar::DogEye</text>
<text text-anchor="middle" x="1294.5" y="-260" font-family="Helvetica,sans-Serif" font-size="10.00">||}</text>
</a>
</g>
</g>
<!-- Node1&#45;&gt;Node19 -->
<g id="edge18" class="edge">
<title>Node1&#45;&gt;Node19</title>
<path fill="none" stroke="#63b8ff" d="M1246.15,-396.12C1259.65,-360.63 1279.61,-308.14 1289.11,-283.18"/>
<polygon fill="none" stroke="#63b8ff" points="1243.01,-394.53 1242.73,-405.12 1249.55,-397.01 1243.01,-394.53"/>
</g>
<!-- Node20 -->
<g id="node20" class="node">
<title>Node20</title>
<g id="a_node20"><a xlink:href="classm5avatar_1_1_dog_mouth.html" target="_top" xlink:title=" ">
<polygon fill="white" stroke="#bfbfbf" points="1471,-299.5 1362,-299.5 1362,-236.5 1471,-236.5 1471,-299.5"/>
<text text-anchor="middle" x="1416.5" y="-287.5" font-family="Helvetica,sans-Serif" font-size="10.00">{m5avatar::DogMouth</text>
<text text-anchor="start" x="1370" y="-276.5" font-family="Helvetica,sans-Serif" font-size="10.00">||+ DogMouth()</text>
<text text-anchor="start" x="1370" y="-265.5" font-family="Helvetica,sans-Serif" font-size="10.00">+ DogMouth()</text>
<text text-anchor="start" x="1370" y="-254.5" font-family="Helvetica,sans-Serif" font-size="10.00">+ draw()</text>
<text text-anchor="middle" x="1416.5" y="-243.5" font-family="Helvetica,sans-Serif" font-size="10.00">}</text>
</a>
</g>
</g>
<!-- Node1&#45;&gt;Node20 -->
<g id="edge19" class="edge">
<title>Node1&#45;&gt;Node20</title>
<path fill="none" stroke="#63b8ff" d="M1295.78,-407.72C1315.39,-398.22 1336.12,-385.97 1352.5,-371 1374.41,-350.98 1391.71,-321.78 1402.77,-299.75"/>
<polygon fill="none" stroke="#63b8ff" points="1294.31,-404.54 1286.72,-411.93 1297.27,-410.89 1294.31,-404.54"/>
</g>
<!-- Node21 -->
<g id="node21" class="node">
<title>Node21</title>
<g id="a_node21"><a xlink:href="classm5avatar_1_1_effect.html" target="_top" xlink:title=" ">
<polygon fill="white" stroke="#bfbfbf" points="1578,-310.5 1489,-310.5 1489,-225.5 1578,-225.5 1578,-310.5"/>
<text text-anchor="middle" x="1533.5" y="-298.5" font-family="Helvetica,sans-Serif" font-size="10.00">{m5avatar::Effect</text>
<text text-anchor="start" x="1497" y="-287.5" font-family="Helvetica,sans-Serif" font-size="10.00">||+ Effect()</text>
<text text-anchor="start" x="1497" y="-276.5" font-family="Helvetica,sans-Serif" font-size="10.00">+ ~Effect()</text>
<text text-anchor="start" x="1497" y="-265.5" font-family="Helvetica,sans-Serif" font-size="10.00">+ Effect()</text>
<text text-anchor="start" x="1497" y="-254.5" font-family="Helvetica,sans-Serif" font-size="10.00">+ operator=()</text>
<text text-anchor="start" x="1497" y="-243.5" font-family="Helvetica,sans-Serif" font-size="10.00">+ draw()</text>
<text text-anchor="middle" x="1533.5" y="-232.5" font-family="Helvetica,sans-Serif" font-size="10.00">}</text>
</a>
</g>
</g>
<!-- Node1&#45;&gt;Node21 -->
<g id="edge20" class="edge">
<title>Node1&#45;&gt;Node21</title>
<path fill="none" stroke="#63b8ff" d="M1296.62,-430.54C1350.8,-426.22 1427.79,-412.45 1480.5,-371 1499.72,-355.89 1512.68,-331.88 1520.97,-310.96"/>
<polygon fill="none" stroke="#63b8ff" points="1296.66,-427.03 1286.93,-431.22 1297.15,-434.01 1296.66,-427.03"/>
</g>
<!-- Node22 -->
<g id="node22" class="node">
<title>Node22</title>
<g id="a_node22"><a xlink:href="classm5avatar_1_1_eye.html" target="_top" xlink:title=" ">
<polygon fill="white" stroke="#bfbfbf" points="1676.5,-321.5 1596.5,-321.5 1596.5,-214.5 1676.5,-214.5 1676.5,-321.5"/>
<text text-anchor="middle" x="1636.5" y="-309.5" font-family="Helvetica,sans-Serif" font-size="10.00">{m5avatar::Eye</text>
<text text-anchor="start" x="1604.5" y="-298.5" font-family="Helvetica,sans-Serif" font-size="10.00">||+ Eye()</text>
<text text-anchor="start" x="1604.5" y="-287.5" font-family="Helvetica,sans-Serif" font-size="10.00">+ Eye()</text>
<text text-anchor="start" x="1604.5" y="-276.5" font-family="Helvetica,sans-Serif" font-size="10.00">+ Eye()</text>
<text text-anchor="start" x="1604.5" y="-265.5" font-family="Helvetica,sans-Serif" font-size="10.00">+ ~Eye()</text>
<text text-anchor="start" x="1604.5" y="-254.5" font-family="Helvetica,sans-Serif" font-size="10.00">+ Eye()</text>
<text text-anchor="start" x="1604.5" y="-243.5" font-family="Helvetica,sans-Serif" font-size="10.00">+ operator=()</text>
<text text-anchor="start" x="1604.5" y="-232.5" font-family="Helvetica,sans-Serif" font-size="10.00">+ draw()</text>
<text text-anchor="middle" x="1636.5" y="-221.5" font-family="Helvetica,sans-Serif" font-size="10.00">}</text>
</a>
</g>
</g>
<!-- Node1&#45;&gt;Node22 -->
<g id="edge21" class="edge">
<title>Node1&#45;&gt;Node22</title>
<path fill="none" stroke="#63b8ff" d="M1296.82,-427.96C1386.39,-421.18 1542.73,-404.79 1587.5,-371 1603.57,-358.87 1614.63,-340.1 1622.11,-321.95"/>
<polygon fill="none" stroke="#63b8ff" points="1296.67,-424.46 1286.96,-428.69 1297.19,-431.44 1296.67,-424.46"/>
</g>
<!-- Node23 -->
<g id="node23" class="node">
<title>Node23</title>
<g id="a_node23"><a xlink:href="classm5avatar_1_1_eyeblow.html" target="_top" xlink:title=" ">
<polygon fill="white" stroke="#bfbfbf" points="1796,-316 1695,-316 1695,-220 1796,-220 1796,-316"/>
<text text-anchor="middle" x="1745.5" y="-304" font-family="Helvetica,sans-Serif" font-size="10.00">{m5avatar::Eyeblow</text>
<text text-anchor="start" x="1703" y="-293" font-family="Helvetica,sans-Serif" font-size="10.00">||+ Eyeblow()</text>
<text text-anchor="start" x="1703" y="-282" font-family="Helvetica,sans-Serif" font-size="10.00">+ Eyeblow()</text>
<text text-anchor="start" x="1703" y="-271" font-family="Helvetica,sans-Serif" font-size="10.00">+ ~Eyeblow()</text>
<text text-anchor="start" x="1703" y="-260" font-family="Helvetica,sans-Serif" font-size="10.00">+ Eyeblow()</text>
<text text-anchor="start" x="1703" y="-249" font-family="Helvetica,sans-Serif" font-size="10.00">+ operator=()</text>
<text text-anchor="start" x="1703" y="-238" font-family="Helvetica,sans-Serif" font-size="10.00">+ draw()</text>
<text text-anchor="middle" x="1745.5" y="-227" font-family="Helvetica,sans-Serif" font-size="10.00">}</text>
</a>
</g>
</g>
<!-- Node1&#45;&gt;Node23 -->
<g id="edge22" class="edge">
<title>Node1&#45;&gt;Node23</title>
<path fill="none" stroke="#63b8ff" d="M1296.41,-430.18C1405.76,-425.98 1623.02,-412.51 1685.5,-371 1705.01,-358.04 1719.04,-336.39 1728.6,-316.37"/>
<polygon fill="none" stroke="#63b8ff" points="1296.59,-426.68 1286.73,-430.54 1296.85,-433.67 1296.59,-426.68"/>
</g>
<!-- Node24 -->
<g id="node24" class="node">
<title>Node24</title>
<g id="a_node24"><a xlink:href="classm5avatar_1_1_mouth.html" target="_top" xlink:title=" ">
<polygon fill="white" stroke="#bfbfbf" points="1906.5,-316 1814.5,-316 1814.5,-220 1906.5,-220 1906.5,-316"/>
<text text-anchor="middle" x="1860.5" y="-304" font-family="Helvetica,sans-Serif" font-size="10.00">{m5avatar::Mouth</text>
<text text-anchor="start" x="1822.5" y="-293" font-family="Helvetica,sans-Serif" font-size="10.00">||+ Mouth()</text>
<text text-anchor="start" x="1822.5" y="-282" font-family="Helvetica,sans-Serif" font-size="10.00">+ ~Mouth()</text>
<text text-anchor="start" x="1822.5" y="-271" font-family="Helvetica,sans-Serif" font-size="10.00">+ Mouth()</text>
<text text-anchor="start" x="1822.5" y="-260" font-family="Helvetica,sans-Serif" font-size="10.00">+ operator=()</text>
<text text-anchor="start" x="1822.5" y="-249" font-family="Helvetica,sans-Serif" font-size="10.00">+ Mouth()</text>
<text text-anchor="start" x="1822.5" y="-238" font-family="Helvetica,sans-Serif" font-size="10.00">+ draw()</text>
<text text-anchor="middle" x="1860.5" y="-227" font-family="Helvetica,sans-Serif" font-size="10.00">}</text>
</a>
</g>
</g>
<!-- Node1&#45;&gt;Node24 -->
<g id="edge23" class="edge">
<title>Node1&#45;&gt;Node24</title>
<path fill="none" stroke="#63b8ff" d="M1296.63,-432.52C1428.31,-432.44 1723.66,-425.93 1805.5,-371 1824.63,-358.16 1837.65,-336.4 1846.2,-316.27"/>
<polygon fill="none" stroke="#63b8ff" points="1296.69,-429.02 1286.68,-432.52 1296.68,-436.02 1296.69,-429.02"/>
</g>
<!-- Node5 -->
<g id="node5" class="node">
<title>Node5</title>
<g id="a_node5"><a xlink:href="classm5avatar_1_1_doggy_eye.html" target="_top" xlink:title=" ">
<polygon fill="white" stroke="#bfbfbf" points="107,-96 0,-96 0,-33 107,-33 107,-96"/>
<text text-anchor="middle" x="53.5" y="-84" font-family="Helvetica,sans-Serif" font-size="10.00">{m5avatar::DoggyEye</text>
<text text-anchor="start" x="8" y="-73" font-family="Helvetica,sans-Serif" font-size="10.00">||+ draw()</text>
<text text-anchor="start" x="8" y="-62" font-family="Helvetica,sans-Serif" font-size="10.00">+ BaseEye()</text>
<text text-anchor="start" x="8" y="-51" font-family="Helvetica,sans-Serif" font-size="10.00">+ BaseEye()</text>
<text text-anchor="middle" x="53.5" y="-40" font-family="Helvetica,sans-Serif" font-size="10.00">}</text>
</a>
</g>
</g>
<!-- Node4&#45;&gt;Node5 -->
<g id="edge4" class="edge">
<title>Node4&#45;&gt;Node5</title>
<path fill="none" stroke="#63b8ff" d="M424.81,-165.2C424.71,-165.13 424.6,-165.07 424.5,-165 308.39,-89.94 239.59,-189.97 115.5,-129 100.15,-121.46 86.46,-108.52 75.87,-96.28"/>
<polygon fill="none" stroke="#63b8ff" points="422.62,-167.94 432.71,-171.16 426.84,-162.35 422.62,-167.94"/>
</g>
<!-- Node6 -->
<g id="node6" class="node">
<title>Node6</title>
<g id="a_node6"><a xlink:href="classm5avatar_1_1_ellipse_eye.html" target="_top" xlink:title=" ">
<polygon fill="white" stroke="#bfbfbf" points="234,-96 125,-96 125,-33 234,-33 234,-96"/>
<text text-anchor="middle" x="179.5" y="-84" font-family="Helvetica,sans-Serif" font-size="10.00">{m5avatar::EllipseEye</text>
<text text-anchor="start" x="133" y="-73" font-family="Helvetica,sans-Serif" font-size="10.00">||+ draw()</text>
<text text-anchor="start" x="133" y="-62" font-family="Helvetica,sans-Serif" font-size="10.00">+ BaseEye()</text>
<text text-anchor="start" x="133" y="-51" font-family="Helvetica,sans-Serif" font-size="10.00">+ BaseEye()</text>
<text text-anchor="middle" x="179.5" y="-40" font-family="Helvetica,sans-Serif" font-size="10.00">}</text>
</a>
</g>
</g>
<!-- Node4&#45;&gt;Node6 -->
<g id="edge5" class="edge">
<title>Node4&#45;&gt;Node6</title>
<path fill="none" stroke="#63b8ff" d="M424.8,-165.21C424.7,-165.14 424.6,-165.07 424.5,-165 357.08,-117.52 315.16,-167.97 242.5,-129 227.58,-121 213.95,-108.3 203.21,-96.35"/>
<polygon fill="none" stroke="#63b8ff" points="422.55,-167.89 432.52,-171.45 426.95,-162.45 422.55,-167.89"/>
</g>
<!-- Node7 -->
<g id="node7" class="node">
<title>Node7</title>
<g id="a_node7"><a xlink:href="classm5avatar_1_1_pink_demon_eye.html" target="_top" xlink:title=" ">
<polygon fill="white" stroke="#bfbfbf" points="383,-107 252,-107 252,-22 383,-22 383,-107"/>
<text text-anchor="middle" x="317.5" y="-95" font-family="Helvetica,sans-Serif" font-size="10.00">{m5avatar::PinkDemonEye</text>
<text text-anchor="start" x="260" y="-84" font-family="Helvetica,sans-Serif" font-size="10.00">||+ drawEyelid()</text>
<text text-anchor="start" x="260" y="-73" font-family="Helvetica,sans-Serif" font-size="10.00">+ overwriteOpenRatio()</text>
<text text-anchor="start" x="260" y="-62" font-family="Helvetica,sans-Serif" font-size="10.00">+ draw()</text>
<text text-anchor="start" x="260" y="-51" font-family="Helvetica,sans-Serif" font-size="10.00">+ BaseEye()</text>
<text text-anchor="start" x="260" y="-40" font-family="Helvetica,sans-Serif" font-size="10.00">+ BaseEye()</text>
<text text-anchor="middle" x="317.5" y="-29" font-family="Helvetica,sans-Serif" font-size="10.00">}</text>
</a>
</g>
</g>
<!-- Node4&#45;&gt;Node7 -->
<g id="edge6" class="edge">
<title>Node4&#45;&gt;Node7</title>
<path fill="none" stroke="#63b8ff" d="M426.83,-167.92C426.05,-166.94 425.28,-165.96 424.5,-165 407.9,-144.49 387.13,-124.23 368.32,-107.39"/>
<polygon fill="none" stroke="#63b8ff" points="423.95,-169.92 432.77,-175.8 429.54,-165.71 423.95,-169.92"/>
</g>
<!-- Node8 -->
<g id="node8" class="node">
<title>Node8</title>
<g id="a_node8"><a xlink:href="classm5avatar_1_1_toon_eye1.html" target="_top" xlink:title=" ">
<polygon fill="white" stroke="#bfbfbf" points="570,-129 401,-129 401,0 570,0 570,-129"/>
<text text-anchor="middle" x="485.5" y="-117" font-family="Helvetica,sans-Serif" font-size="10.00">{m5avatar::ToonEye1</text>
<text text-anchor="start" x="409" y="-106" font-family="Helvetica,sans-Serif" font-size="10.00">||+ update2()</text>
<text text-anchor="start" x="409" y="-95" font-family="Helvetica,sans-Serif" font-size="10.00">+ drawEyelid()</text>
<text text-anchor="start" x="409" y="-84" font-family="Helvetica,sans-Serif" font-size="10.00">+ drawEyelash()</text>
<text text-anchor="start" x="409" y="-73" font-family="Helvetica,sans-Serif" font-size="10.00">+ overwriteOpenRatio()</text>
<text text-anchor="start" x="409" y="-62" font-family="Helvetica,sans-Serif" font-size="10.00">+ draw()</text>
<text text-anchor="start" x="409" y="-51" font-family="Helvetica,sans-Serif" font-size="10.00">+ BaseEye()</text>
<text text-anchor="start" x="409" y="-40" font-family="Helvetica,sans-Serif" font-size="10.00">+ BaseEye()</text>
<text text-anchor="start" x="409" y="-29" font-family="Helvetica,sans-Serif" font-size="10.00"># computeEyelidBaseWaypoints()</text>
<text text-anchor="start" x="409" y="-18" font-family="Helvetica,sans-Serif" font-size="10.00"># computeEyelashBaseWaypoints()</text>
<text text-anchor="middle" x="485.5" y="-7" font-family="Helvetica,sans-Serif" font-size="10.00">}</text>
</a>
</g>
</g>
<!-- Node4&#45;&gt;Node8 -->
<g id="edge7" class="edge">
<title>Node4&#45;&gt;Node8</title>
<path fill="none" stroke="#63b8ff" d="M485.5,-153.48C485.5,-145.23 485.5,-137.1 485.5,-129.31"/>
<polygon fill="none" stroke="#63b8ff" points="482,-153.26 485.5,-163.26 489,-153.26 482,-153.26"/>
</g>
<!-- Node10 -->
<g id="node10" class="node">
<title>Node10</title>
<g id="a_node10"><a xlink:href="classm5avatar_1_1_bow_eyebrow.html" target="_top" xlink:title=" ">
<polygon fill="white" stroke="#bfbfbf" points="709,-96 588,-96 588,-33 709,-33 709,-96"/>
<text text-anchor="middle" x="648.5" y="-84" font-family="Helvetica,sans-Serif" font-size="10.00">{m5avatar::BowEyebrow</text>
<text text-anchor="start" x="596" y="-73" font-family="Helvetica,sans-Serif" font-size="10.00">||+ draw()</text>
<text text-anchor="start" x="596" y="-62" font-family="Helvetica,sans-Serif" font-size="10.00">+ BaseEyebrow()</text>
<text text-anchor="start" x="596" y="-51" font-family="Helvetica,sans-Serif" font-size="10.00">+ BaseEyebrow()</text>
<text text-anchor="middle" x="648.5" y="-40" font-family="Helvetica,sans-Serif" font-size="10.00">}</text>
</a>
</g>
</g>
<!-- Node9&#45;&gt;Node10 -->
<g id="edge9" class="edge">
<title>Node9&#45;&gt;Node10</title>
<path fill="none" stroke="#63b8ff" d="M758.42,-188.55C729.66,-156.35 698.04,-120.96 676.13,-96.43"/>
<polygon fill="none" stroke="#63b8ff" points="755.77,-190.84 765.04,-195.96 760.99,-186.17 755.77,-190.84"/>
</g>
<!-- Node11 -->
<g id="node11" class="node">
<title>Node11</title>
<g id="a_node11"><a xlink:href="classm5avatar_1_1_ellipse_eyebrow.html" target="_top" xlink:title=" ">
<polygon fill="white" stroke="#bfbfbf" points="857.5,-96 727.5,-96 727.5,-33 857.5,-33 857.5,-96"/>
<text text-anchor="middle" x="792.5" y="-84" font-family="Helvetica,sans-Serif" font-size="10.00">{m5avatar::EllipseEyebrow</text>
<text text-anchor="start" x="735.5" y="-73" font-family="Helvetica,sans-Serif" font-size="10.00">||+ draw()</text>
<text text-anchor="start" x="735.5" y="-62" font-family="Helvetica,sans-Serif" font-size="10.00">+ BaseEyebrow()</text>
<text text-anchor="start" x="735.5" y="-51" font-family="Helvetica,sans-Serif" font-size="10.00">+ BaseEyebrow()</text>
<text text-anchor="middle" x="792.5" y="-40" font-family="Helvetica,sans-Serif" font-size="10.00">}</text>
</a>
</g>
</g>
<!-- Node9&#45;&gt;Node11 -->
<g id="edge10" class="edge">
<title>Node9&#45;&gt;Node11</title>
<path fill="none" stroke="#63b8ff" d="M812.15,-175.5C807.06,-146.97 801.78,-117.45 797.98,-96.18"/>
<polygon fill="none" stroke="#63b8ff" points="808.7,-176.06 813.9,-185.29 815.59,-174.83 808.7,-176.06"/>
</g>
<!-- Node12 -->
<g id="node12" class="node">
<title>Node12</title>
<g id="a_node12"><a xlink:href="classm5avatar_1_1_rect_eyebrow.html" target="_top" xlink:title=" ">
<polygon fill="white" stroke="#bfbfbf" points="997.5,-96 875.5,-96 875.5,-33 997.5,-33 997.5,-96"/>
<text text-anchor="middle" x="936.5" y="-84" font-family="Helvetica,sans-Serif" font-size="10.00">{m5avatar::RectEyebrow</text>
<text text-anchor="start" x="883.5" y="-73" font-family="Helvetica,sans-Serif" font-size="10.00">||+ draw()</text>
<text text-anchor="start" x="883.5" y="-62" font-family="Helvetica,sans-Serif" font-size="10.00">+ BaseEyebrow()</text>
<text text-anchor="start" x="883.5" y="-51" font-family="Helvetica,sans-Serif" font-size="10.00">+ BaseEyebrow()</text>
<text text-anchor="middle" x="936.5" y="-40" font-family="Helvetica,sans-Serif" font-size="10.00">}</text>
</a>
</g>
</g>
<!-- Node9&#45;&gt;Node12 -->
<g id="edge11" class="edge">
<title>Node9&#45;&gt;Node12</title>
<path fill="none" stroke="#63b8ff" d="M876.73,-177.01C892.27,-148.02 908.45,-117.83 920.06,-96.18"/>
<polygon fill="none" stroke="#63b8ff" points="873.85,-174.98 872.21,-185.45 880.02,-178.29 873.85,-174.98"/>
</g>
<!-- Node14 -->
<g id="node14" class="node">
<title>Node14</title>
<g id="a_node14"><a xlink:href="classm5avatar_1_1_doggy_mouth.html" target="_top" xlink:title=" ">
<polygon fill="white" stroke="#bfbfbf" points="1135,-96 1016,-96 1016,-33 1135,-33 1135,-96"/>
<text text-anchor="middle" x="1075.5" y="-84" font-family="Helvetica,sans-Serif" font-size="10.00">{m5avatar::DoggyMouth</text>
<text text-anchor="start" x="1024" y="-73" font-family="Helvetica,sans-Serif" font-size="10.00">||+ draw()</text>
<text text-anchor="start" x="1024" y="-62" font-family="Helvetica,sans-Serif" font-size="10.00">+ BaseMouth()</text>
<text text-anchor="start" x="1024" y="-51" font-family="Helvetica,sans-Serif" font-size="10.00">+ BaseMouth()</text>
<text text-anchor="middle" x="1075.5" y="-40" font-family="Helvetica,sans-Serif" font-size="10.00">}</text>
</a>
</g>
</g>
<!-- Node13&#45;&gt;Node14 -->
<g id="edge13" class="edge">
<title>Node13&#45;&gt;Node14</title>
<path fill="none" stroke="#63b8ff" d="M1058.37,-158.77C1062.6,-135.77 1066.73,-113.28 1069.87,-96.16"/>
<polygon fill="none" stroke="#63b8ff" points="1054.93,-158.13 1056.57,-168.6 1061.82,-159.39 1054.93,-158.13"/>
</g>
<!-- Node15 -->
<g id="node15" class="node">
<title>Node15</title>
<g id="a_node15"><a xlink:href="classm5avatar_1_1_omega_mouth.html" target="_top" xlink:title=" ">
<polygon fill="white" stroke="#bfbfbf" points="1276,-96 1153,-96 1153,-33 1276,-33 1276,-96"/>
<text text-anchor="middle" x="1214.5" y="-84" font-family="Helvetica,sans-Serif" font-size="10.00">{m5avatar::OmegaMouth</text>
<text text-anchor="start" x="1161" y="-73" font-family="Helvetica,sans-Serif" font-size="10.00">||+ draw()</text>
<text text-anchor="start" x="1161" y="-62" font-family="Helvetica,sans-Serif" font-size="10.00">+ BaseMouth()</text>
<text text-anchor="start" x="1161" y="-51" font-family="Helvetica,sans-Serif" font-size="10.00">+ BaseMouth()</text>
<text text-anchor="middle" x="1214.5" y="-40" font-family="Helvetica,sans-Serif" font-size="10.00">}</text>
</a>
</g>
</g>
<!-- Node13&#45;&gt;Node15 -->
<g id="edge14" class="edge">
<title>Node13&#45;&gt;Node15</title>
<path fill="none" stroke="#63b8ff" d="M1103.15,-166.59C1103.6,-166.06 1104.05,-165.53 1104.5,-165 1120.02,-146.8 1126.75,-145.03 1144.5,-129 1156.31,-118.33 1169.22,-106.63 1180.7,-96.21"/>
<polygon fill="none" stroke="#63b8ff" points="1100.49,-164.31 1096.93,-174.29 1105.94,-168.72 1100.49,-164.31"/>
</g>
<!-- Node16 -->
<g id="node16" class="node">
<title>Node16</title>
<g id="a_node16"><a xlink:href="classm5avatar_1_1_rect_mouth.html" target="_top" xlink:title=" ">
<polygon fill="white" stroke="#bfbfbf" points="1406.5,-96 1294.5,-96 1294.5,-33 1406.5,-33 1406.5,-96"/>
<text text-anchor="middle" x="1350.5" y="-84" font-family="Helvetica,sans-Serif" font-size="10.00">{m5avatar::RectMouth</text>
<text text-anchor="start" x="1302.5" y="-73" font-family="Helvetica,sans-Serif" font-size="10.00">||+ draw()</text>
<text text-anchor="start" x="1302.5" y="-62" font-family="Helvetica,sans-Serif" font-size="10.00">+ BaseMouth()</text>
<text text-anchor="start" x="1302.5" y="-51" font-family="Helvetica,sans-Serif" font-size="10.00">+ BaseMouth()</text>
<text text-anchor="middle" x="1350.5" y="-40" font-family="Helvetica,sans-Serif" font-size="10.00">}</text>
</a>
</g>
</g>
<!-- Node13&#45;&gt;Node16 -->
<g id="edge15" class="edge">
<title>Node13&#45;&gt;Node16</title>
<path fill="none" stroke="#63b8ff" d="M1105.57,-165.32C1175.91,-122.92 1216.06,-165.6 1285.5,-129 1300.71,-120.98 1314.75,-108.28 1325.86,-96.34"/>
<polygon fill="none" stroke="#63b8ff" points="1103.68,-162.37 1097.18,-170.73 1107.48,-168.25 1103.68,-162.37"/>
</g>
<!-- Node17 -->
<g id="node17" class="node">
<title>Node17</title>
<g id="a_node17"><a xlink:href="classm5avatar_1_1_u_shape_mouth.html" target="_top" xlink:title=" ">
<polygon fill="white" stroke="#bfbfbf" points="1552,-96 1425,-96 1425,-33 1552,-33 1552,-96"/>
<text text-anchor="middle" x="1488.5" y="-84" font-family="Helvetica,sans-Serif" font-size="10.00">{m5avatar::UShapeMouth</text>
<text text-anchor="start" x="1433" y="-73" font-family="Helvetica,sans-Serif" font-size="10.00">||+ draw()</text>
<text text-anchor="start" x="1433" y="-62" font-family="Helvetica,sans-Serif" font-size="10.00">+ BaseMouth()</text>
<text text-anchor="start" x="1433" y="-51" font-family="Helvetica,sans-Serif" font-size="10.00">+ BaseMouth()</text>
<text text-anchor="middle" x="1488.5" y="-40" font-family="Helvetica,sans-Serif" font-size="10.00">}</text>
</a>
</g>
</g>
<!-- Node13&#45;&gt;Node17 -->
<g id="edge16" class="edge">
<title>Node13&#45;&gt;Node17</title>
<path fill="none" stroke="#63b8ff" d="M1105.26,-165.5C1226.06,-96.23 1291.43,-183.75 1415.5,-129 1432.56,-121.47 1448.55,-108.53 1461.19,-96.29"/>
<polygon fill="none" stroke="#63b8ff" points="1103.77,-162.31 1097,-170.46 1107.37,-168.31 1103.77,-162.31"/>
</g>
</g>
</svg>
        <g id="navigator" transform="translate(0 0)" fill="#404254">
                <rect fill="#f2f5e9" fill-opacity="0.5" stroke="#606060" stroke-width=".5" x="0" y="0" width="60" height="60"/>
                <use id="zoomplus" xlink:href="#zoomPlus" x="17" y="9" onmousedown="handleZoom(evt,'in')"/>
                <use id="zoomminus" xlink:href="#zoomMin" x="42" y="9" onmousedown="handleZoom(evt,'out')"/>
                <use id="reset" xlink:href="#resetDef" x="30" y="36" onmousedown="handleReset()"/>
                <g id="arrowUp" xlink:href="#dirArrow" transform="translate(30 24)" onmousedown="handlePan(0,-1)">
                  <use xlink:href="#rim" fill="#404040">
                        <set attributeName="fill" to="#808080" begin="arrowUp.mouseover" end="arrowUp.mouseout"/>
                  </use>
                  <path fill="none" stroke="white" stroke-width="1.5" d="M0,-3.0v7 M-2.5,-0.5L0,-3.0L2.5,-0.5"/>
                </g>
                <g id="arrowRight" xlink:href="#dirArrow" transform="rotate(90) translate(36 -43)" onmousedown="handlePan(1,0)">
                  <use xlink:href="#rim" fill="#404040">
                        <set attributeName="fill" to="#808080" begin="arrowRight.mouseover" end="arrowRight.mouseout"/>
                  </use>
                  <path fill="none" stroke="white" stroke-width="1.5" d="M0,-3.0v7 M-2.5,-0.5L0,-3.0L2.5,-0.5"/>
                </g>
                <g id="arrowDown" xlink:href="#dirArrow" transform="rotate(180) translate(-30 -48)" onmousedown="handlePan(0,1)">
                  <use xlink:href="#rim" fill="#404040">
                        <set attributeName="fill" to="#808080" begin="arrowDown.mouseover" end="arrowDown.mouseout"/>
                  </use>
                  <path fill="none" stroke="white" stroke-width="1.5" d="M0,-3.0v7 M-2.5,-0.5L0,-3.0L2.5,-0.5"/>
                </g>
                <g id="arrowLeft" xlink:href="#dirArrow" transform="rotate(270) translate(-36 17)" onmousedown="handlePan(-1,0)">
                  <use xlink:href="#rim" fill="#404040">
                        <set attributeName="fill" to="#808080" begin="arrowLeft.mouseover" end="arrowLeft.mouseout"/>
                  </use>
                  <path fill="none" stroke="white" stroke-width="1.5" d="M0,-3.0v7 M-2.5,-0.5L0,-3.0L2.5,-0.5"/>
                </g>
        </g>
        <svg viewBox="0 0 15 15" width="100%" height="30px" preserveAspectRatio="xMaxYMin meet">
         <g id="arrow_out" transform="scale(0.3 0.3)">
          <a xlink:href="classm5avatar_1_1_drawable__inherit__graph_org.svg" target="_base">
           <rect id="button" ry="5" rx="5" y="6" x="6" height="38" width="38"
                fill="#f2f5e9" fill-opacity="0.5" stroke="#606060" stroke-width="1.0"/>
           <path id="arrow"
             d="M 11.500037,31.436501 C 11.940474,20.09759 22.043105,11.32322 32.158766,21.979434 L 37.068811,17.246167 C 37.068811,17.246167 37.088388,32 37.088388,32 L 22.160133,31.978069 C 22.160133,31.978069 26.997745,27.140456 26.997745,27.140456 C 18.528582,18.264221 13.291696,25.230495 11.500037,31.436501 z"
             style="fill:#404040;"/>
          </a>
         </g>
        </svg>
</svg>
