<?xml version="1.0" encoding="UTF-8" standalone="no"?>
<!DOCTYPE svg PUBLIC "-//W3C//DTD SVG 1.1//EN"
 "http://www.w3.org/Graphics/SVG/1.1/DTD/svg11.dtd">
<!-- Generated by graphviz version 7.0.5 (20221223.1930)
 -->
<!-- Title: Graphical Class Hierarchy Pages: 1 -->
<svg width="261pt" height="360pt"
 viewBox="0.00 0.00 261.00 360.00" xmlns="http://www.w3.org/2000/svg" xmlns:xlink="http://www.w3.org/1999/xlink">
<g id="graph0" class="graph" transform="scale(1 1) rotate(0) translate(4 356)">
<title>Graphical Class Hierarchy</title>
<!-- Node0 -->
<g id="node1" class="node">
<title>Node0</title>
<g id="a_node1"><a xlink:href="classm5avatar_1_1_face.html" target="_top" xlink:title=" ">
<polygon fill="white" stroke="#666666" points="83,-185 0,-185 0,-166 83,-166 83,-185"/>
<text text-anchor="middle" x="41.5" y="-173" font-family="Helvetica,sans-Serif" font-size="10.00">m5avatar::Face</text>
</a>
</g>
</g>
<!-- Node1 -->
<g id="node2" class="node">
<title>Node1</title>
<g id="a_node2"><a xlink:href="classm5avatar_1_1_b_m_p_face.html" target="_top" xlink:title=" ">
<polygon fill="white" stroke="#666666" points="238.5,-352 133.5,-352 133.5,-333 238.5,-333 238.5,-352"/>
<text text-anchor="middle" x="186" y="-340" font-family="Helvetica,sans-Serif" font-size="10.00">m5avatar::BMPFace</text>
</a>
</g>
</g>
<!-- Node0&#45;&gt;Node1 -->
<g id="edge1" class="edge">
<title>Node0&#45;&gt;Node1</title>
<path fill="none" stroke="#63b8ff" d="M47.33,-196C56,-228.27 77.34,-290.72 119,-324.5 123.24,-327.94 128.09,-330.73 133.19,-332.98"/>
<polygon fill="#63b8ff" stroke="#63b8ff" points="50.82,-195.54 44.98,-186.7 44.03,-197.25 50.82,-195.54"/>
</g>
<!-- Node2 -->
<g id="node3" class="node">
<title>Node2</title>
<g id="a_node3"><a xlink:href="classm5avatar_1_1_dog_face.html" target="_top" xlink:title=" ">
<polygon fill="white" stroke="#666666" points="236.5,-315 135.5,-315 135.5,-296 236.5,-296 236.5,-315"/>
<text text-anchor="middle" x="186" y="-303" font-family="Helvetica,sans-Serif" font-size="10.00">m5avatar::DogFace</text>
</a>
</g>
</g>
<!-- Node0&#45;&gt;Node2 -->
<g id="edge2" class="edge">
<title>Node0&#45;&gt;Node2</title>
<path fill="none" stroke="#63b8ff" d="M50.86,-195.54C62.43,-220.81 85.74,-263.81 119,-287.5 123.93,-291.01 129.52,-293.84 135.31,-296.12"/>
<polygon fill="#63b8ff" stroke="#63b8ff" points="54.2,-194.45 46.98,-186.7 47.79,-197.26 54.2,-194.45"/>
</g>
<!-- Node3 -->
<g id="node4" class="node">
<title>Node3</title>
<g id="a_node4"><a xlink:href="classm5avatar_1_1_doggy_face.html" target="_top" xlink:title=" ">
<polygon fill="white" stroke="#666666" points="241,-278 131,-278 131,-259 241,-259 241,-278"/>
<text text-anchor="middle" x="186" y="-266" font-family="Helvetica,sans-Serif" font-size="10.00">m5avatar::DoggyFace</text>
</a>
</g>
</g>
<!-- Node0&#45;&gt;Node3 -->
<g id="edge3" class="edge">
<title>Node0&#45;&gt;Node3</title>
<path fill="none" stroke="#63b8ff" d="M56.63,-193.97C70.66,-211.07 93.68,-235.97 119,-250.5 124.56,-253.69 130.72,-256.34 136.96,-258.53"/>
<polygon fill="#63b8ff" stroke="#63b8ff" points="59.71,-192.23 50.74,-186.58 54.23,-196.58 59.71,-192.23"/>
</g>
<!-- Node4 -->
<g id="node5" class="node">
<title>Node4</title>
<g id="a_node5"><a xlink:href="classm5avatar_1_1_girly_face.html" target="_top" xlink:title=" ">
<polygon fill="white" stroke="#666666" points="237.5,-241 134.5,-241 134.5,-222 237.5,-222 237.5,-241"/>
<text text-anchor="middle" x="186" y="-229" font-family="Helvetica,sans-Serif" font-size="10.00">m5avatar::GirlyFace</text>
</a>
</g>
</g>
<!-- Node0&#45;&gt;Node4 -->
<g id="edge4" class="edge">
<title>Node0&#45;&gt;Node4</title>
<path fill="none" stroke="#63b8ff" d="M70.13,-190.86C84.42,-198.38 102.32,-207.15 119,-213.5 126.88,-216.5 135.47,-219.22 143.76,-221.58"/>
<polygon fill="#63b8ff" stroke="#63b8ff" points="71.79,-187.78 61.32,-186.13 68.48,-193.94 71.79,-187.78"/>
</g>
<!-- Node5 -->
<g id="node6" class="node">
<title>Node5</title>
<g id="a_node6"><a xlink:href="classm5avatar_1_1_girly_face2.html" target="_top" xlink:title=" ">
<polygon fill="white" stroke="#666666" points="240,-204 132,-204 132,-185 240,-185 240,-204"/>
<text text-anchor="middle" x="186" y="-192" font-family="Helvetica,sans-Serif" font-size="10.00">m5avatar::GirlyFace2</text>
</a>
</g>
</g>
<!-- Node0&#45;&gt;Node5 -->
<g id="edge5" class="edge">
<title>Node0&#45;&gt;Node5</title>
<path fill="none" stroke="#63b8ff" d="M94.61,-182.45C106.68,-184.06 119.54,-185.77 131.66,-187.39"/>
<polygon fill="#63b8ff" stroke="#63b8ff" points="95.21,-179 84.84,-181.14 94.28,-185.94 95.21,-179"/>
</g>
<!-- Node6 -->
<g id="node7" class="node">
<title>Node6</title>
<g id="a_node7"><a xlink:href="classm5avatar_1_1_oled_face.html" target="_top" xlink:title=" ">
<polygon fill="white" stroke="#666666" points="238,-167 134,-167 134,-148 238,-148 238,-167"/>
<text text-anchor="middle" x="186" y="-155" font-family="Helvetica,sans-Serif" font-size="10.00">m5avatar::OledFace</text>
</a>
</g>
</g>
<!-- Node0&#45;&gt;Node6 -->
<g id="edge6" class="edge">
<title>Node0&#45;&gt;Node6</title>
<path fill="none" stroke="#63b8ff" d="M94.73,-168.9C107.46,-167.29 121.06,-165.58 133.75,-163.97"/>
<polygon fill="#63b8ff" stroke="#63b8ff" points="94.32,-165.43 84.84,-170.15 95.2,-172.37 94.32,-165.43"/>
</g>
<!-- Node7 -->
<g id="node8" class="node">
<title>Node7</title>
<g id="a_node8"><a xlink:href="classm5avatar_1_1_omega_face.html" target="_top" xlink:title="face template for &quot;OωO&quot; face">
<polygon fill="white" stroke="#666666" points="243.5,-130 128.5,-130 128.5,-111 243.5,-111 243.5,-130"/>
<text text-anchor="middle" x="186" y="-118" font-family="Helvetica,sans-Serif" font-size="10.00">m5avatar::OmegaFace</text>
</a>
</g>
</g>
<!-- Node0&#45;&gt;Node7 -->
<g id="edge7" class="edge">
<title>Node0&#45;&gt;Node7</title>
<path fill="none" stroke="#63b8ff" d="M71.4,-160.56C85.53,-153.61 102.91,-145.56 119,-139.5 127.82,-136.18 137.48,-133.1 146.62,-130.43"/>
<polygon fill="#63b8ff" stroke="#63b8ff" points="70.04,-157.33 62.67,-164.94 73.18,-163.59 70.04,-157.33"/>
</g>
<!-- Node8 -->
<g id="node9" class="node">
<title>Node8</title>
<g id="a_node9"><a xlink:href="classm5avatar_1_1_pink_demon_face.html" target="_top" xlink:title=" ">
<polygon fill="white" stroke="#666666" points="253,-93 119,-93 119,-74 253,-74 253,-93"/>
<text text-anchor="middle" x="186" y="-81" font-family="Helvetica,sans-Serif" font-size="10.00">m5avatar::PinkDemonFace</text>
</a>
</g>
</g>
<!-- Node0&#45;&gt;Node8 -->
<g id="edge8" class="edge">
<title>Node0&#45;&gt;Node8</title>
<path fill="none" stroke="#63b8ff" d="M57.17,-157.15C71.34,-140.59 94.25,-116.71 119,-102.5 125.31,-98.88 132.36,-95.9 139.44,-93.47"/>
<polygon fill="#63b8ff" stroke="#63b8ff" points="54.55,-154.83 50.86,-164.76 59.93,-159.3 54.55,-154.83"/>
</g>
<!-- Node9 -->
<g id="node10" class="node">
<title>Node9</title>
<g id="a_node10"><a xlink:href="classm5avatar_1_1_simple_face.html" target="_top" xlink:title="face template for &quot;o_o&quot;">
<polygon fill="white" stroke="#666666" points="242.5,-56 129.5,-56 129.5,-37 242.5,-37 242.5,-56"/>
<text text-anchor="middle" x="186" y="-44" font-family="Helvetica,sans-Serif" font-size="10.00">m5avatar::SimpleFace</text>
</a>
</g>
</g>
<!-- Node0&#45;&gt;Node9 -->
<g id="edge9" class="edge">
<title>Node0&#45;&gt;Node9</title>
<path fill="none" stroke="#63b8ff" d="M51.34,-155.18C63.18,-130.35 86.52,-88.77 119,-65.5 124.14,-61.82 129.98,-58.85 136.01,-56.45"/>
<polygon fill="#63b8ff" stroke="#63b8ff" points="48.19,-153.65 47.22,-164.2 54.56,-156.56 48.19,-153.65"/>
</g>
<!-- Node10 -->
<g id="node11" class="node">
<title>Node10</title>
<g id="a_node11"><a xlink:href="classm5avatar_1_1_toon_face1.html" target="_top" xlink:title=" ">
<polygon fill="white" stroke="#666666" points="241,-19 131,-19 131,0 241,0 241,-19"/>
<text text-anchor="middle" x="186" y="-7" font-family="Helvetica,sans-Serif" font-size="10.00">m5avatar::ToonFace1</text>
</a>
</g>
</g>
<!-- Node0&#45;&gt;Node10 -->
<g id="edge10" class="edge">
<title>Node0&#45;&gt;Node10</title>
<path fill="none" stroke="#63b8ff" d="M47.71,-154.45C56.73,-122.46 78.31,-61.79 119,-28.5 123.52,-24.8 128.73,-21.82 134.2,-19.42"/>
<polygon fill="#63b8ff" stroke="#63b8ff" points="44.34,-153.52 45.16,-164.09 51.1,-155.32 44.34,-153.52"/>
</g>
</g>
</svg>
