<?xml version="1.0" encoding="UTF-8" standalone="no"?>
<!DOCTYPE svg PUBLIC "-//W3C//DTD SVG 1.1//EN"
 "http://www.w3.org/Graphics/SVG/1.1/DTD/svg11.dtd">
<!-- Generated by graphviz version 7.0.5 (20221223.1930)
 -->
<!-- Title: Graphical Class Hierarchy Pages: 1 -->
<svg width="431pt" height="572pt"
 viewBox="0.00 0.00 431.00 572.00" xmlns="http://www.w3.org/2000/svg" xmlns:xlink="http://www.w3.org/1999/xlink">
<g id="graph0" class="graph" transform="scale(1 1) rotate(0) translate(4 568)">
<title>Graphical Class Hierarchy</title>
<!-- Node0 -->
<g id="node1" class="node">
<title>Node0</title>
<g id="a_node1"><a xlink:href="classm5avatar_1_1_drawable.html" target="_top" xlink:title=" ">
<polygon fill="white" stroke="#666666" points="102,-222 0,-222 0,-203 102,-203 102,-222"/>
<text text-anchor="middle" x="51" y="-210" font-family="Helvetica,sans-Serif" font-size="10.00">m5avatar::Drawable</text>
</a>
</g>
</g>
<!-- Node1 -->
<g id="node2" class="node">
<title>Node1</title>
<g id="a_node2"><a xlink:href="classm5avatar_1_1_b_m_p_eye.html" target="_top" xlink:title=" ">
<polygon fill="white" stroke="#666666" points="248,-508 149,-508 149,-489 248,-489 248,-508"/>
<text text-anchor="middle" x="198.5" y="-496" font-family="Helvetica,sans-Serif" font-size="10.00">m5avatar::BMPEye</text>
</a>
</g>
</g>
<!-- Node0&#45;&gt;Node1 -->
<g id="edge1" class="edge">
<title>Node0&#45;&gt;Node1</title>
<path fill="none" stroke="#63b8ff" d="M52.46,-233.72C54.72,-283.96 67.49,-411.16 138,-480.5 141.31,-483.75 145.18,-486.42 149.34,-488.61"/>
<polygon fill="#63b8ff" stroke="#63b8ff" points="55.96,-233.83 52.13,-223.95 48.97,-234.06 55.96,-233.83"/>
</g>
<!-- Node2 -->
<g id="node3" class="node">
<title>Node2</title>
<g id="a_node3"><a xlink:href="classm5avatar_1_1_balloon.html" target="_top" xlink:title=" ">
<polygon fill="white" stroke="#666666" points="245.5,-471 151.5,-471 151.5,-452 245.5,-452 245.5,-471"/>
<text text-anchor="middle" x="198.5" y="-459" font-family="Helvetica,sans-Serif" font-size="10.00">m5avatar::Balloon</text>
</a>
</g>
</g>
<!-- Node0&#45;&gt;Node2 -->
<g id="edge2" class="edge">
<title>Node0&#45;&gt;Node2</title>
<path fill="none" stroke="#63b8ff" d="M53.7,-233.48C58.5,-278.58 76.11,-385.37 138,-443.5 141.85,-447.12 146.41,-450.01 151.27,-452.33"/>
<polygon fill="#63b8ff" stroke="#63b8ff" points="57.19,-233.17 52.77,-223.54 50.22,-233.83 57.19,-233.17"/>
</g>
<!-- Node3 -->
<g id="node4" class="node">
<title>Node3</title>
<g id="a_node4"><a xlink:href="classm5avatar_1_1_base_eye.html" target="_top" xlink:title=" ">
<polygon fill="white" stroke="#666666" points="248.5,-434 148.5,-434 148.5,-415 248.5,-415 248.5,-434"/>
<text text-anchor="middle" x="198.5" y="-422" font-family="Helvetica,sans-Serif" font-size="10.00">m5avatar::BaseEye</text>
</a>
</g>
</g>
<!-- Node0&#45;&gt;Node3 -->
<g id="edge3" class="edge">
<title>Node0&#45;&gt;Node3</title>
<path fill="none" stroke="#63b8ff" d="M65.2,-231.73C95.36,-275.68 168.45,-382.18 190.86,-414.82"/>
<polygon fill="#63b8ff" stroke="#63b8ff" points="68.22,-229.95 59.68,-223.69 62.45,-233.91 68.22,-229.95"/>
</g>
<!-- Node9 -->
<g id="node10" class="node">
<title>Node9</title>
<g id="a_node10"><a xlink:href="classm5avatar_1_1_base_eyebrow.html" target="_top" xlink:title=" ">
<polygon fill="white" stroke="#666666" points="259,-324 138,-324 138,-305 259,-305 259,-324"/>
<text text-anchor="middle" x="198.5" y="-312" font-family="Helvetica,sans-Serif" font-size="10.00">m5avatar::BaseEyebrow</text>
</a>
</g>
</g>
<!-- Node0&#45;&gt;Node9 -->
<g id="edge9" class="edge">
<title>Node0&#45;&gt;Node9</title>
<path fill="none" stroke="#63b8ff" d="M69,-230.02C85.53,-246.37 111.89,-270.71 138,-287.5 148.3,-294.13 160.5,-299.97 171.17,-304.51"/>
<polygon fill="#63b8ff" stroke="#63b8ff" points="71.9,-227.98 62.37,-223.35 66.94,-232.92 71.9,-227.98"/>
</g>
<!-- Node13 -->
<g id="node14" class="node">
<title>Node13</title>
<g id="a_node14"><a xlink:href="classm5avatar_1_1_base_mouth.html" target="_top" xlink:title=" ">
<polygon fill="white" stroke="#666666" points="254,-278 143,-278 143,-259 254,-259 254,-278"/>
<text text-anchor="middle" x="198.5" y="-266" font-family="Helvetica,sans-Serif" font-size="10.00">m5avatar::BaseMouth</text>
</a>
</g>
</g>
<!-- Node0&#45;&gt;Node13 -->
<g id="edge13" class="edge">
<title>Node0&#45;&gt;Node13</title>
<path fill="none" stroke="#63b8ff" d="M82.58,-227.1C98.84,-234.59 119.29,-243.57 138,-250.5 145.69,-253.35 154.06,-256.09 162.03,-258.54"/>
<polygon fill="#63b8ff" stroke="#63b8ff" points="84.48,-224.13 73.93,-223.08 81.52,-230.47 84.48,-224.13"/>
</g>
<!-- Node18 -->
<g id="node19" class="node">
<title>Node18</title>
<g id="a_node19"><a xlink:href="classm5avatar_1_1_battery_icon.html" target="_top" xlink:title=" ">
<polygon fill="white" stroke="#666666" points="254,-241 143,-241 143,-222 254,-222 254,-241"/>
<text text-anchor="middle" x="198.5" y="-229" font-family="Helvetica,sans-Serif" font-size="10.00">m5avatar::BatteryIcon</text>
</a>
</g>
</g>
<!-- Node0&#45;&gt;Node18 -->
<g id="edge18" class="edge">
<title>Node0&#45;&gt;Node18</title>
<path fill="none" stroke="#63b8ff" d="M113.63,-220.55C123.27,-221.81 133.17,-223.1 142.64,-224.34"/>
<polygon fill="#63b8ff" stroke="#63b8ff" points="114.35,-217.11 103.98,-219.29 113.44,-224.05 114.35,-217.11"/>
</g>
<!-- Node19 -->
<g id="node20" class="node">
<title>Node19</title>
<g id="a_node20"><a xlink:href="classm5avatar_1_1_dog_eye.html" target="_top" xlink:title=" ">
<polygon fill="white" stroke="#666666" points="246,-204 151,-204 151,-185 246,-185 246,-204"/>
<text text-anchor="middle" x="198.5" y="-192" font-family="Helvetica,sans-Serif" font-size="10.00">m5avatar::DogEye</text>
</a>
</g>
</g>
<!-- Node0&#45;&gt;Node19 -->
<g id="edge19" class="edge">
<title>Node0&#45;&gt;Node19</title>
<path fill="none" stroke="#63b8ff" d="M113.65,-204.87C126,-203.35 138.78,-201.76 150.53,-200.31"/>
<polygon fill="#63b8ff" stroke="#63b8ff" points="113.48,-201.37 103.98,-206.07 114.34,-208.31 113.48,-201.37"/>
</g>
<!-- Node20 -->
<g id="node21" class="node">
<title>Node20</title>
<g id="a_node21"><a xlink:href="classm5avatar_1_1_dog_mouth.html" target="_top" xlink:title=" ">
<polygon fill="white" stroke="#666666" points="251.5,-167 145.5,-167 145.5,-148 251.5,-148 251.5,-167"/>
<text text-anchor="middle" x="198.5" y="-155" font-family="Helvetica,sans-Serif" font-size="10.00">m5avatar::DogMouth</text>
</a>
</g>
</g>
<!-- Node0&#45;&gt;Node20 -->
<g id="edge20" class="edge">
<title>Node0&#45;&gt;Node20</title>
<path fill="none" stroke="#63b8ff" d="M84.48,-198.11C100.47,-191.24 120.11,-183.09 138,-176.5 146.55,-173.35 155.89,-170.23 164.59,-167.44"/>
<polygon fill="#63b8ff" stroke="#63b8ff" points="83.23,-194.84 75.45,-202.04 86.02,-201.26 83.23,-194.84"/>
</g>
<!-- Node21 -->
<g id="node22" class="node">
<title>Node21</title>
<g id="a_node22"><a xlink:href="classm5avatar_1_1_effect.html" target="_top" xlink:title=" ">
<polygon fill="white" stroke="#666666" points="241.5,-130 155.5,-130 155.5,-111 241.5,-111 241.5,-130"/>
<text text-anchor="middle" x="198.5" y="-118" font-family="Helvetica,sans-Serif" font-size="10.00">m5avatar::Effect</text>
</a>
</g>
</g>
<!-- Node0&#45;&gt;Node21 -->
<g id="edge21" class="edge">
<title>Node0&#45;&gt;Node21</title>
<path fill="none" stroke="#63b8ff" d="M68.31,-194.71C84.51,-178.01 110.8,-153.44 138,-138.5 143.77,-135.33 150.17,-132.65 156.57,-130.41"/>
<polygon fill="#63b8ff" stroke="#63b8ff" points="66.18,-191.86 61.85,-201.53 71.26,-196.68 66.18,-191.86"/>
</g>
<!-- Node22 -->
<g id="node23" class="node">
<title>Node22</title>
<g id="a_node23"><a xlink:href="classm5avatar_1_1_eye.html" target="_top" xlink:title=" ">
<polygon fill="white" stroke="#666666" points="237,-93 160,-93 160,-74 237,-74 237,-93"/>
<text text-anchor="middle" x="198.5" y="-81" font-family="Helvetica,sans-Serif" font-size="10.00">m5avatar::Eye</text>
</a>
</g>
</g>
<!-- Node0&#45;&gt;Node22 -->
<g id="edge22" class="edge">
<title>Node0&#45;&gt;Node22</title>
<path fill="none" stroke="#63b8ff" d="M62.41,-192.42C76.33,-167.48 103.34,-125.35 138,-101.5 144.49,-97.03 152.12,-93.65 159.7,-91.1"/>
<polygon fill="#63b8ff" stroke="#63b8ff" points="59.33,-190.74 57.67,-201.2 65.5,-194.06 59.33,-190.74"/>
</g>
<!-- Node23 -->
<g id="node24" class="node">
<title>Node23</title>
<g id="a_node24"><a xlink:href="classm5avatar_1_1_eyeblow.html" target="_top" xlink:title=" ">
<polygon fill="white" stroke="#666666" points="247.5,-56 149.5,-56 149.5,-37 247.5,-37 247.5,-56"/>
<text text-anchor="middle" x="198.5" y="-44" font-family="Helvetica,sans-Serif" font-size="10.00">m5avatar::Eyeblow</text>
</a>
</g>
</g>
<!-- Node0&#45;&gt;Node23 -->
<g id="edge23" class="edge">
<title>Node0&#45;&gt;Node23</title>
<path fill="none" stroke="#63b8ff" d="M58.48,-191.78C69.57,-159.73 95.21,-98.33 138,-64.5 142.06,-61.29 146.69,-58.65 151.54,-56.48"/>
<polygon fill="#63b8ff" stroke="#63b8ff" points="55.23,-190.47 55.42,-201.07 61.88,-192.67 55.23,-190.47"/>
</g>
<!-- Node24 -->
<g id="node25" class="node">
<title>Node24</title>
<g id="a_node25"><a xlink:href="classm5avatar_1_1_mouth.html" target="_top" xlink:title=" ">
<polygon fill="white" stroke="#666666" points="243,-19 154,-19 154,0 243,0 243,-19"/>
<text text-anchor="middle" x="198.5" y="-7" font-family="Helvetica,sans-Serif" font-size="10.00">m5avatar::Mouth</text>
</a>
</g>
</g>
<!-- Node0&#45;&gt;Node24 -->
<g id="edge24" class="edge">
<title>Node0&#45;&gt;Node24</title>
<path fill="none" stroke="#63b8ff" d="M55.89,-191.57C64.09,-153.31 86.81,-71.92 138,-27.5 142.56,-23.54 147.98,-20.45 153.65,-18.04"/>
<polygon fill="#63b8ff" stroke="#63b8ff" points="52.47,-190.8 53.94,-201.3 59.34,-192.18 52.47,-190.8"/>
</g>
<!-- Node4 -->
<g id="node5" class="node">
<title>Node4</title>
<g id="a_node5"><a xlink:href="classm5avatar_1_1_doggy_eye.html" target="_top" xlink:title=" ">
<polygon fill="white" stroke="#666666" points="411,-564 307,-564 307,-545 411,-545 411,-564"/>
<text text-anchor="middle" x="359" y="-552" font-family="Helvetica,sans-Serif" font-size="10.00">m5avatar::DoggyEye</text>
</a>
</g>
</g>
<!-- Node3&#45;&gt;Node4 -->
<g id="edge4" class="edge">
<title>Node3&#45;&gt;Node4</title>
<path fill="none" stroke="#63b8ff" d="M255.1,-440.22C256.46,-441.25 257.77,-442.34 259,-443.5 291.27,-473.88 262.27,-506.62 295,-536.5 298.53,-539.72 302.59,-542.37 306.93,-544.55"/>
<polygon fill="#63b8ff" stroke="#63b8ff" points="257.08,-437.33 246.71,-435.17 253.47,-443.33 257.08,-437.33"/>
</g>
<!-- Node5 -->
<g id="node6" class="node">
<title>Node5</title>
<g id="a_node6"><a xlink:href="classm5avatar_1_1_ellipse_eye.html" target="_top" xlink:title=" ">
<polygon fill="white" stroke="#666666" points="412,-527 306,-527 306,-508 412,-508 412,-527"/>
<text text-anchor="middle" x="359" y="-515" font-family="Helvetica,sans-Serif" font-size="10.00">m5avatar::EllipseEye</text>
</a>
</g>
</g>
<!-- Node3&#45;&gt;Node5 -->
<g id="edge5" class="edge">
<title>Node3&#45;&gt;Node5</title>
<path fill="none" stroke="#63b8ff" d="M253.05,-439.49C255.12,-440.72 257.12,-442.06 259,-443.5 282.48,-461.51 271.25,-481.86 295,-499.5 299.38,-502.76 304.34,-505.42 309.49,-507.61"/>
<polygon fill="#63b8ff" stroke="#63b8ff" points="254.74,-436.42 244.24,-435.08 251.62,-442.68 254.74,-436.42"/>
</g>
<!-- Node6 -->
<g id="node7" class="node">
<title>Node6</title>
<g id="a_node7"><a xlink:href="classm5avatar_1_1_pink_demon_eye.html" target="_top" xlink:title=" ">
<polygon fill="white" stroke="#666666" points="423,-490 295,-490 295,-471 423,-471 423,-490"/>
<text text-anchor="middle" x="359" y="-478" font-family="Helvetica,sans-Serif" font-size="10.00">m5avatar::PinkDemonEye</text>
</a>
</g>
</g>
<!-- Node3&#45;&gt;Node6 -->
<g id="edge6" class="edge">
<title>Node3&#45;&gt;Node6</title>
<path fill="none" stroke="#63b8ff" d="M244.75,-438.02C249.6,-439.75 254.43,-441.58 259,-443.5 275.68,-450.5 278.21,-455.76 295,-462.5 302.39,-465.47 310.45,-468.16 318.26,-470.5"/>
<polygon fill="#63b8ff" stroke="#63b8ff" points="246.2,-434.82 235.6,-434.92 243.95,-441.45 246.2,-434.82"/>
</g>
<!-- Node7 -->
<g id="node8" class="node">
<title>Node7</title>
<g id="a_node8"><a xlink:href="classm5avatar_1_1_toon_eye1.html" target="_top" xlink:title=" ">
<polygon fill="white" stroke="#666666" points="411,-453 307,-453 307,-434 411,-434 411,-453"/>
<text text-anchor="middle" x="359" y="-441" font-family="Helvetica,sans-Serif" font-size="10.00">m5avatar::ToonEye1</text>
</a>
</g>
</g>
<!-- Node3&#45;&gt;Node7 -->
<g id="edge7" class="edge">
<title>Node3&#45;&gt;Node7</title>
<path fill="none" stroke="#63b8ff" d="M259.79,-431.73C275.2,-433.57 291.63,-435.54 306.56,-437.33"/>
<polygon fill="#63b8ff" stroke="#63b8ff" points="260.63,-428.3 250.28,-430.59 259.8,-435.25 260.63,-428.3"/>
</g>
<!-- Node8 -->
<g id="node9" class="node">
<title>Node8</title>
<g id="a_node9"><a xlink:href="classm5avatar_1_1_toon_eye2.html" target="_top" xlink:title=" ">
<polygon fill="white" stroke="#666666" points="411,-416 307,-416 307,-397 411,-397 411,-416"/>
<text text-anchor="middle" x="359" y="-404" font-family="Helvetica,sans-Serif" font-size="10.00">m5avatar::ToonEye2</text>
</a>
</g>
</g>
<!-- Node3&#45;&gt;Node8 -->
<g id="edge8" class="edge">
<title>Node3&#45;&gt;Node8</title>
<path fill="none" stroke="#63b8ff" d="M259.79,-417.65C275.2,-415.9 291.63,-414.04 306.56,-412.34"/>
<polygon fill="#63b8ff" stroke="#63b8ff" points="259.83,-414.13 250.29,-418.73 260.62,-421.08 259.83,-414.13"/>
</g>
<!-- Node10 -->
<g id="node11" class="node">
<title>Node10</title>
<g id="a_node11"><a xlink:href="classm5avatar_1_1_bow_eyebrow.html" target="_top" xlink:title=" ">
<polygon fill="white" stroke="#666666" points="418,-379 300,-379 300,-360 418,-360 418,-379"/>
<text text-anchor="middle" x="359" y="-367" font-family="Helvetica,sans-Serif" font-size="10.00">m5avatar::BowEyebrow</text>
</a>
</g>
</g>
<!-- Node9&#45;&gt;Node10 -->
<g id="edge10" class="edge">
<title>Node9&#45;&gt;Node10</title>
<path fill="none" stroke="#63b8ff" d="M233.82,-328.67C251.88,-335.91 274.48,-344.61 295,-351.5 303.41,-354.32 312.55,-357.1 321.18,-359.59"/>
<polygon fill="#63b8ff" stroke="#63b8ff" points="235.21,-325.46 224.62,-324.95 232.58,-331.95 235.21,-325.46"/>
</g>
<!-- Node11 -->
<g id="node12" class="node">
<title>Node11</title>
<g id="a_node12"><a xlink:href="classm5avatar_1_1_ellipse_eyebrow.html" target="_top" xlink:title=" ">
<polygon fill="white" stroke="#666666" points="422.5,-342 295.5,-342 295.5,-323 422.5,-323 422.5,-342"/>
<text text-anchor="middle" x="359" y="-330" font-family="Helvetica,sans-Serif" font-size="10.00">m5avatar::EllipseEyebrow</text>
</a>
</g>
</g>
<!-- Node9&#45;&gt;Node11 -->
<g id="edge11" class="edge">
<title>Node9&#45;&gt;Node11</title>
<path fill="none" stroke="#63b8ff" d="M270.77,-322.59C278.88,-323.51 287.1,-324.45 295.09,-325.36"/>
<polygon fill="#63b8ff" stroke="#63b8ff" points="271.26,-319.13 260.93,-321.48 270.47,-326.08 271.26,-319.13"/>
</g>
<!-- Node12 -->
<g id="node13" class="node">
<title>Node12</title>
<g id="a_node13"><a xlink:href="classm5avatar_1_1_rect_eyebrow.html" target="_top" xlink:title=" ">
<polygon fill="white" stroke="#666666" points="418.5,-305 299.5,-305 299.5,-286 418.5,-286 418.5,-305"/>
<text text-anchor="middle" x="359" y="-293" font-family="Helvetica,sans-Serif" font-size="10.00">m5avatar::RectEyebrow</text>
</a>
</g>
</g>
<!-- Node9&#45;&gt;Node12 -->
<g id="edge12" class="edge">
<title>Node9&#45;&gt;Node12</title>
<path fill="none" stroke="#63b8ff" d="M270.82,-305.95C280.26,-304.82 289.85,-303.67 299.04,-302.57"/>
<polygon fill="#63b8ff" stroke="#63b8ff" points="270.44,-302.47 260.92,-307.14 271.27,-309.42 270.44,-302.47"/>
</g>
<!-- Node14 -->
<g id="node15" class="node">
<title>Node14</title>
<g id="a_node15"><a xlink:href="classm5avatar_1_1_doggy_mouth.html" target="_top" xlink:title=" ">
<polygon fill="white" stroke="#666666" points="417,-268 301,-268 301,-249 417,-249 417,-268"/>
<text text-anchor="middle" x="359" y="-256" font-family="Helvetica,sans-Serif" font-size="10.00">m5avatar::DoggyMouth</text>
</a>
</g>
</g>
<!-- Node13&#45;&gt;Node14 -->
<g id="edge14" class="edge">
<title>Node13&#45;&gt;Node14</title>
<path fill="none" stroke="#63b8ff" d="M265.89,-264.31C277.45,-263.58 289.39,-262.83 300.68,-262.12"/>
<polygon fill="#63b8ff" stroke="#63b8ff" points="265.76,-260.81 256,-264.94 266.2,-267.8 265.76,-260.81"/>
</g>
<!-- Node15 -->
<g id="node16" class="node">
<title>Node15</title>
<g id="a_node16"><a xlink:href="classm5avatar_1_1_omega_mouth.html" target="_top" xlink:title=" ">
<polygon fill="white" stroke="#666666" points="419,-231 299,-231 299,-212 419,-212 419,-231"/>
<text text-anchor="middle" x="359" y="-219" font-family="Helvetica,sans-Serif" font-size="10.00">m5avatar::OmegaMouth</text>
</a>
</g>
</g>
<!-- Node13&#45;&gt;Node15 -->
<g id="edge15" class="edge">
<title>Node13&#45;&gt;Node15</title>
<path fill="none" stroke="#63b8ff" d="M244,-255.3C269.51,-247.74 301.02,-238.4 324.43,-231.45"/>
<polygon fill="#63b8ff" stroke="#63b8ff" points="243.16,-251.9 234.56,-258.1 245.15,-258.61 243.16,-251.9"/>
</g>
<!-- Node16 -->
<g id="node17" class="node">
<title>Node16</title>
<g id="a_node17"><a xlink:href="classm5avatar_1_1_rect_mouth.html" target="_top" xlink:title=" ">
<polygon fill="white" stroke="#666666" points="413.5,-194 304.5,-194 304.5,-175 413.5,-175 413.5,-194"/>
<text text-anchor="middle" x="359" y="-182" font-family="Helvetica,sans-Serif" font-size="10.00">m5avatar::RectMouth</text>
</a>
</g>
</g>
<!-- Node13&#45;&gt;Node16 -->
<g id="edge16" class="edge">
<title>Node13&#45;&gt;Node16</title>
<path fill="none" stroke="#63b8ff" d="M254.05,-253.6C255.76,-252.63 257.41,-251.6 259,-250.5 280.64,-235.52 273.36,-218.47 295,-203.5 300.36,-199.8 306.45,-196.8 312.69,-194.38"/>
<polygon fill="#63b8ff" stroke="#63b8ff" points="252.7,-250.37 245.21,-257.86 255.74,-256.68 252.7,-250.37"/>
</g>
<!-- Node17 -->
<g id="node18" class="node">
<title>Node17</title>
<g id="a_node18"><a xlink:href="classm5avatar_1_1_toon_mouth1.html" target="_top" xlink:title=" ">
<polygon fill="white" stroke="#666666" points="417,-157 301,-157 301,-138 417,-138 417,-157"/>
<text text-anchor="middle" x="359" y="-145" font-family="Helvetica,sans-Serif" font-size="10.00">m5avatar::ToonMouth1</text>
</a>
</g>
</g>
<!-- Node13&#45;&gt;Node17 -->
<g id="edge17" class="edge">
<title>Node13&#45;&gt;Node17</title>
<path fill="none" stroke="#63b8ff" d="M256.55,-252.54C257.39,-251.89 258.21,-251.21 259,-250.5 289.27,-223.42 264.72,-193.57 295,-166.5 299.17,-162.77 304.06,-159.77 309.23,-157.36"/>
<polygon fill="#63b8ff" stroke="#63b8ff" points="254.72,-249.55 248.04,-257.78 258.39,-255.52 254.72,-249.55"/>
</g>
</g>
</svg>
